<?xml version="1.0" encoding="UTF-8"?><svg id="Layer_2" xmlns="http://www.w3.org/2000/svg" viewBox="0 0 1089.65 820.23"><g id="Layer_1-2"><path d="m33.68,727.07c1.64,20.18,3.28,40.35,4.91,60.53.47,5.73.93,11.46,1.4,17.19.16,1.91,3.16,1.93,3,0-1.64-20.18-3.28-40.35-4.91-60.53-.47-5.73-.93-11.46-1.4-17.19-.16-1.91-3.16-1.93-3,0h0Z" fill="#008a0d" stroke-width="0"/><path d="m83.9,757.61v41.67c0,1.93,3,1.93,3,0v-41.67c0-1.93-3-1.93-3,0h0Z" fill="#008a0d" stroke-width="0"/><path d="m121.06,768.61c1.3,12.1,2.6,24.19,3.89,36.29.2,1.9,3.21,1.92,3,0-1.3-12.1-2.6-24.19-3.89-36.29-.2-1.9-3.21-1.92-3,0h0Z" fill="#008a0d" stroke-width="0"/><path d="m.82,773.91c-2.07,10.86-.2,22.2,5.32,31.78.96,1.67,3.56.16,2.59-1.51-5.11-8.86-6.94-19.42-5.02-29.47.36-1.89-2.53-2.69-2.89-.8h0Z" fill="#008a0d" stroke-width="0"/><path d="m127.78,719.3c6.54,21.65,13.08,43.31,19.63,64.96,1.85,6.11,3.69,12.22,5.54,18.32.56,1.84,3.45,1.06,2.89-.8-6.54-21.65-13.08-43.31-19.63-64.96-1.85-6.11-3.69-12.22-5.54-18.32-.56-1.84-3.45-1.06-2.89.8h0Z" fill="#008a0d" stroke-width="0"/><path d="m161.95,777.77c3.53,5.66,7.07,11.32,10.6,16.98,1.02,1.63,3.62.13,2.59-1.51-3.53-5.66-7.07-11.32-10.6-16.98-1.02-1.63-3.62-.13-2.59,1.51h0Z" fill="#008a0d" stroke-width="0"/><path d="m203.48,696.11c-3.82,22.94-5.85,46.17-6,69.43-.04,6.62.07,13.23.33,19.85.07,1.92,3.08,1.93,3,0-.9-23.02.02-46.11,2.76-68.98.78-6.52,1.72-13.02,2.8-19.49.31-1.89-2.58-2.7-2.89-.8h0Z" fill="#008a0d" stroke-width="0"/><path d="m228.34,779.83v16.67c0,1.93,3,1.93,3,0v-16.67c0-1.93-3-1.93-3,0h0Z" fill="#008a0d" stroke-width="0"/><path d="m262.43,769.39c8.85,7.18,13.69,18.49,12.77,29.85-.16,1.92,2.84,1.91,3,0,.98-12.05-4.26-24.35-13.64-31.97-1.49-1.21-3.62.9-2.12,2.12h0Z" fill="#008a0d" stroke-width="0"/><path d="m289.35,724.28c.65,21.3,3.11,42.55,7.37,63.43,1.2,5.86,2.54,11.69,4.01,17.49.48,1.87,3.37,1.08,2.89-.8-5.19-20.4-8.66-41.22-10.3-62.21-.47-5.96-.79-11.94-.97-17.92-.06-1.93-3.06-1.93-3,0h0Z" fill="#008a0d" stroke-width="0"/><path d="m325.73,729.83c.47,18.6,3.18,37.16,8.09,55.11,1.39,5.08,2.96,10.11,4.7,15.09.63,1.81,3.53,1.03,2.89-.8-6.07-17.39-10.07-35.51-11.78-53.86-.48-5.17-.78-10.35-.91-15.54-.05-1.93-3.05-1.93-3,0h0Z" fill="#008a0d" stroke-width="0"/><path d="m353.55,780.59l5.56,11.11c.36.72,1.39.93,2.05.54.74-.43.9-1.33.54-2.05l-5.56-11.11c-.36-.72-1.39-.93-2.05-.54-.74.43-.9,1.33-.54,2.05h0Z" fill="#008a0d" stroke-width="0"/><path d="m372.39,715.96c1.28,25.75,5.08,51.38,11.35,76.39,1.78,7.11,3.77,14.16,5.94,21.16.57,1.84,3.47,1.05,2.89-.8-7.62-24.52-12.86-49.77-15.53-75.31-.75-7.13-1.29-14.28-1.65-21.44-.1-1.92-3.1-1.93-3,0h0Z" fill="#008a0d" stroke-width="0"/><path d="m404.13,794.43c2.78,2.78,5.56,5.56,8.33,8.33.56.56,1.57.6,2.12,0s.59-1.53,0-2.12c-2.78-2.78-5.56-5.56-8.33-8.33-.56-.56-1.57-.6-2.12,0s-.59,1.53,0,2.12h0Z" fill="#008a0d" stroke-width="0"/><path d="m432.01,780.89c4.44,2.68,7.28,7.64,7.35,12.83.03,1.93,3.03,1.93,3,0-.09-6.24-3.5-12.19-8.84-15.42-1.66-1-3.17,1.59-1.51,2.59h0Z" fill="#008a0d" stroke-width="0"/><path d="m469.96,777.48c2.47,8.42,4.94,16.85,7.41,25.27.54,1.85,3.44,1.06,2.89-.8-2.47-8.42-4.94-16.85-7.41-25.27-.54-1.85-3.44-1.06-2.89.8h0Z" fill="#008a0d" stroke-width="0"/><path d="m506.46,727.36c5.61,18.04,11.22,36.08,16.83,54.12,1.61,5.17,3.21,10.33,4.82,15.5.57,1.84,3.47,1.05,2.89-.8-5.61-18.04-11.22-36.08-16.83-54.12-1.61-5.17-3.21-10.33-4.82-15.5-.57-1.84-3.47-1.05-2.89.8h0Z" fill="#008a0d" stroke-width="0"/><path d="m568.06,794.41c2.73,2.83,5.45,5.66,8.18,8.49.55.57,1.58.59,2.12,0s.58-1.52,0-2.12c-2.73-2.83-5.45-5.66-8.18-8.49-.55-.57-1.58-.59-2.12,0s-.58,1.52,0,2.12h0Z" fill="#008a0d" stroke-width="0"/><path d="m614.9,775.34c1.85,1.85,3.7,3.7,5.56,5.56.56.56,1.57.6,2.12,0s.59-1.53,0-2.12c-1.85-1.85-3.7-3.7-5.56-5.56-.56-.56-1.57-.6-2.12,0s-.59,1.53,0,2.12h0Z" fill="#008a0d" stroke-width="0"/><path d="m649.67,718.52c10.86,19.09,18.01,40.27,20.91,62.04.83,6.21,1.29,12.46,1.43,18.73.04,1.93,3.04,1.93,3,0-.5-22.44-5.39-44.67-14.27-65.27-2.51-5.82-5.35-11.5-8.48-17.01-.95-1.68-3.55-.17-2.59,1.51h0Z" fill="#008a0d" stroke-width="0"/><path d="m711.73,785.78c1.66,10.22,3.33,20.43,4.99,30.65.31,1.9,3.2,1.09,2.89-.8-1.66-10.22-3.33-20.43-4.99-30.65-.31-1.9-3.2-1.09-2.89.8h0Z" fill="#008a0d" stroke-width="0"/><path d="m762.6,794.78c3.06,2.28,4.74,6.22,4.48,10.04-.06.81.73,1.5,1.5,1.5.86,0,1.44-.69,1.5-1.5.34-4.93-2.03-9.71-5.96-12.63-.65-.48-1.68-.11-2.05.54-.45.76-.11,1.57.54,2.05h0Z" fill="#008a0d" stroke-width="0"/><path d="m780.81,718.46c10.27,22.87,18.1,46.83,23.36,71.35,1.5,7,2.79,14.04,3.87,21.11.29,1.9,3.18,1.09,2.89-.8-3.83-25.07-10.31-49.72-19.33-73.43-2.54-6.66-5.28-13.25-8.2-19.75-.79-1.76-3.38-.23-2.59,1.51h0Z" fill="#008a0d" stroke-width="0"/><path d="m850.81,782.96c.98,3.69,1.97,7.38,2.95,11.06.21.78,1.07,1.26,1.85,1.05s1.26-1.06,1.05-1.85c-.98-3.69-1.97-7.38-2.95-11.06-.21-.78-1.07-1.26-1.85-1.05s-1.26,1.06-1.05,1.85h0Z" fill="#008a0d" stroke-width="0"/><path d="m896.56,723.12c3.94.14,6.76,2.96,8.69,6.17,2.33,3.87,3.51,8.21,4.72,12.52,3.27,11.67,6.54,23.34,9.81,35.01,1.88,6.71,3.76,13.43,5.64,20.14.52,1.86,3.42,1.07,2.89-.8-3.49-12.47-6.99-24.94-10.48-37.41-1.72-6.15-3.45-12.31-5.17-18.46-1.24-4.41-2.55-8.87-4.99-12.8s-6.19-7.2-11.11-7.37c-1.93-.07-1.93,2.93,0,3h0Z" fill="#008a0d" stroke-width="0"/><path d="m948.79,785.95c6.05,6.9,11.28,14.46,15.64,22.54.92,1.7,3.51.19,2.59-1.51-4.48-8.3-9.89-16.05-16.11-23.14-1.28-1.45-3.39.67-2.12,2.12h0Z" fill="#008a0d" stroke-width="0"/><path d="m979.84,786.77c7.13-.28,14.18,5.34,15.11,12.52.1.8.61,1.5,1.5,1.5.73,0,1.6-.69,1.5-1.5-1.13-8.75-9.19-15.87-18.11-15.52-1.92.08-1.93,3.08,0,3h0Z" fill="#008a0d" stroke-width="0"/><path d="m1020.91,780.9c7.02,5.09,11.62,13.02,12.81,21.58.11.81,1.14,1.23,1.85,1.05.87-.23,1.16-1.05,1.05-1.85-1.3-9.36-6.57-17.84-14.19-23.37-1.56-1.14-3.06,1.47-1.51,2.59h-.01Z" fill="#008a0d" stroke-width="0"/><path d="m1078.4,738.56c2.78,14.81,5.56,29.63,8.33,44.44.36,1.9,3.25,1.09,2.89-.8-2.78-14.81-5.56-29.63-8.33-44.44-.36-1.9-3.25-1.09-2.89.8h0Z" fill="#008a0d" stroke-width="0"/><path d="m888.18,789.66c1.93,0,1.93-3,0-3s-1.93,3,0,3h0Z" fill="#008a0d" stroke-width="0"/><path d="m887,788.84c1.85,2.78,3.7,5.56,5.55,8.33.43.65,1.34.99,2.05.54.65-.42,1-1.35.54-2.05-1.85-2.78-3.7-5.56-5.55-8.33-.43-.65-1.34-.99-2.05-.54-.65.42-1,1.35-.54,2.05h0Z" fill="#008a0d" stroke-width="0"/><path d="m204.39,250.44c-7.57,2.02-15.51.27-23.16-.24s-15.1.3-20.21,6.14c-2.83,3.23-4.44,7.28-5.78,11.32-1.1,3.33-2.01,6.72-2.71,10.16-1.41,6.86-2.05,13.88-1.95,20.88.21,14.19,3.43,28.25,9.08,41.25,5.61,12.91,13.74,24.79,23.92,34.52,11.02,10.54,24.76,18.87,39.63,22.58,8.84,2.2,18,2.36,26.82-.02s16.13-6.45,23.26-11.32,13.88-10.38,20.35-16.09c6.08-5.37,12.03-11.65,14.27-19.67,2.52-8.99-.31-18.38-3.67-26.74-2.85-7.12-6.37-13.95-10.52-20.41-8.27-12.87-18.87-24.15-31.07-33.35s-26.02-16.22-40.68-20.46c-3.59-1.04-7.23-1.9-10.91-2.6-1.89-.36-2.7,2.53-.8,2.89,14.53,2.75,28.43,8.25,41.01,16.01,12.52,7.73,23.67,17.64,32.83,29.17,4.6,5.8,8.67,12.03,12.14,18.57,3.7,6.98,7.04,14.47,8.76,22.2.99,4.44,1.29,9.1.12,13.54-.99,3.78-2.96,7.24-5.37,10.3-5.01,6.35-11.63,11.48-17.9,16.52-12.97,10.42-28.09,20.36-45.36,20.22-9.16-.07-18.16-2.81-26.4-6.67-6.11-2.86-11.93-6.43-17.24-10.6-10.71-8.4-19.53-19.05-26.09-30.96-6.53-11.85-10.87-24.99-12.47-38.43-1.61-13.49-.52-27.28,3.69-40.22,1.24-3.81,2.68-7.79,5.44-10.78,2.4-2.61,5.56-4.09,9.02-4.72,7.22-1.3,14.73.58,21.96.88,3.62.15,7.28-.04,10.8-.98,1.86-.5,1.07-3.39-.8-2.89h-.01Z" fill="#ff0012" stroke-width="0"/><path d="m228.34,402.03c.01,14.14.02,28.28.03,42.42,0,5.92.39,12-.37,17.9-.6,4.6-2.2,9.47-6.52,11.81-4.74,2.58-10.24.45-14.46-2.16-5.27-3.27-9.5-7.86-13.88-12.19-9.99-9.89-19.98-19.79-29.97-29.68-11.23-11.12-22.46-22.24-33.69-33.37-1.37-1.36-3.5.76-2.12,2.12,20.81,20.6,41.61,41.21,62.42,61.81,4.58,4.54,9.01,9.36,14.37,13.01,4.46,3.03,9.96,5.49,15.46,4.32,11.9-2.54,11.77-17.1,11.76-26.58-.01-16.47-.03-32.94-.04-49.4,0-1.93-3-1.93-3,0h.01Z" fill="#ff0012" stroke-width="0"/><path d="m230.17,472.61c18.76-3.75,36.88-10.6,53.52-20.04,16.52-9.38,31.62-21.32,44.5-35.28,7.31-7.93,13.91-16.51,19.67-25.63.49-.77.04-2.03-.9-2.2-6.75-1.28-13.3-4.63-17.62-10.07-4.06-5.12-5.39-11.76-2.72-17.83,2.38-5.41,7.7-10.1,13.94-9.35,6.73.81,11.31,7.13,12.86,13.28,2.36,9.35-1.85,19.09-5.44,27.54-.73,1.73,1.74,3.28,2.59,1.51,3.51-7.29,7.03-14.58,10.54-21.86,1.72-3.57,3.43-7.14,5.16-10.71,1.27-2.61,3.03-5.6,5.75-6.92,2.99-1.45,4.55,1.45,5.37,3.9,1.1,3.28,1.85,6.69,2.08,10.15.44,6.63-.96,13.69-5.33,18.89s-10.83,8.44-17.5,7.28l.36,2.74c7.14-3.59,14.83-7.51,23.04-7.33,6.01.13,12.6,2.91,15.58,8.39,3.2,5.89.41,12.45-4.37,16.49-5.33,4.5-12.25,5.34-18.74,3.14-7.57-2.57-13.67-8.56-18.21-14.96l-.54,2.05c3.88-1.73,8.03.4,11.17,2.67,3.42,2.47,6.4,5.66,9.25,8.75,5.08,5.51,10.4,12.76,9.32,20.7-.82,6-5.33,12.65-12.07,12.09-7.32-.6-11.58-8.71-14.34-14.56-4.73-10.05-8.75-20.43-12.07-31.04-.58-1.84-3.47-1.05-2.89.8,3.28,10.47,7.24,20.73,11.87,30.68,3.23,6.95,7.92,15.75,16.35,16.99,7.91,1.16,14.01-5.37,15.73-12.57,2.1-8.76-2.6-16.96-8.15-23.39-3.43-3.98-7.21-7.96-11.48-11.04s-9.24-4.88-14.2-2.67c-.7.31-.97,1.44-.54,2.05,4.59,6.47,10.48,12.38,17.88,15.52,7.18,3.05,15.2,2.94,21.77-1.56,5.91-4.05,10.2-11.22,8.13-18.52-1.97-6.97-8.77-11.42-15.63-12.63-10.04-1.77-19.66,2.96-28.38,7.35-1.1.55-.91,2.52.36,2.74,6.81,1.19,13.56-1.37,18.52-6.05,5.49-5.17,8.05-12.58,8.18-20.01.07-3.93-.51-7.9-1.56-11.69-.9-3.22-2-7.17-5.48-8.44-3.13-1.15-6.25.88-8.29,3.12-2.64,2.9-4.11,6.56-5.79,10.04-4.48,9.3-8.96,18.59-13.44,27.89l2.59,1.51c3.72-8.75,7.71-18.24,6.13-27.96-1.18-7.24-5.98-14.57-13.24-16.81-7.09-2.19-14.08,1.6-17.95,7.53-4.15,6.36-4.32,14.24-.6,20.83,4.33,7.69,12.75,12.59,21.25,14.2l-.9-2.2c-10.06,15.91-22.72,30.1-37.24,42.07s-30.81,21.61-48.22,28.51c-9.85,3.9-20.04,6.92-30.43,8.99-1.89.38-1.09,3.27.8,2.89h0v.04Z" fill="#ff0012" stroke-width="0"/><path d="m126.12,406.68c-3.55,2.95-5.7,7.17-7.6,11.28s-3.38,8.27-6.28,11.52-7.28,4.46-11.07,2.05c-4.26-2.72-6.16-8.54-4.31-13.22,2.32-5.89,8.87-9.25,14.92-9.64,1.18-.08,2.12-1.66,1.06-2.56-6.15-5.24-11.7-11.18-16.44-17.73-2.36-3.27-4.53-6.68-6.5-10.2s-3.84-7.01-5.1-10.73c-1.01-2.96-1.72-7.46,1.9-8.97,2.91-1.21,6.53.38,9.04,1.86,3.19,1.88,6.09,4.42,8.79,6.95s5.39,5.47,7.73,8.5c5.29,6.87,9.32,14.67,11.84,22.96l2.89-.8c-5.69-15.76-8.66-32.43-8.68-49.18,0-4.8.23-9.59.69-14.37l-2.8.76c7.05,14.34,10.61,30.31,10.4,46.28-.06,4.53-.42,9.06-1.09,13.54-.15,1.02.65,2.27,1.85,1.85,12.13-4.29,19.31-18.81,15.03-31.03l-2.51,1.46c9.19,7.41,11.15,22.34,3.71,31.67-1.19,1.49.92,3.63,2.12,2.12,8.38-10.52,6.86-27.38-3.71-35.91-1.05-.84-3.05-.1-2.51,1.46,3.71,10.6-2.27,23.56-12.93,27.34l1.85,1.85c2.46-16.41,1.05-33.3-4.21-49.04-1.5-4.48-3.31-8.85-5.39-13.09-.72-1.46-2.67-.58-2.8.76-1.64,16.92-.32,34.12,3.87,50.6,1.18,4.65,2.6,9.24,4.23,13.75.65,1.79,3.46,1.07,2.89-.8-2.46-8.09-6.28-15.76-11.31-22.57s-10.8-12.75-17.69-17.19c-3.03-1.95-6.83-3.51-10.5-3s-6.35,3.7-6.54,7.49c-.2,4.08,1.85,8.06,3.57,11.63,1.93,4.01,4.12,7.89,6.56,11.62,5.44,8.32,12.06,15.84,19.62,22.29l1.06-2.56c-6.32.41-12.67,3.37-16.24,8.75-3.42,5.15-3.05,11.72.72,16.58,3.49,4.49,9.36,6.17,14.5,3.48,4.25-2.22,6.59-6.86,8.53-11.02,2.39-5.14,4.46-10.93,8.95-14.65,1.49-1.23-.65-3.35-2.12-2.12h0v-.02Z" fill="#ff0012" stroke-width="0"/><path d="m224.63,476.42c-5.42,18-12.28,35.56-20.52,52.46s-17.75,32.98-28.52,48.28c-6.1,8.67-12.6,17.04-19.47,25.11-.84.99-.3,2.51,1.06,2.56,19.92.73,39.83,1.86,59.71,3.41,19.88,1.55,39.72,3.5,59.52,5.87,11.16,1.33,22.29,2.8,33.42,4.39.81.12,1.6-.2,1.85-1.05.2-.7-.25-1.73-1.05-1.85-19.87-2.85-39.79-5.3-59.76-7.32s-39.88-3.63-59.86-4.83c-11.27-.67-22.54-1.21-33.82-1.63l1.06,2.56c12.3-14.46,23.45-29.9,33.27-46.14,9.83-16.25,18.32-33.29,25.43-50.89,3.99-9.88,7.51-19.94,10.58-30.14.56-1.85-2.34-2.64-2.89-.8h0Z" fill="#00078b" stroke-width="0"/><path d="m227.42,476.41c13.07,16.58,25.46,33.69,37.16,51.26,11.64,17.49,22.57,35.45,32.78,53.81,5.75,10.35,11.27,20.83,16.55,31.43.86,1.73,3.45.21,2.59-1.51-9.44-18.94-19.64-37.5-30.56-55.62s-22.58-35.8-34.93-52.99c-6.94-9.66-14.1-19.16-21.46-28.5-1.19-1.52-3.3.62-2.12,2.12h-.01Z" fill="#00078b" stroke-width="0"/><path d="m211.03,538.72c-1.4,2.11-2.88,4.17-4.42,6.18l2.35-3.04c-8.98,11.63-20.07,21.37-31.65,30.33l3.04-2.35c-5.84,4.5-11.81,8.82-17.78,13.13l-3.04,2.35c-1.46,1.36-2.5,2.97-3.1,4.83-1.26,2.98-1.78,6.6-.76,9.77.8,2.47,2.1,4.7,3.86,6.62,2.47,2.69,6.98,4.48,10.61,4.39,31.03-.77,62.09-.03,93.05,2.23,8.73.64,17.44,1.4,26.15,2.27l3.99-.54,3.58-1.51c2.82-1.65,4.88-4.2,6.14-7.17.68-1.17,1.02-2.43,1.02-3.79.36-1.33.36-2.66,0-3.99,0-1.35-.35-2.62-1.02-3.79-.6-1.86-1.64-3.47-3.1-4.83-6.15-6.08-11.88-12.56-17.18-19.39l2.35,3.04c-10.49-13.58-19.19-28.49-25.87-44.3l1.51,3.58c-5.43-12.9-9.5-26.35-12.07-40.12l-1.51-3.58c-.94-1.75-2.23-3.15-3.86-4.21-2.53-1.95-5.8-3.37-9.09-3.22-2.66.12-5.21.8-7.57,2.05-1.75.94-3.15,2.23-4.21,3.86-1.33,1.45-2.22,3.15-2.68,5.1-2.68,14.29-5.35,28.58-8.03,42.86-1.29,6.9-2.79,13.79-3.81,20.74-.4,2.74-.86,5.57-.95,8.35s.31,5.56.77,8.28c.86,5.09,3.43,9.6,6.8,13.43.44.49.91.94,1.42,1.37,1.38,1.16,2.83,2.35,4.37,3.3,2.08,1.28,4.44,2.31,6.82,2.87,5.86,1.39,12.94,1,17.95-2.72,1.75-.94,3.15-2.23,4.21-3.86,1.33-1.45,2.22-3.15,2.68-5.1.99-3.59.54-8.37-1.51-11.56s-5.14-6.02-8.96-6.89-8.38-.85-11.56,1.51c-.51.38-1.03.68-1.61.93l3.58-1.51c-.57.22-1.14.36-1.75.46l3.99-.54c-.72.08-1.41.07-2.12-.01l3.99.54c-.94-.14-1.84-.41-2.72-.78l3.58,1.51c-.9-.41-1.72-.91-2.51-1.5l3.04,2.35c-.78-.62-1.47-1.3-2.09-2.08l2.35,3.04c-.62-.81-1.11-1.67-1.51-2.61l1.51,3.58c-.53-1.34-.87-2.7-1.08-4.12l.54,3.99c-.32-2.6-.16-5.2.18-7.8l-.54,3.99c1.15-8.24,2.99-16.42,4.52-24.6s3.12-16.66,4.68-24.98c.9-4.82,1.81-9.63,2.71-14.45h-28.93c3.1,16.57,8.49,32.48,15.39,47.85,6.41,14.27,14.51,27.76,24.07,40.15,6.07,7.87,12.45,15.43,19.53,22.42,3.54-8.54,7.07-17.07,10.61-25.61-30.88-3.11-61.91-4.71-92.95-4.79-8.75-.02-17.5.08-26.25.29l7.57,27.95c16.55-11.93,33.49-23.99,47.1-39.33,4.38-4.94,8.47-10.19,12.13-15.69,2.08-3.13,2.49-8.02,1.51-11.56s-3.65-7.25-6.89-8.96c-3.48-1.84-7.7-2.76-11.56-1.51-3.84,1.24-6.71,3.51-8.96,6.89h-.05Z" fill="#00078b" stroke-width="0"/><path d="m198.56,615.96c.25,16.76,1.26,33.5,3.05,50.16s4.35,33.45,7.68,49.98c.83,4.13,1.71,8.24,2.64,12.35.74,3.28,2.22,7.18,1.45,10.57-.16.69-.32,1.13-.64,1.67-.07.11-.47.7-.19.35-.23.3-.5.57-.78.83-.58.53-1.57,1.03-2.42,1.28-1.34.4-1.85.45-3.42.4-.31,0-.63-.03-.94-.05-.12-.01-.87-.12-.46-.05-.68-.11-1.35-.26-2.01-.45-1.44-.42-2.04-.7-3.39-1.53-1.42-.88-2.72-1.89-3.97-2.98-2.7-2.34-5.19-4.92-8.01-7.12-4.85-3.79-10.41-6.03-16.6-6.18-11.49-.28-22.47,6.17-29.26,15.16-7.69,10.18-8.41,23.87-4.23,35.64,4.58,12.9,14.14,23.68,25.88,30.57,13.04,7.66,28.04,10.92,42.93,12.54,6.93.76,14.19,1.69,21.13.7s12.71-5.14,13.91-12.13c1.26-7.35-1.85-14.43-4.44-21.14-3.08-7.96-6.16-15.93-9.24-23.89-1.52-3.94-3.05-7.89-4.57-11.83-.58-1.51-2.02-2.56-3.69-2.1-1.44.4-2.68,2.17-2.1,3.69,3.02,7.81,6.04,15.62,9.06,23.43,1.52,3.94,3.05,7.89,4.57,11.83,1.3,3.37,2.71,6.72,3.69,10.2.8,2.84,1.4,6.04.83,8.74s-2.06,4.65-4.35,5.89-5.2,1.61-7.91,1.69c-3.27.1-6.54-.18-9.79-.43-14.07-1.08-28.49-3.3-41.35-9.39-11.77-5.58-21.69-14.45-27.29-26.35-2.55-5.43-3.95-11.39-3.83-17.37.12-5.61,1.55-10.58,4.51-15.19,2.68-4.17,6.52-7.73,10.91-10.28,2.42-1.4,4.18-2.18,6.87-2.95s4.31-1.03,7.01-1.05c.6,0,1.2.02,1.8.05.3.02.6.04.9.08.2.02.4.04.6.07-.33-.04-.1-.01.09.02,1.24.24,2.46.5,3.65.91s1.78.65,3.07,1.37,2.5,1.53,3.64,2.45c5.28,4.29,9.75,9.94,16.33,12.33,5.25,1.9,12.02,1.6,16.23-2.42,5.85-5.59,2.67-14.32,1.18-21.05-3.52-15.86-6.34-31.88-8.4-47.99-2.08-16.3-3.43-32.69-4.02-49.12-.14-3.96-.24-7.93-.3-11.9s-6.06-3.87-6,0h0Z" fill="#ff00fb" stroke-width="0"/><path d="m258.03,621.56c-2.97,30.32-4.03,60.82-3.15,91.28.25,8.56.65,17.11,1.2,25.66.21,3.32,4.88,4.14,5.89.8.13-.43.27-.84.42-1.26.02-.07.25-.63.12-.32s.11-.24.14-.31c.37-.78.78-1.53,1.25-2.25.23-.36.47-.71.73-1.05-.33.43.35-.41.42-.49.56-.64,1.15-1.24,1.78-1.81.28-.25.57-.5.86-.73-.36.29.38-.28.53-.39.7-.5,1.44-.95,2.19-1.37,1.7-.94,2.49-1.26,4.4-1.84,3.44-1.04,6.05-1.33,9.73-1.1.4.02.8.06,1.21.1.2.02.4.04.6.07.57.07-.7-.13.25.04.89.16,1.78.32,2.66.55.78.2,1.54.43,2.3.7.38.13.75.27,1.12.42-.42-.17.05.02.11.05.27.12.54.25.81.38,14.92,7.27,20.37,26.15,20.63,41.55s-5.16,34.04-21.65,39.2c-8.55,2.67-17.86,1.4-26.14-1.82s-15.34-8.54-20.01-15.74c-2.15-3.32-3.82-7.23-4.17-10.96-.39-4.09.5-7.88,2.23-11.48,3.67-7.62,9.74-14.39,10.66-23.09.22-2.05,0-4.15-.51-6.15-.95-3.74-6.74-2.15-5.79,1.6.28,1.09.35,1.44.38,2.57.01.5-.01.99-.04,1.49,0,.1-.08.79-.02.35-.04.33-.11.65-.17.98-.41,2-1.07,3.68-1.89,5.36-1.99,4.06-4.57,7.78-6.72,11.75-2.29,4.23-4,8.7-4.21,13.55s1.09,9.54,3.21,13.81c4.28,8.61,12.14,15.5,20.7,19.69,9.12,4.46,19.46,6.62,29.55,4.96,9.54-1.57,17.73-7.22,22.94-15.3s7.09-16.99,7.56-26.04c.93-17.91-4.52-38.63-19.95-49.33-12.55-8.71-33.29-6.81-41.71,6.86-1,1.62-1.75,3.4-2.31,5.21l5.89.8c-1.96-30.4-2.01-60.92-.11-91.33.53-8.55,1.22-17.08,2.05-25.61.16-1.61-1.49-3-3-3-1.75,0-2.84,1.38-3,3h.03Z" fill="#ff00fb" stroke-width="0"/><path d="m176.64,308.89c3.73-6.22,12.57-8.52,18.78-5.11l-.61-4.71c-5.56,5.57-13.93,7.37-21.28,4.87-1.53-.52-3.28.6-3.69,2.1-.45,1.64.56,3.17,2.1,3.69,9.33,3.18,20.18.54,27.12-6.41,1.34-1.34,1.1-3.78-.61-4.71-9.18-5.05-21.59-1.74-26.99,7.26-1.99,3.32,3.19,6.34,5.18,3.03h0Z" fill="#00fc0a" stroke-width="0"/><path d="m228.31,297.9c-.66-.43.26.28-.08-.04-.14-.14-.28-.28-.42-.42.42.45-.04-.13-.17-.36.35.6.02.03-.03-.15-.04-.15-.07-.31-.11-.46-.14-.53,0-.03,0,.08,0-.25-.03-.49-.02-.73,0-.01.06-.82,0-.35s.07-.33.07-.35c.07-.33.19-.66.28-.98.23-.77-.17.32.04-.12.1-.19.19-.38.3-.57.09-.15.19-.29.27-.44.33-.57-.26.22.15-.21.12-.12,1.01-.95.51-.57.34-.26.71-.48,1.08-.68.76-.41,1.7-.71,2.79-.92.78-.15,1.6-.22,2.65-.25,1.17-.03,2.35.01,3.52.08,1,.06,1.99.13,2.98.23s-.27-.06.32.04c.26.04.53.09.79.15.51.11,1.03.24,1.51.44-.42-.17.17.1.26.15.22.12.45.25.65.41-.3-.24.35.4.45.52-.49-.61.36.98.08.15.05.15.1.3.14.45.05.2.08.83.06.14,0,.41.02.8,0,1.21.04-.66-.05.18-.12.43-.05.21-.13.41-.19.61-.05.15-.29.66-.04.13-.19.4-.4.79-.63,1.17-.1.15-.2.3-.3.45-.46.71.22-.24-.11.14-.26.31-.54.61-.83.89-.16.16-.33.3-.5.45-.38.33.57-.35-.14.1-.38.24-.75.48-1.14.68-.46.23-.21.1-.1.06-.33.14-.69.26-1.03.37-.69.22-1.4.39-2.12.53-1.08.21-2,.3-3.21.39-2.86.22-5.71.33-8.54.82-1.6.28-2.49,2.24-2.1,3.69.46,1.69,2.09,2.37,3.69,2.1,2.49-.43,5.51-.45,8.23-.72,2.93-.29,5.94-.79,8.55-2.24,4.24-2.35,7.3-7.39,6.5-12.29-.41-2.5-2.12-4.71-4.35-5.89-2.48-1.31-5.31-1.53-8.06-1.71-5.22-.34-11.75-.25-15.49,4.05s-4.22,11.24.91,14.53c1.36.87,3.31.28,4.1-1.08.85-1.45.29-3.23-1.08-4.1h.03Z" fill="#00fc0a" stroke-width="0"/><path d="m191.79,344.21c.94-.62,1.75-.78,2.67-.62,1.44.25,2.75.9,3.99,1.63,2.83,1.66,5.37,3.79,8.08,5.62,5.77,3.9,11.9,7.27,18.28,10.06,5.82,2.55,12.68,5.25,19.07,3.16s9.76-8.94,12.89-14.65c3.82-6.96,7.04-14.26,7.72-22.25.14-1.62-1.48-3-3-3-1.74,0-2.86,1.38-3,3-.55,6.42-3.25,12.43-6.26,18.04-1.5,2.79-3.03,5.61-4.72,8.29-1.42,2.24-3.16,4.23-5.77,4.94-5.34,1.45-11.52-1.58-16.36-3.83-6.11-2.85-11.97-6.23-17.49-10.1s-12.46-9.92-19.14-5.49c-1.35.89-1.93,2.65-1.08,4.1.78,1.34,2.75,1.98,4.1,1.08h0l.02.02Z" fill="#00fc0a" stroke-width="0"/><path d="m204.51,247.79c-8.04-9.78-19.66-16.65-32.07-19.11-12.63-2.51-27.05-.99-36.32,8.81-7.93,8.39-10.83,20.36-11.26,31.6-.49,12.74,1.94,25.84,6.09,37.86,4.89,14.15,12.46,27.26,22.33,38.52,1.92,2.19,6.08-.12,5.01-2.92-5.35-14.03-9.36-28.56-11.95-43.35-1.28-7.29-2.19-14.63-2.75-22-.28-3.74-.48-7.49-.58-11.24-.05-1.62-.11-3.25-.07-4.88.03-1.23.07-2.59.9-3.34.98-.89,2.93-1.01,4.24-1.26,2.27-.44,4.54-.88,6.81-1.32,4.37-.85,8.75-1.7,13.12-2.55,2.59-.5,2.84-4.26.72-5.48-5.95-3.42-14.02-1.43-17.54,4.51-1.94,3.27-2.43,7.19-3.01,10.88-.64,4.11-1.16,8.24-1.55,12.38-1.5,16.09-.89,32.31,1.63,48.27,1.42,8.99,3.5,17.88,6.19,26.57l4.41-3.39c-3.86-2.79-6.92-6.59-9.43-10.6-2.67-4.27-4.9-8.83-6.69-13.54-3.67-9.65-5.71-19.87-6.59-30.14-.44-5.18-.62-10.37-.59-15.57s-.03-10.32.78-15.33c.73-4.54,2.36-8.62,5.59-11.76,2.88-2.79,6.66-4.7,10.53-5.88,11.55-3.53,24.03-.85,36.07-1.77,1.62-.12,3-1.29,3-3,0-1.56-1.37-3.09-3-3-5.59.29-10.89-1.47-16.29-2.64s-10.85-1.47-16.34-.32c-10.11,2.13-19.12,8.52-25.58,16.44-6.97,8.55-11.5,18.65-15.29,28.93-2.04,5.54-3.97,11.44-3.41,17.43.53,5.66,2.87,10.85,5.82,15.65,3.48,5.67,7.42,11.07,11.17,16.57s7.86,11.51,11.79,17.27l3.39-4.41c-3.25-.55-5.42-2.14-7.55-4.77-1.89-2.33-3.56-5.79-4.65-8.63-3.35-8.73-5.77-17.89-7.53-27.06s-2.74-18.5-2.96-27.85c-.19-8.34-.02-16.95,2.96-24.85,2.55-6.76,7.45-11.75,13.67-15.07s13.31-4.87,20.31-5.82c7.82-1.06,16.51-1.7,24.62-1.47,7.82.22,16.08,1.9,22.1,7.11,1.37,1.19,2.63,2.5,3.62,3.96.48.72.96,1.47,1.33,2.25.05.11.27.82.32.85-1.19-.71,1.14-.78-.11-.53-.75.15-1.57.51-2.24.59-.85.1-1.91.07-2.67-.04-1.87-.28-3.67-.98-5.33-1.86-7.09-3.78-11.68-10.81-18.58-14.9-1.76-1.04-3.66-1.87-5.62-2.42l-.8,5.89c11.29.98,21.73,8.41,26.69,18.77l4.1-4.1c-6.31-2.94-10.21-9.01-15.11-13.8-5.31-5.2-11.84-8.32-19.21-9.25-14.6-1.85-29.04,5.11-38.3,16.2-9.92,11.89-15.02,27.41-17.02,42.59-1.02,7.72-.99,15.82,1.4,23.3s7.6,13.81,13.64,19.19,11.59,10.31,16.34,16.55,8.6,12.9,11.47,20.04c.72,1.8,1.38,3.63,1.99,5.48l3.69-3.69c-1.22-.4-2.37-1.35-3.14-2.48-1.09-1.6-1.68-3.02-2.26-4.78-1.52-4.62-2.55-9.45-3.63-14.18-2.34-10.2-4.22-20.51-5.61-30.88-.71-5.28-1.28-10.58-1.73-15.88-.42-4.87-.91-9.8-.78-14.69.11-4.05.87-8.32,3.52-11.51s6.34-5.15,10.05-6.74c9.49-4.06,20.54-6.81,30.64-3.4,1.53.52,3.28-.6,3.69-2.1.45-1.64-.56-3.17-2.1-3.69-10.27-3.48-21.46-1.34-31.34,2.41-4.55,1.72-8.98,3.73-12.74,6.86s-6.25,7.58-7.13,12.42c-.93,5.09-.57,10.24-.21,15.36.41,5.72.95,11.42,1.64,17.11,1.37,11.32,3.27,22.58,5.73,33.72,1.26,5.71,2.44,11.57,4.33,17.11,1.65,4.84,4.36,9.45,9.48,11.11,2.13.69,4.39-1.56,3.69-3.69-4.82-14.67-13.27-28.12-24.55-38.68-5.44-5.1-11.84-9.57-15.84-15.99s-5-13.34-4.86-20.44,1.58-14.55,3.6-21.54,4.76-13.63,8.68-19.71c3.68-5.71,8.47-10.86,14.27-14.33s11.95-5.24,18.33-5.35,12.48,1.53,17.39,5.41c5.44,4.3,9.21,10.31,14.75,14.53,1.32,1.01,2.72,1.87,4.22,2.57,2.76,1.29,5.44-1.32,4.1-4.1-5.88-12.27-18.4-20.57-31.87-21.74-3.44-.3-3.97,4.99-.8,5.89,8.13,2.32,13.18,10.33,19.93,14.98,3.75,2.58,8.28,4.58,12.91,4.51,2.3-.03,4.96-.54,6.9-1.86,2.79-1.9,2.75-5.01,1.43-7.8-3.68-7.77-11.83-12.81-19.89-14.97-9.5-2.54-19.62-1.75-29.31-.99-15.66,1.23-33.18,4.27-43.15,17.73-5.46,7.38-7.13,16.83-7.53,25.8-.45,10.1.32,20.29,1.75,30.29s3.8,20.16,7.02,29.88c2.54,7.65,5.66,16.42,12.89,20.88,1.63,1.01,3.48,1.72,5.37,2.04,1.21.21,2.38-.04,3.15-1.08.68-.91.92-2.33.23-3.33-6.7-9.82-13.44-19.61-20.1-29.45-2.79-4.12-5.63-8.4-7.06-13.21-1.53-5.14-.75-10.17.85-15.2,5.74-18.02,15.74-38.97,35.33-44.88,5.16-1.56,10.33-1.62,15.6-.52,6.06,1.27,12.06,3.27,18.33,2.94v-6c-11.7.9-23.62-1.43-35.17,1.31-9.66,2.29-18.49,8.12-21.71,17.89-1.74,5.27-1.85,11.02-2.01,16.52s-.11,11.12.22,16.66c.67,11.12,2.43,22.27,6.06,32.83,3.94,11.45,9.88,23.31,19.91,30.57,2.15,1.55,5.14-1.02,4.41-3.39-4.44-14.32-7.18-29.13-8.08-44.1s-.25-29.67,2.52-44.13c.31-1.59.64-3.27,1.4-4.71s1.41-2.15,2.77-2.89c2.15-1.18,4.78-1.19,6.86,0l.72-5.48c-4.05.79-8.1,1.57-12.15,2.36-2.03.39-4.05.79-6.08,1.18-1.83.35-3.75.58-5.49,1.26-3.9,1.53-5.52,4.86-5.73,8.88-.19,3.74.09,7.57.29,11.31.84,15.8,3.24,31.54,7.17,46.87,2.21,8.64,4.93,17.14,8.1,25.47l5.01-2.92c-16.09-18.35-25.93-42.55-26.68-66.99-.31-10.11,1.17-20.69,6.85-29.16,2.68-4,6.6-7.43,11.34-9.27,5.82-2.26,12.19-2.58,18.34-1.88,12.72,1.43,24.75,8.22,32.88,18.12,1.03,1.25,3.18,1.07,4.24,0,1.24-1.24,1.03-2.99,0-4.24h0v.02Z" fill="#171000" stroke-width="0"/><path d="m212.1,252.18c1.94-4.08,4.85-7.11,8.6-9.4,3.99-2.43,8.28-3.81,12.99-4.64,9.7-1.71,20.7-.19,30.26,3.06,10.14,3.44,19.48,9.25,26.99,16.89,4.11,4.18,7.63,8.93,9.8,14.42s3.4,11.36,4.36,17.21c2.43,14.74,4.47,29.55,6.69,44.33.22,1.45,1.97,2.35,3.29,2.15s2.71-1.44,2.6-2.95c-.86-12.15,2.07-24.13,1.87-36.26-.1-5.94-1.02-11.89-3.24-17.42s-5.29-10.57-8.76-15.38c-12.89-17.93-30.55-33.26-52.34-38.8-11.03-2.81-23.36-3.29-34.31.19-4.43,1.41-9.59,4.36-10.74,9.25-1.24,5.24,2.26,9.4,6.98,11.05,4.38,1.53,9.08,1.05,13.62.89,5.42-.19,10.85-.17,16.26.3,10,.88,20.25,3.61,28.23,9.93s12.94,14.92,16.86,23.97c4.37,10.08,7.42,20.76,10.82,31.19,1,3.06,1.99,6.12,2.99,9.18l2.89-3.8c-.4.01-.81,0-1.21-.03.54.05-.32-.08-.48-.12-.19-.05-.98-.33-.83-.26.29.13-.13-.07-.15-.08-.25-.13-.49-.27-.73-.42-.12-.08-.23-.16-.35-.24-.4-.27.3.26-.07-.05-.26-.22-.51-.44-.75-.68-.28-.28-.55-.57-.81-.87-.13-.15-.26-.31-.39-.47.24.31-.1-.16-.18-.26-1.96-2.86-3.08-5.67-4.21-8.77-1.52-4.2-3.13-8.32-5.18-12.3s-4.48-7.89-7.03-11.63c-5.38-7.87-11.41-15.29-17.27-22.8-3.18-4.08-6.37-8.16-9.55-12.24-2.74-3.51-5.63-7-9.76-8.92-8.93-4.14-18.7-1.13-27.98-2.96v5.79c13.05-1.81,26.07,3.47,36.72,10.6,5.47,3.67,10.51,7.92,15.39,12.34s9.43,8.56,13.72,13.24,8.27,10.31,9.82,16.79l4.41-3.39c-5.38-3.29-8.34-9.42-12.03-14.32-3.89-5.17-8.23-9.98-13.03-14.33-9.72-8.79-21.03-15.67-33.27-20.32-6.78-2.58-13.83-4.4-21-5.42v5.79c18.33-3.47,36.76,4.23,52.19,13.5,14.91,8.95,28.83,20.63,36.38,36.65,4.09,8.68,6.16,18.67,4.78,28.23-.23,1.6.39,3.22,2.1,3.69,1.41.39,3.46-.48,3.69-2.1,2.8-19.45-5.67-38.29-18.91-52.21-6.48-6.81-14.04-12.57-21.97-17.57-8.36-5.28-17.25-9.9-26.64-13.06-10.69-3.6-22.06-5.03-33.21-2.92-2.8.53-2.93,5.37,0,5.79,24.88,3.55,48.22,16.97,63.48,37,4.47,5.86,7.93,12.82,14.41,16.78,2.31,1.41,5-.91,4.41-3.39-3.13-13.05-13.97-22.46-23.43-31.17-10.5-9.66-21.86-18.79-35.52-23.49-7.76-2.67-15.94-3.63-24.07-2.5-2.94.41-2.78,5.24,0,5.79,4.32.85,8.68.81,13.05.75,4.03-.06,8.06-.15,11.89,1.03s6.68,4.17,9.2,7.36c3.17,4.01,6.29,8.06,9.44,12.09,5.85,7.5,11.88,14.91,17.27,22.76,2.6,3.8,5.04,7.72,7.16,11.81,1.9,3.67,3.33,7.46,4.75,11.33,2.62,7.12,6.79,16.44,15.77,16.2,1.86-.05,3.51-1.89,2.89-3.8-3.58-10.99-6.93-22.08-10.89-32.94-3.44-9.44-7.6-18.69-13.91-26.58-6.42-8.02-15.12-13.59-24.94-16.48-10.07-2.97-20.77-3.33-31.2-2.97-2.29.08-4.6.29-6.89.21-1.98-.07-3.38-.22-5.41-.98-.88-.33.26.14-.23-.1-.21-.11-.43-.21-.63-.34-.17-.1-.92-.68-.52-.33-.17-.15-.32-.31-.49-.47-.12-.11-.41-.58-.12-.12-.1-.15-.19-.3-.28-.46-.31-.53,0,.27-.13-.3-.16-.73-.22-1.05-.04-1.75.13-.48.62-1.23,1.22-1.82,3.04-3,8.23-3.93,12.66-4.58,5.33-.79,10.87-.73,16.21-.03,21.18,2.8,39.07,16,52.24,32.24,6.69,8.26,12.95,17.52,14.67,28.21,1.83,11.38-.89,23.02-1.41,34.4-.13,2.91-.13,5.82.08,8.72l5.89-.8c-2.08-13.83-4.11-27.67-6.24-41.5-.95-6.15-2.03-12.32-4.12-18.2-2.21-6.21-5.52-11.72-9.9-16.63-7.89-8.84-18.06-15.52-29.1-19.74-10.34-3.96-22.01-5.88-33.05-4.47-11.24,1.43-23.13,6.45-28.25,17.25-.69,1.46-.41,3.24,1.08,4.1,1.31.76,3.41.39,4.1-1.08h0l-.02-.04Z" fill="#171000" stroke-width="0"/><path d="m867.94,217.37c-16.93.43-34.72,3.62-49.37,12.53-7.08,4.31-13.32,10.08-17.63,17.2-5.4,8.93-7.3,19.47-6.84,29.8.82,18.54,7.63,37,17.34,52.68,9.32,15.05,21.73,28.08,36.18,38.28,14.32,10.12,30.83,17.38,48.09,20.62,10.8,2.03,21.96,2.73,32.83.78,10.79-1.94,20.54-7.11,29.5-13.25,4.41-3.02,8.76-6.18,12.92-9.53,3.94-3.17,7.66-6.79,10.15-11.23,2.71-4.83,3.75-10.3,4.21-15.76s.47-11.3.48-16.94c0-11.88-.52-23.78-1.67-35.61-1.06-10.93-2.86-21.86-7.47-31.92-8.33-18.14-25.79-29.83-43.19-38.26-17.73-8.59-38.64-15.18-58.39-10.38-4.68,1.14-9.2,2.99-13.33,5.46-3.31,1.98-.3,7.17,3.03,5.18,16.5-9.84,36.74-6.5,53.89-.14,8.72,3.24,17.18,7.41,25.1,12.28,7.81,4.8,15.08,10.53,20.85,17.69,6.16,7.65,9.63,16.84,11.57,26.38,2.13,10.5,2.75,21.35,3.23,32.04.26,5.75.39,11.51.38,17.27s-.01,11.17-.46,16.73c-.39,4.81-1.36,9.66-3.92,13.82s-6.04,7.08-9.67,9.91c-7.9,6.15-16.25,12.17-25.39,16.32-9.71,4.41-20.33,5.59-30.89,4.91-17.13-1.11-33.78-6.58-48.53-15.01s-27.26-19.41-37.29-32.5c-10.2-13.31-17.59-28.41-21.36-44.7-2.26-9.76-3.28-20.16-.97-30,1.01-4.32,2.66-8.41,4.98-12.19,1.99-3.23,4.13-5.81,6.98-8.49,11.25-10.6,27.79-15.44,42.9-17.17,3.91-.45,7.83-.71,11.77-.81s3.87-6.1,0-6h-.01Z" fill="#1400b9" stroke-width="0"/><path d="m905.68,392.55c-.36,17.91-.73,35.82-1.09,53.74-.18,8.96-.36,17.91-.55,26.87-.09,4.48-.18,8.96-.27,13.43-.05,2.24-.09,4.48-.14,6.72,0-.02.03,1.17-.1,1.17-.1,0,.33-.4.34-.41l.27-.1-.24.06s.41-.27.16-.05c-.1.09-.13-.01.12.03-.19-.04-.38-.09-.56-.15-.36-.11-.11,0-.58-.26-.29-.16-.58-.33-.85-.52-.47-.32-1-.79-1.52-1.37-1.23-1.36-2.41-2.77-3.68-4.1-2.73-2.87-5.64-5.57-8.67-8.13-6.06-5.12-12.56-9.71-19.19-14.06-14.51-9.52-29.32-18.6-44-27.87-15.19-9.59-30.38-19.18-45.57-28.78-1.9-1.2-3.8-2.4-5.7-3.6-3.27-2.07-6.29,3.12-3.03,5.18,15.61,9.86,31.22,19.72,46.84,29.57,15.29,9.66,30.68,19.19,45.87,29,6.66,4.3,13.25,8.76,19.37,13.81,3.11,2.57,6.11,5.28,8.93,8.17,2.54,2.6,4.7,5.84,7.88,7.7,3.4,1.99,7.99,1.9,9.51-2.35.75-2.09.43-4.75.47-6.94l.14-6.97c.19-9.2.37-18.41.56-27.61.37-18.41.75-36.82,1.12-55.23l.14-6.97c.08-3.86-5.92-3.86-6,0h0l.02.02Z" fill="#1400b9" stroke-width="0"/><path d="m909.8,498.45c11.34-13.66,23.69-26.48,36.91-38.32,13.09-11.72,27.04-22.47,41.72-32.14,3.68-2.42,7.4-4.77,11.16-7.06s7.63-4.34,11.01-7.14,5.68-6.48,6.66-10.69.75-8.73.16-13.08-1.46-8.43-2.02-12.67-.93-8.94-.84-13.43c.08-4.37.6-8.71,1.8-12.92.57-2,1.23-4.04,2.19-5.88.36-.69.71-1.19,1.19-1.7.2-.2.73-.67.72-.66.13-.09.28-.19.42-.26.27-.14-.14.06.29-.13.08-.04.6-.13.07-.03-.16.03-.48-.25.04,0-.08-.04-.15-.06-.23-.11-.17-.11.07-.22.03.02-.01.08.2.49.26.76.14.62.13.73.19,1.34.27,2.46.48,4.92.64,7.38.32,4.85.43,9.72.33,14.58-.19,9.7-1.19,19.37-3.05,28.89-.46,2.35-.97,4.68-1.52,7.01h5.79c-2.35-8.28-2.22-16.99-.81-25.43.74-4.42,1.77-8.79,2.94-13.12.57-2.13,1.18-4.25,1.8-6.36.51-1.73,1.08-4.06,1.69-5.43s1.46-2.73,2.43-3.75c.26-.28.54-.55.83-.79.27-.22.07-.06,0-.01.16-.12.33-.23.5-.33.12-.07.25-.14.38-.21.43-.23-.39.14.05-.02.13-.04.26-.07.39-.11-.4.11-.21,0,.1.02.38.02-.16-.02-.16-.03,0-.03.65.26.03-.03.14.07.59.45.36.21.51.51.66,1.19.82,1.92.4,1.78.63,3.62.8,5.44.73,7.64.14,15.35-1.76,22.78-2.14,8.39-5.88,16.24-11.04,23.19l5.18,3.03c3.33-6.64,6.79-13.21,10.39-19.7,1.72-3.1,3.48-6.19,5.26-9.26.69-1.19,1.36-2.41,2.28-3.45s1.75-1.73,2.8-2.02c-.45.12.45.15.02,0,.89.3-.08-.13.41.14.27.16.41.33.69.81.51.91.88,2.42,1.03,3.45.4,2.71.05,5.26-.73,7.82-1.67,5.47-5.46,10.12-10,13.51-5.68,4.24-12.3,6.98-18.83,9.63-1.5.61-2.56,2-2.1,3.69.41,1.48,2.16,2.64,3.69,2.1,6.43-2.27,13.8-5.12,20.72-3.55,4.81,1.09,9.51,4.53,10.32,9.41.1.63.04,2.08-.08,2.6-.3,1.38-.44,1.66-1.17,2.81-.49.77-.95,1.3-1.86,2.11-.77.69-1.64,1.25-2.84,1.87-1,.51-1.7.77-3,1.11-1.4.37-1.93.45-3.32.5-.53.02-1.06.01-1.59-.02-.32-.02-.63-.04-.95-.08.57.07-.45-.09-.45-.09-1.39-.27-2.78-.68-4.09-1.22-6.44-2.65-11.46-7.97-16.2-12.89-2.69-2.78-6.93,1.46-4.24,4.24,4.94,5.12,10.16,10.45,16.7,13.5s12.81,3.38,19.16.59c5.5-2.42,9.9-7.57,9.98-13.77.09-7.19-5.43-12.88-11.73-15.47-8.78-3.62-18.51-.43-26.98,2.56l1.6,5.79c6.81-2.77,13.75-5.54,19.75-9.86s10.57-9.68,12.97-16.55c1.1-3.14,1.63-6.63,1.29-9.95-.36-3.54-1.34-7.71-4.58-9.73-3.42-2.13-7.34-.57-9.98,2.02-2.72,2.67-4.44,6.29-6.3,9.57-4.63,8.13-9.04,16.39-13.24,24.76-.73,1.45-.38,3.25,1.08,4.1s3.14.23,4.1-1.08c10.33-13.94,15.3-31.93,13.6-49.2-.41-4.22-.6-9.98-4.69-12.42-3.66-2.18-7.78.01-10.23,2.94-2.92,3.48-4.04,7.59-5.3,11.87-1.37,4.69-2.66,9.4-3.67,14.18-2.31,10.95-3.15,22.35-.06,33.23.79,2.77,5.09,2.94,5.79,0,4.67-19.68,6.18-40.43,3.69-60.53-.3-2.42-.97-4.72-3.15-6.11-1.97-1.26-4.44-.97-6.4.13-3.98,2.24-5.7,6.93-6.98,11.05-2.79,8.98-2.74,18.63-1.62,27.88.56,4.6,1.46,9.14,2.14,13.73.6,3.97.96,8.21-.07,12.1s-3.56,6.61-6.79,8.8c-3.65,2.48-7.56,4.58-11.3,6.91-15.6,9.7-30.45,20.6-44.42,32.53-13.88,11.86-26.87,24.77-38.79,38.59-1.51,1.75-3,3.51-4.47,5.29-1.03,1.25-1.22,3.02,0,4.24,1.06,1.06,3.2,1.25,4.24,0h0l.05.06Z" fill="#1400b9" stroke-width="0"/><path d="m772.92,409.14c-8.89,3.65-17.78,7.3-26.67,10.95-4.13,1.69-8.23,3.59-12.49,4.95-3.22,1.03-7.04,1.93-10.19.38-.38-.18-.73-.41-1.08-.64-.28-.19-.05-.02,0,.03-.15-.12-.3-.25-.45-.38-.25-.23-.49-.48-.71-.73-.1-.11-.19-.22-.28-.33.25.33-.03-.07-.12-.21-.18-.29-.35-.57-.5-.88-.07-.13-.13-.26-.19-.39-.2-.45.13.37-.03-.09-.24-.7-.43-1.41-.56-2.14.09.49-.04-.39-.05-.54-.02-.35-.03-.71-.03-1.06,0-.31.01-.61.04-.92.01-.2.03-.41.06-.61-.05.42.02-.11.05-.27.13-.66.28-1.31.49-1.95.28-.88.3-.94.79-1.84.75-1.39,1.22-1.99,2.46-3.1s2.83-2.07,4.43-2.74c3.07-1.29,6.52-1.77,9.88-1.83,9.28-.15,18.67,2.48,26.82,6.83l2.31-5.48c-12.2-3.2-23.11-10.29-31.07-20.07-.91-1.12-1.76-2.28-2.57-3.47-.37-.55-.98-1.23-1.08-1.91,0-.04-.07-.09-.07.03,0-.05.25-.27.44-.41,2.1-1.51,4.76-1.81,7.29-1.64,5.26.35,10.49,3.68,13.85,8.04,4.6,5.95,6.69,13.41,8.75,20.52.45,1.56,2.11,2.53,3.69,2.1,1.68-.46,2.39-2.09,2.1-3.69-1.23-6.71-2.45-13.43-3.68-20.14-.63-3.44-1.26-6.88-1.88-10.32-.3-1.64-.6-3.27-.9-4.91-.15-.82-.3-1.64-.45-2.46-.05-.27-.1-.54-.14-.8-.06-.37-.07-.42-.03-.17-.02-.16-.04-.33-.05-.5-.08-1.19-.14-1.67.15-2.56s-.24.45.19-.35c-.11.2-.29.17.09-.05-.41.25.24.02.11.01-.31-.03.51.08.21.02,2.02.44,3.75,2.56,4.78,4.13,2.67,4.07,3.56,8.98,3.69,13.77.19,7.49-1.17,14.95-.28,22.42.19,1.61,1.24,3,3,3,1.57,0,3.08-1.37,3-3-.45-9.74.19-19.52,2.05-29.09.76-3.93,1.66-8.51,3.15-11.95,1.34-3.09,3.04-5.45,5.9-6.15l-2.92-.77c4.33,4.64,4.93,11.55,3.83,17.64-1.37,7.62-5.23,14.35-8.45,21.3-1.99,4.3-3.8,8.7-4.79,13.34-.34,1.58.47,3.24,2.1,3.69,1.49.41,3.35-.5,3.69-2.1,1.79-8.4,6.32-15.75,9.67-23.56,3.15-7.32,5.11-15.14,3.79-23.13-.71-4.28-2.63-8.26-5.59-11.43-.74-.79-1.9-1.02-2.92-.77-6.56,1.6-9.75,8.24-11.39,14.2-2.21,8.04-3.47,16.41-4.01,24.72-.3,4.68-.33,9.37-.12,14.06h6c-1.55-13.08,3.7-27.94-4.53-39.67-1.84-2.62-4.25-5.14-7.34-6.22-3.5-1.22-7.13.34-8.5,3.78-1.12,2.81-.49,5.89.03,8.76.69,3.77,1.38,7.53,2.06,11.3,1.55,8.51,3.11,17.03,4.66,25.54l5.79-1.6c-2.13-7.35-4.36-14.99-8.86-21.29s-10.59-10.53-18.06-11.52c-3.62-.48-7.21.05-10.51,1.61-1.86.88-3.63,2.27-4.31,4.28-.76,2.23.04,4.51,1.27,6.4,4.06,6.24,9.37,11.62,15.31,16.08,6.62,4.97,14.25,8.63,22.26,10.73,3.22.84,5.38-3.84,2.31-5.48-8.5-4.54-18.06-7.31-27.72-7.63-8.16-.27-17.45,1.7-22.69,8.51-4.43,5.76-5.12,14.65-.31,20.4,6.31,7.54,16.95,3.9,24.51.8,11.04-4.53,22.07-9.06,33.11-13.59,1.5-.61,2.56-1.99,2.1-3.69-.39-1.42-2.18-2.71-3.69-2.1h0Z" fill="#1400b9" stroke-width="0"/><path d="m907.09,498.82c.29,19.82.58,39.64.87,59.45.14,9.62.28,19.25-.55,28.84-.82,9.42-2.92,18.61-5.64,27.65s-6,18.32-9.09,27.45c-3.18,9.38-6.35,18.75-9.53,28.13-6.28,18.55-12.57,37.1-18.85,55.65-3.18,9.38-6.35,18.75-9.53,28.13-1.62,4.79-3.24,9.57-4.86,14.36-.88,2.6-1.82,7.38-5.19,7.77-1.81.21-3.72-.52-5.41-1.05-2.49-.77-4.98-1.55-7.47-2.32-4.58-1.42-9.16-2.85-13.74-4.27-8.98-2.79-18.33-6.53-27.88-6.31-7.67.18-15.5,3.5-19.75,10.13-4.09,6.38-2.91,14.29,1.54,20.11s11.48,9.95,18.38,12.95c8.41,3.65,17.08,6.67,25.97,8.93s17.89,3.79,26.98,4.58c7.43.64,15.48.44,22.18-3.21s10.91-11.15,10.22-18.87-5.9-14.27-13.4-16.74c-3.49-1.15-7.28-1.24-10.83-.35-3.74.94-2.16,6.73,1.6,5.79,6-1.5,12.81,1.49,15.49,7.14s.86,12.94-4.19,16.66c-5.59,4.12-13.27,4.15-19.89,3.67-8.56-.62-17.09-2.12-25.42-4.17s-16.83-4.83-24.86-8.26c-6.3-2.69-12.93-5.95-17.27-11.45-3.87-4.91-4.17-11.29.42-15.85,5.37-5.33,13.28-5.75,20.32-4.38,4.36.85,8.6,2.23,12.83,3.55,4.58,1.42,9.16,2.85,13.74,4.27,4.38,1.36,8.76,2.73,13.14,4.09,3.99,1.24,8.53,2.34,12.24-.29,3.13-2.22,4.45-5.85,5.64-9.34,1.56-4.59,3.11-9.18,4.66-13.76,3.04-8.98,6.08-17.95,9.12-26.93,6.08-17.95,12.16-35.9,18.24-53.86,6.03-17.81,12.24-35.57,18.06-53.45,2.8-8.6,5.34-17.31,6.8-26.25s1.89-18.43,1.89-27.7c0-18.86-.49-37.74-.77-56.6l-.2-13.91c-.06-3.86-6.06-3.87-6,0h0v.02Z" fill="#a2008d" stroke-width="0"/><path d="m906.91,609.17c3.66,22.89,12.26,44.66,24.74,64.16,6.36,9.94,13.16,19.56,18.3,30.22,4.93,10.23,8.56,21.04,11.53,31.99,3.37,12.43,5.89,25.08,8.38,37.71.35,1.79,2.89,2.87,4.41,1.79,11.24-8.02,25.48-13.33,39.43-12.86,6.12.21,12.35,2.25,15.4,7.57,2.63,4.59,1.73,9.55-2.76,12.65-2.47,1.71-5.13,2.8-7.87,3.84-3.84,1.46-7.68,2.92-11.52,4.38-7.49,2.85-14.94,5.93-22.64,8.18-6.9,2.02-14.41,3.43-21.57,2.01-5.69-1.13-10.81-4.05-14.61-8.44-1.9-2.2-3.32-4.84-3.98-7.73-.32-1.41-.4-2.66-.28-4.32.09-1.22.37-2.98,1.46-3.91.94-.8,2.51-.94,3.79-1.03,2.21-.16,4.42-.27,6.63-.4,4.58-.27,9.15-.55,13.73-.82,1.62-.1,3-1.31,3-3,0-1.55-1.37-3.1-3-3-4.49.27-8.99.54-13.48.81-4.04.24-8.67-.06-12.44,1.6-7.4,3.24-6.44,13.69-3.77,19.78,2.71,6.16,8.28,11.1,14.32,13.89,7.51,3.46,15.75,3.65,23.8,2.26,8.52-1.47,16.6-4.74,24.65-7.8,4.22-1.61,8.45-3.21,12.67-4.82,3.68-1.4,7.46-2.68,10.99-4.45,3.18-1.59,6.11-3.75,8.12-6.73s2.62-6.78,2.02-10.37c-1.24-7.38-7.34-12.77-14.25-14.86-7.62-2.31-16.14-1.32-23.79.36s-15.37,4.73-22.22,8.84c-1.66,1-3.28,2.06-4.85,3.19l4.41,1.79c-4.46-22.58-9.06-45.3-18.37-66.47-4.74-10.78-11.06-20.56-17.51-30.37-6.35-9.66-12.17-19.61-16.62-30.31-4.92-11.84-8.42-24.25-10.45-36.92-.26-1.6-2.25-2.49-3.69-2.1-1.7.47-2.35,2.08-2.1,3.69h-.01Z" fill="#a2008d" stroke-width="0"/><path d="m859.08,217.84c31.56-4.87,63.69-4.43,95.46-2.19,8,.56,16,1.24,23.99,1.99,4.07.38,8.14.78,12.21,1.18,1.56.16,3.15.34,4.68-.17,2.01-.68,3.43-2.36,3.93-4.41.69-2.81.29-6.09-.01-8.94s-.8-5.83-1.92-8.55-2.79-5.28-5.23-7.12c-2.9-2.19-6.52-2.94-10.1-2.92-4.23.03-8.49.72-12.7,1.15-4.61.48-9.22.96-13.83,1.43-9.05.94-18.11,1.88-27.16,2.82l2.12.88c-9.58-9.27-11.89-23.77-20.63-33.9-9.4-10.91-24.25-12.98-37.84-11.37-7.09.84-14.08,2.41-20.94,4.37-3.57,1.02-7.24,2.26-10.33,4.37-3.28,2.24-5.74,5.29-7.36,8.91s-2.61,7.45-3.57,11.28c-1.09,4.37-2,8.8-2.36,13.29-.6,7.5.68,15.46,5.03,21.75,4.42,6.39,11.43,10.12,19.23,10s15.5-3.55,22.27-7.38c1.67-.94,3.31-1.93,4.93-2.94,3.27-2.04.26-7.23-3.03-5.18-9.75,6.07-25.26,14.87-35.58,5.45-10.5-9.58-6.95-25.59-3.57-37.77.87-3.15,1.88-6.3,3.77-9.01,1.69-2.41,4.2-4.06,6.87-5.21,2.88-1.25,5.99-2.01,9.01-2.8s6.21-1.54,9.35-2.14c11.29-2.17,24.12-2.93,34.05,3.48,10.07,6.49,13.34,19.15,19.05,29.21,1.49,2.63,3.2,5.15,5.16,7.46,1.11,1.31,2.49,3.2,4.35,3.25,2.09.05,4.34-.45,6.42-.67,8.07-.84,16.13-1.67,24.2-2.51,4.12-.43,8.23-.85,12.35-1.28,3.69-.38,7.44-.99,11.16-.95,3.01.03,5.61.93,7.4,2.92.57.63,1.24,1.73,1.75,2.84.14.3.33.82.53,1.43.24.75.44,1.51.61,2.28.57,2.55.73,4.97.81,7.78.02.69.05,1.39,0,2.08-.02.35,0,.93-.28,1.15.45-.36-.22-.18-.53-.18-1.02-.02-2.05-.17-3.06-.28-7.98-.79-15.96-1.55-23.95-2.21-32.03-2.65-64.37-3.84-96.37-.08-3.99.47-7.98,1.01-11.96,1.63-1.6.25-2.49,2.26-2.1,3.69.47,1.71,2.08,2.34,3.69,2.1h.03Z" fill="#e7000d" stroke-width="0"/><path d="m513.25,320.55c-.81,10.65-.16,21.35,1.81,31.85.3,1.59,2.22,2.5,3.69,2.1,1.67-.46,2.4-2.09,2.1-3.69-1.88-9.97-2.37-20.14-1.6-30.25.12-1.62-1.47-3-3-3-1.73,0-2.88,1.38-3,3h0Z" fill="#e7000d" stroke-width="0"/><path d="m517.8,325.33c6.85-.37,13.32-3.05,18.42-7.63,1.17-1.05,1.15-3.19,0-4.24-1.25-1.15-2.99-1.12-4.24,0-.27.24-.54.48-.81.7-.14.11-.28.23-.42.34.26-.19.24-.19-.03.02-.58.42-1.16.83-1.77,1.21s-1.23.73-1.87,1.06c-.32.16-.64.32-.96.47-.1.05-1.12.48-.51.24-1.33.54-2.69.98-4.09,1.3-.7.16-1.4.29-2.11.39.71-.1-.41.04-.54.05-.36.03-.71.06-1.07.08-1.56.08-3.08,1.32-3,3,.07,1.55,1.32,3.09,3,3h0Z" fill="#e7000d" stroke-width="0"/><path d="m522.71,341.52c3.79.24,7.71-1.36,10.3-4.12,1.08-1.14,1.22-3.12,0-4.24s-3.09-1.22-4.24,0c-.39.41-.8.79-1.25,1.13l.61-.47c-.69.52-1.44.96-2.24,1.3l.72-.3c-.88.37-1.8.62-2.75.75l.8-.11c-.65.08-1.29.1-1.94.06-1.57-.1-3.07,1.45-3,3,.08,1.71,1.32,2.89,3,3h0Z" fill="#e7000d" stroke-width="0"/><path d="m523.61,382.79c-3.61-4.21-7.74-8.76-13.38-10.03-5.29-1.19-11.51.41-14.01,5.63-2.63,5.51-.5,11.57,3.19,15.99,1.82,2.18,4.03,3.98,6.19,5.79,2.37,1.98,4.76,3.94,7.29,5.71,4.73,3.32,10.04,5.81,15.87,6.22,5.31.38,10.88-1.2,14.71-5.01,8.02-7.97,5.43-20.6,3.64-30.47-.58-3.2-.77-6.91-2.34-9.82-1.65-3.06-4.96-4.34-8.3-3.8-3.06.5-5.68,2.53-7.17,5.21-1.62,2.92-2.01,6.23-2.36,9.49-.17,1.61,1.5,3,3,3,1.77,0,2.83-1.38,3-3,.21-1.93.43-3.96,1.19-5.77.38-.91.85-1.63,1.54-2.21.1-.08.41-.28.77-.47.51-.27-.59.17.35-.16.26-.09.53-.16.79-.22.04,0,.34-.05.8-.02-.07,0,.38.1.5.14-.02,0,.25.12.33.22.3.39.42.65.56,1.09.77,2.38,1.02,4.98,1.46,7.43.81,4.49,1.66,8.65,1.73,13.18.06,3.83-.41,7.53-2.63,10.65-2.03,2.86-5.67,4.4-9.17,4.56-4.32.2-8.36-1.19-12.17-3.43-4.17-2.46-7.91-5.63-11.55-8.8-3.07-2.67-6.34-5.97-6.41-10.08s3.4-5.95,6.91-5.42c4.78.73,8.31,4.99,11.42,8.62,1.06,1.23,3.16,1.08,4.24,0,1.22-1.22,1.06-3.01,0-4.24h0v.02Z" fill="#ff0003" stroke-width="0"/><path d="m528.64,373.96l-6.55,8.18c-.52.64-.88,1.26-.88,2.12,0,.74.33,1.61.88,2.12s1.32.91,2.12.88c.74-.03,1.63-.27,2.12-.88l6.55-8.18c.52-.64.88-1.26.88-2.12,0-.74-.33-1.61-.88-2.12s-1.32-.91-2.12-.88c-.74.03-1.63.27-2.12.88h0Z" fill="#ff0003" stroke-width="0"/><path d="m511.82,454.76l-.88,9.8,4.51-2.59c-2.86-1.45-6.27-3.02-8.03-5.79-.54-.84-.51-.73-.73-1.59-.05-.19-.09-.39-.13-.58.01.06.04.42,0,.06-.04-.4-.04-.8-.03-1.2,0-.15.01-.3.03-.45-.01.15-.12.49.02-.08.07-.28.14-.57.22-.85.02-.08.21-.54,0-.09.06-.13.12-.26.19-.38s.14-.24.21-.37c.41-.7-.19.17.11-.17.11-.12.74-.65.31-.35.13-.09.71-.41.27-.22.71-.31,1.46-.27,2.21-.12,1.93.38,3.84,1.16,5.66,1.87,3.58,1.41,7.02,3.21,10.27,5.27,3.68,2.33,7.07,5.04,10.19,8.08,2.37,2.32,6.62-.7,4.71-3.64-2.16-3.32-4.41-7.02-4.72-11.07-.23-3.02.71-6.43,3.02-8.11,2.86-2.08,6.71-1.27,9.57.48,3.46,2.11,5.88,5.61,8.18,8.86.94,1.32,2.62,1.95,4.1,1.08,1.3-.76,2.02-2.78,1.08-4.1-4.64-6.54-10.51-13.87-19.42-13.52-8.32.33-13.37,8.26-12.46,16.11.57,4.89,2.81,9.24,5.46,13.32l4.71-3.64c-6.88-6.71-15.09-11.89-24.08-15.26-4.28-1.6-9.6-3.22-13.22.63-2.64,2.81-3.36,7.32-2,10.89,1.9,5.02,6.7,7.81,11.25,10.12,2.14,1.08,4.31-.28,4.51-2.59l.88-9.8c.15-1.62-1.48-3-3-3-1.74,0-2.85,1.38-3,3h.03Z" fill="#3200ff" stroke-width="0"/><path d="m529.52,494v34.36c0,3.86,6,3.87,6,0v-34.36c0-3.86-6-3.87-6,0h0Z" fill="#3200ff" stroke-width="0"/><path d="m530.89,483.91c3.86,0,3.87-6,0-6s-3.87,6,0,6h0Z" fill="#3200ff" stroke-width="0"/><path d="m507.68,555.19c2.52,15.51,11.85,29.51,24.68,38.44,3.69,2.57,7.68,4.61,11.86,6.24,1.51.59,3.29-.65,3.69-2.1.47-1.7-.58-3.1-2.1-3.69-12.91-5.03-23.7-15.94-29.02-28.68-1.58-3.78-2.68-7.76-3.34-11.8-.26-1.6-2.25-2.49-3.69-2.1-1.7.47-2.36,2.09-2.1,3.69h.02Z" fill="#32ffff" stroke-width="0"/><path d="m546.37,583.28c.33.31.63.63.94.96.1.11.4.57.06.06.11.17.23.33.34.5.24.37.46.75.66,1.15.04.07.33.69.15.3s.09.24.12.32c.3.81.45,1.63.63,2.47.08.36-.03-.54,0,.05.01.2.03.41.04.61.02.45.03.9,0,1.35,0,.2-.03.41-.04.61-.02.33-.05.47.01.05-.06.4-.13.8-.23,1.2-.1.43-.23.86-.37,1.29-.07.19-.14.38-.21.57.2-.6.04-.08-.03.06-.2.4-.4.79-.63,1.17-.1.17-.22.34-.33.51-.16.25-.28.4-.03.07-.25.32-.52.62-.8.91-.17.17-.35.34-.53.5-.11.1-.69.55-.15.15-1.29.98-1.96,2.59-1.08,4.1.74,1.27,2.81,2.06,4.1,1.08,3.86-2.92,6.01-7.21,6.29-12.03.26-4.48-1.39-9.16-4.7-12.24-1.19-1.1-3.07-1.18-4.24,0s-1.19,3.14,0,4.24h.03Z" fill="#32ffff" stroke-width="0"/><path d="m521.62,632.31c6.14,5.35,11.71,11.66,19.52,14.59,6.58,2.46,14.76.8,19.54-4.51,2.72-3.03,3.9-6.88,2.98-10.88l-5.01,2.92c5.31,6.11,9.11,13.96,10.15,22.03.26,1.99.28,4.06-.27,6.01-.29,1.02-.34,1.14-.79,1.97-.18.32-.37.63-.57.94-.09.13-.17.26-.26.38-.57.79.16-.18-.2.25-1.98,2.31-4.62,3.8-7.36,4.81-3.63,1.33-7.45,2.06-11.26,2.62-1.6.24-2.49,2.26-2.1,3.69.47,1.72,2.08,2.33,3.69,2.1,7.33-1.08,15.77-2.88,20.96-8.62,6.62-7.32,4.39-18.02.95-26.32-2.14-5.16-5.04-9.86-8.71-14.08-2.08-2.39-5.65.19-5.01,2.92.03.14.16.87.1.39.04.34.05.68.04,1.02,0,.14-.08.84-.04.59.04-.22-.14.53-.19.7-.04.13-.09.27-.13.4-.15.45.19-.37-.02.06-.12.26-.25.51-.39.75s-.3.49-.46.72c-.19.28,0,.02.03-.03-.15.19-.31.37-.48.55-1,1.09-1.5,1.44-2.73,2.14-.27.15-.55.3-.83.44-.14.07-.28.14-.43.2.06-.03.31-.12-.01,0-.69.28-1.4.5-2.12.68-.31.08-.62.14-.94.2-.06.01-.71.11-.39.07.28-.04-.24.02-.23.02-.68.06-1.37.08-2.05.04-.13,0-1.04-.1-.6-.04-.31-.04-.61-.11-.92-.18-.86-.2-1.71-.47-2.52-.79-2.86-1.13-5.49-3.01-7.85-4.99-3.04-2.56-5.85-5.38-8.85-7.99-1.22-1.06-3.04-1.2-4.24,0-1.09,1.09-1.23,3.17,0,4.24h0Z" fill="#00ff07" stroke-width="0"/><path d="m512.88,382.97c-2.33-.25-4.65-.5-6.98-.74-1.29-.14-2.57,1.03-2.89,2.2-.38,1.38.3,2.58,1.38,3.39,6.63,5,14.03,8.86,21.88,11.57v-5.79c-3.03.66-6.85-.56-8.82-3.23-.96-1.3-2.6-1.96-4.1-1.08-1.32.77-2,2.76-1.08,4.1,3.34,4.87,10.12,5.27,14.86,2.18,5.5-3.58,6.88-10.4,7.73-16.44h-5.79c.85,2.58,3.43,3.84,6.04,3.15s4.12-3,3.7-5.7c-.23-1.45-1.97-2.35-3.29-2.15-1.47.22-2.58,1.42-2.6,2.95-.05,4.88-.11,9.77-.16,14.65-.04,3.87,5.91,3.86,6,0,.13-5.73.26-11.45.39-17.18l-5.89.8c1.55,3.91,2.63,8.04,3.01,12.23.32,3.55.63,7.9-.78,11.14-1.33,3.06-4.91,3.69-7.93,3.94-3.66.31-7.21-.08-10.71-1.16-3.79-1.16-7.31-3.14-10.25-5.8l-2.12,5.12c8.12-.16,16.15.81,23.99,2.92v-5.79c-1.79.28-3.9.07-5.85-.53-1.84-.56-3.96-1.7-5.42-2.93-1.78-1.5-3.02-2.97-4.09-4.95-.95-1.76-1.53-3.89-1.59-5.85l-4.51,2.59c6.62,2.96,12.94,6.67,18.65,11.16,1.27,1,3,1.24,4.24,0,1.04-1.04,1.28-3.24,0-4.24-6.13-4.82-12.74-8.91-19.87-12.09-1.95-.87-4.59.11-4.51,2.59.39,12.37,12.45,21.96,24.54,20.05,3.03-.48,2.67-5.06,0-5.79-8.32-2.24-16.97-3.31-25.59-3.14-2.48.05-4.11,3.32-2.12,5.12,6.59,5.97,15.5,9.28,24.41,8.77,4.51-.25,9.63-1.17,12.59-4.92s3.19-8.71,3.08-13.21c-.13-5.75-1.27-11.49-3.39-16.84-.55-1.39-1.71-2.39-3.29-2.15-1.48.22-2.57,1.42-2.6,2.95-.13,5.73-.26,11.45-.39,17.18h6c.05-4.88.11-9.77.16-14.65l-5.89.8c-.13-.47-.07-.9.16-1.3.28-.32.31-.37.08-.14.15-.18.34-.3.57-.34-.1.04-.21.07-.32.1-.23.05-.14.04.25-.03-.34-.01-.29,0,.15.05-.32-.1-.27-.08.15.06.4.23.66.54.79.95-.42-1.26-1.53-2.2-2.89-2.2-1.2,0-2.71.92-2.89,2.2-.6,4.24-1.12,9.6-4.59,12.59-.09.08-.37.28-.12.1-.21.15-.43.29-.65.42-.18.1-.36.2-.55.3-.12.06-.65.27-.28.13-.44.17-.89.28-1.34.39-.09.02-.75.12-.26.07-.2.02-.4.04-.61.04h-.75c-.12,0-.75-.1-.23,0-.19-.04-.38-.08-.57-.13-.07-.02-.77-.25-.46-.13.26.1-.24-.12-.29-.15-.2-.12-.41-.23-.6-.38.25.2.07.04-.05-.09-.6-.65.24.44-.28-.31l-5.18,3.03c3.63,4.91,9.59,7.29,15.6,5.98,1.28-.28,2.2-1.63,2.2-2.89,0-1.38-.95-2.46-2.2-2.89-7.36-2.54-14.23-6.28-20.44-10.97l-1.51,5.59c2.33.25,4.65.5,6.98.74,1.61.17,3-1.5,3-3,0-1.76-1.38-2.83-3-3h-.02Z" fill="#ff0007" stroke-width="0"/><path d="m498.16,6.13c10.52-.04,21.03-.07,31.55-.11,1.19,0,2.42-.08,3.61.01.63.05.87.1,1.02.46.11.26.18,1.13.19,1.89.01,1.28-.01,2.57-.02,3.85-.02,5.33-.05,10.67-.07,16s-.28,10.4-.04,15.57c.11,2.46.67,4.91,2.38,6.76,1.46,1.58,3.58,2.48,5.67,2.84,9.79,1.69,19.76-.31,29.31-2.33,3.62-.77,7.7-1.51,11.16-.75,1.65.36,3.09.94,4.34,2.06,1.07.96,1.79,2.08,2.16,3.16.13.38.24.76.33,1.15.02.1.21,1.22.15.69.1.81.11,1.64.06,2.45,0,.09-.13,1.24-.06.75-.06.42-.15.83-.24,1.24-.19.82-.45,1.64-.77,2.42.15-.36-.06.13-.08.16-.09.19-.18.39-.28.58-.19.38-.4.75-.62,1.12s-.46.72-.7,1.07c-.21.29-.16.23-.52.64-1.34,1.54-2.39,2.28-4.21,3.25-7.16,3.83-15.35,2.36-22.99,1.21-6.78-1.02-15.05-1.89-20.73,2.81-3.35,2.78-4.42,7.08-4.29,11.28.15,5.22.64,10.45.96,15.66.67,10.59,1.34,21.18,2.01,31.77.33,5.29.67,10.59,1,15.88.15,2.3.35,4.61.39,6.92.04,1.81-.03,3.53-.37,5.01-.38,1.68-.83,2.73-1.81,3.71s-2.93,1.43-4.64,1.57c-5.18.43-10.37.71-15.56,1.06-.86.06-1.92.21-2.71.12-.41-.05-.7-.16-1.03-.36.31.18-.06-.08-.1-.14.24.3-.09-.15-.15-.27-.23-.45.11.34-.07-.15-.08-.2-.12-.42-.18-.62-.15-.51-.09-.28-.13-.69-.09-.96-.06-1.94,0-2.9.3-5.2.59-10.39.74-15.59.3-10.46.2-20.92-.29-31.37s-1.38-20.88-2.67-31.26c-.32-2.58-.59-5.18-1.04-7.74-.38-2.17-1.27-4.26-3.07-5.61-4.1-3.08-9.8-.15-14.16.84s-8.98,1.54-13.36.4c-3.3-.86-6.14-2.83-7.94-5.68-.88-1.39-1.46-2.77-1.67-4.21-.2-1.31-.02-2.89.52-4,.73-1.5,1.72-2.53,3.05-3.36,1.54-.96,2.97-1.44,4.83-1.81,3.89-.77,8.49.1,12.6.83,4.61.82,10.13,2.14,14.57,0s5.05-7.38,5.23-11.8c.21-5.15.05-10.32-.46-15.45s-1.35-10.12-2.52-15.09c-.89-3.76-6.67-2.17-5.79,1.6,2.39,10.12,3.44,20.72,2.66,31.12-.11,1.4-.33,3.26-1.49,4.12-1.27.94-3.71.64-5.4.49-5.04-.45-9.94-1.9-15.01-2.1-8.33-.32-17.75,3.82-18.78,13.01-.93,8.39,6.12,15.97,13.8,18.06,4.98,1.36,10.21.98,15.21-.01,2.36-.47,4.68-1.1,6.99-1.77.89-.26,1.83-.59,2.76-.56.71.03.84.07,1.13.64.07.13.19.5.29.9.12.46.2.92.27,1.38.19,1.2.33,2.4.49,3.61.35,2.67.66,5.35.96,8.03.58,5.28,1.05,10.57,1.42,15.87.76,10.76,1.09,21.55,1.01,32.34-.04,5.39-.19,10.79-.44,16.17-.12,2.61-.29,5.22-.44,7.83-.12,2.02-.12,4.2.58,6.13.81,2.25,2.41,4.05,4.74,4.78s5.08.27,7.52.11c2.71-.18,5.41-.37,8.12-.55s5.26-.25,7.85-.7c4.51-.78,7.73-3.91,9.07-8.21,1.25-4,.89-8.3.63-12.4-.69-10.92-1.38-21.84-2.07-32.76s-1.58-21.56-2.03-32.34c-.04-.98-.08-2,.03-2.98.15-1.26.43-1.92.9-2.74.1-.17.64-.92.33-.54.23-.28.48-.54.74-.79.13-.12.27-.24.4-.36-.09.08-.44.31.04-.02.3-.2.61-.39.92-.57.11-.06,1.07-.49.54-.28.35-.14.71-.26,1.07-.37s.75-.21,1.13-.29c.19-.04.39-.08.58-.12.02,0,.95-.15.4-.08,1.68-.23,3.39-.23,5.08-.15.88.04,1.75.11,2.63.2s1.77.2,2.3.28c1.86.28,3.71.64,5.57.91,4.69.68,9.35.86,14.04.11,8.34-1.34,15.68-6.51,18.06-14.85,1.01-3.52,1.07-7.5-.3-10.93-1.58-3.96-4.73-6.81-8.73-8.23s-8.73-1.05-12.97-.33c-4.48.76-8.86,2.03-13.37,2.64-5.07.68-10.46.95-15.55.33-1.26-.15-2.87-.5-3.48-1.64-.86-1.6-.47-4.18-.46-6.04.03-5.5.05-11,.08-16.5s.31-10.56.05-15.8c-.12-2.55-.88-5.13-3.18-6.56-2.12-1.31-4.73-1.11-7.12-1.1l-16.27.06c-5.26.02-10.52.04-15.77.06-3.86.01-3.87,6.01,0,6h-.02Z" fill="#ff0" stroke-width="0"/><path d="m518.92,76.75c4.06,10.12,5.39,21.23,3.68,32.01h2.89c-2.07-12.84-4.13-25.69-6.2-38.53-.2-1.27-2.19-1.45-2.74-.36-5.14,10.1-6.87,21.59-4.98,32.75.29,1.69,2.95,1.26,2.95-.4-.03-6.91-.07-13.81-.1-20.72,0-1.93-3-1.93-3,0-.02,12.92-.04,25.85-.05,38.77s-.29,25.55-.04,38.3c.09,4.55.99,9.87,5.44,12.2,3.69,1.93,8.26,1.11,11.67-1.05,9.51-6.02,7.45-19.49,6.92-29.01-.81-14.56-1.62-29.12-2.43-43.68-.11-1.91-2.99-1.95-3,0-.09,13.35-.6,26.7-1.54,40.01l2.95-.4c-4.79-12.3-7.2-25.4-7.05-38.6.02-1.93-2.96-1.93-3,0-.18,10-.37,20.01-.55,30.01l2.95-.4c-2.52-12.15-4.15-24.47-4.87-36.86h-3c1.59,16.75,3.19,33.51,4.78,50.26.46,4.81.92,9.62,1.37,14.43.18,1.9,3.18,1.93,3,0-.8-8.54-1.61-17.09-2.41-25.63-.18-1.89-3-1.97-3,0,0,9.72,0,19.45.01,29.17,0,1.95,2.88,1.91,3,0,.7-11.27-.74-22.62-4.23-33.36-.42-1.29-2.62-1.56-2.89,0-2.31,13.13-1.01,26.74,3.89,39.16.42,1.06,2.14,1.65,2.74.36,3.45-7.36,5.06-15.44,4.58-23.56-.11-1.93-2.87-1.93-3,0-.4,6.06,1.08,12.12,4.18,17.33.67,1.13,2.37.87,2.74-.36,2.24-7.29,2.64-14.97,1.27-22.46l-2.89.8c1.08,5.03,2.41,10.8.34,15.76-1.56,3.74-5.59,7.14-9.84,6.03-1.87-.49-2.66,2.39-.8,2.89,5.28,1.42,8.21-4.66,8.92-8.91,1.16-6.86,1.48-13.98,1.67-20.92.38-14.23-.76-28.5-3.35-42.5-1.47-7.94-3.42-15.78-5.83-23.48l-2.74,1.16c.82,1.75.08,3.77-1.1,5.16-1.54,1.81-3.68,2.63-6.02,2.73-2.82.12-5.58-.62-8.28-1.38-2.88-.81-5.75-1.63-8.62-2.44s-5.77-1.63-8.66-2.45c-2.53-.72-5.35-1.19-7.74-2.27-.95-.43-3.67-1.89-3.38-3.28.18-.85,1.52-.9,2.18-.94,1.52-.08,3.04-.1,4.55-.16,6.66-.22,13.33-.45,19.99-.67,1.58-.05,1.92-1.94.76-2.8-7.12-5.23-16.82-6.56-25.09-3.45-1.27.48-1.57,2.55,0,2.89,8.01,1.76,16.01,3.53,24.02,5.29l.4-2.95c-8.39.31-16.78.62-25.17.93-1.77.07-1.93,2.34-.4,2.95,12.47,4.96,25.9,7.34,39.32,7.01l-.4-2.95c-6.11,1.05-12.21,2.11-18.32,3.16l.8,2.89c7.34-1.82,15.64-3.95,22.91-.72,2.79,1.24,5.35,3.17,6.91,5.83,1.88,3.2,1.34,7,2.7,10.37.48,1.19,1.99,1.5,2.74.36,1.89-2.86,1.44-6.74-.94-9.18-.88-.9-2.62-.25-2.56,1.06.1,2.23.2,4.47.3,6.7l2.8-.76c-3.79-6.05,1.28-13.28,6.85-15.92,3.68-1.75,7.85-2.26,11.87-2.5,4.47-.27,8.96-.31,13.43-.45,4.83-.14,9.65-.29,14.48-.43,3.49-.1,7.72.22,10.57-2.2,2.69-2.29,2.5-6.27.57-8.98-2.24-3.15-6.03-4.09-9.69-4.32-5.13-.33-10.36-.12-15.5.07s-10.64.56-15.94,1.08v3c11.4-1.25,22.94-.78,34.19,1.46v-2.89c-12.21,3.46-25,4.38-37.59,2.75-1.75-.23-1.92,2.45-.4,2.95,9.71,3.19,19.85,4.94,30.07,5.23,1.94.06,1.92-2.91,0-3-17.26-.84-34.61.99-51.31,5.4l1.85,1.05c-1.21-6.26-2.43-12.52-3.64-18.78-.32-1.68-2.97-1.27-2.95.4.05,4.54.11,9.09.16,13.63l2.95-.4c-1.19-3.8.17-7.87,3.31-10.29l-2.51-.66c2.26,5.39,4.52,10.78,6.77,16.17.66,1.59,2.73,1.33,2.95-.4.6-4.77,1.19-9.53,1.79-14.3l-2.8.76c2,2.65,4,5.3,6,7.95.93,1.24,3.35.6,2.74-1.16-1.23-3.56-2.47-7.13-3.7-10.69-.47-1.37-2.47-1.48-2.89,0-1.91,6.62-2.34,13.49-1.37,20.31l2.89-.8c-2.71-9.69-5.92-19.24-9.62-28.6-.55-1.4-2.35-1.44-2.89,0-1.71,4.55-3.43,9.09-5.14,13.64l2.74-.36c-1.74-3.56-2.34-7.48-1.9-11.41.19-1.7-2.53-2.01-2.95-.4-1.5,5.84-3,11.67-4.5,17.51l2.51-.66c-1.77-1.52-2.85-3.57-2.95-5.92l-2.95.4c.86,2.9-2.67,6.4-5.58,5.08l.54,2.05c7.04-14.72,10.93-30.81,11.33-47.13.05-1.93-2.95-1.93-3,0-.39,15.77-4.12,31.38-10.93,45.62-.32.67-.25,1.7.54,2.05,5.18,2.36,11.66-2.83,9.99-8.47-.47-1.58-3.02-1.34-2.95.4.13,3.1,1.46,6.01,3.83,8.04.82.71,2.21.5,2.51-.66,1.5-5.84,3-11.67,4.5-17.51l-2.95-.4c-.5,4.46.34,8.89,2.31,12.92.62,1.27,2.33.74,2.74-.36,1.71-4.55,3.43-9.09,5.14-13.64h-2.89c3.7,9.36,6.91,18.91,9.62,28.6.53,1.91,3.16,1.06,2.89-.8-.89-6.26-.38-12.64,1.37-18.71h-2.89c1.23,3.56,2.47,7.13,3.7,10.69l2.74-1.16c-2-2.65-4-5.3-6-7.95-.93-1.23-2.61-.76-2.8.76-.6,4.77-1.19,9.53-1.79,14.3l2.95-.4c-2.26-5.39-4.52-10.78-6.77-16.17-.46-1.11-1.55-1.4-2.51-.66-3.92,3.04-5.55,8.5-4.08,13.21.49,1.58,2.97,1.34,2.95-.4-.05-4.54-.11-9.09-.16-13.63l-2.95.4c1.21,6.26,2.43,12.52,3.64,18.78.16.8,1.11,1.24,1.85,1.05,16.46-4.35,33.51-6.12,50.51-5.3v-3c-9.96-.29-19.8-2.02-29.27-5.13l-.4,2.95c12.83,1.66,25.94.66,38.39-2.86,1.35-.38,1.5-2.59,0-2.89-11.52-2.29-23.32-2.85-34.99-1.57-1.89.21-1.93,3.19,0,3,9.14-.9,18.32-1.32,27.5-1.25,3.48.03,8.17-.27,10.74,2.57.95,1.05,1.63,2.61,1.3,4.04-.37,1.59-1.93,2.28-3.38,2.6-1.84.4-3.79.32-5.66.38-2.33.07-4.66.14-6.99.21-4.66.14-9.32.28-13.98.41-7.72.23-16.42,0-23.12,4.46-5.85,3.88-9.68,12.29-5.63,18.74.76,1.2,2.86.79,2.8-.76-.1-2.23-.2-4.47-.3-6.7l-2.56,1.06c1.48,1.52,1.62,3.8.47,5.54l2.74.36c-.83-2.05-.9-4.23-1.29-6.38-.31-1.71-.9-3.37-1.8-4.86-1.82-3.01-4.71-5.32-7.9-6.75-8.09-3.64-16.99-1.62-25.22.42-1.9.47-1.07,3.22.8,2.89,6.11-1.05,12.21-2.11,18.32-3.16,1.68-.29,1.27-2.99-.4-2.95-13.18.32-26.27-2.04-38.52-6.9l-.4,2.95c8.39-.31,16.78-.62,25.17-.93,1.63-.06,2.12-2.57.4-2.95-8.01-1.76-16.01-3.53-24.02-5.29v2.89c7.62-2.86,16.22-1.66,22.78,3.15l.76-2.8c-7.24.24-14.48.49-21.72.73-2.61.09-6.12-.25-7.59,2.46-1.13,2.1.25,4.38,1.86,5.75,2.24,1.91,4.92,2.53,7.69,3.31,3.53,1,7.06,2,10.58,3s7,2.01,10.52,2.98c3.24.89,6.61,1.67,9.99,1.23,5.66-.74,11.1-6.41,8.36-12.28-.72-1.54-3.24-.45-2.74,1.16,7.96,25.47,10.78,52.45,8.22,79.02-.3,3.12-.4,6.46-1.57,9.41-.7,1.78-2.11,4.3-4.38,3.69l-.8,2.89c5.32,1.39,10.54-2.1,12.92-6.76,2.97-5.81,1.57-12.66.27-18.72-.41-1.9-3.24-1.08-2.89.8,1.27,6.96.81,14.11-1.27,20.87l2.74-.36c-2.85-4.79-4.14-10.26-3.77-15.82h-3c.44,7.58-.95,15.16-4.18,22.05l2.74.36c-4.7-11.89-6.1-24.95-3.89-37.56h-2.89c3.42,10.51,4.81,21.53,4.12,32.56h3c0-9.72,0-19.45-.01-29.17h-3c.8,8.54,1.61,17.09,2.41,25.63h3c-1.59-16.75-3.19-33.51-4.78-50.26-.46-4.81-.92-9.62-1.37-14.43-.18-1.89-3.11-1.95-3,0,.74,12.65,2.41,25.25,4.98,37.66.35,1.69,2.92,1.25,2.95-.4.18-10,.37-20.01.55-30.01h-3c-.15,13.45,2.27,26.87,7.15,39.4.61,1.56,2.82,1.35,2.95-.4.94-13.32,1.45-26.66,1.54-40.01h-3c.67,12.15,1.35,24.29,2.02,36.44.33,5.86.82,11.74.91,17.6.07,4.67-.29,10.19-3.47,13.92-2.29,2.68-6.28,4.57-9.83,3.65-4.54-1.17-5.17-6.32-5.23-10.27-.19-11.95.02-23.92.04-35.87.02-13.67.04-27.34.06-41.01h-3c.03,6.91.07,13.81.1,20.72l2.95-.4c-1.75-10.32-.07-21.12,4.68-30.44l-2.74-.36c2.07,12.84,4.13,25.69,6.2,38.53.23,1.43,2.66,1.43,2.89,0,1.8-11.31.59-22.96-3.68-33.6-.71-1.77-3.61-1-2.89.8h0l-.05.04Z" fill="#ff0" stroke-width="0"/><path d="m507.07,7.97c1.44,13.88,4.78,27.5,10.01,40.45.62,1.53,2.84,1.38,2.95-.4.6-10.03-.85-20.14-4.25-29.6-.56-1.57-2.88-1.35-2.95.4-.45,11.91,3.13,23.85,10.1,33.53.76,1.05,2.31.93,2.74-.36,2.09-6.27,2.62-12.87,1.71-19.41-.24-1.7-2.96-1.25-2.95.4.05,7.17.1,14.34.15,21.52h3c-.65-9.11-.58-18.27.24-27.37.21-2.27.46-4.55.75-6.81.27-2.05.78-4.17.55-6.24-.34-3.07-2.51-5.3-5.47-6.02-3.29-.8-6.87-.14-10.04.88-1.83.58-1.07,3.44.8,2.89,4.28-1.25,11.95-3.12,14.89,1.59.96,1.53,1.13,3.36,1.27,5.12.17,2.13.34,4.26.5,6.39.33,4.2.66,8.4.99,12.6.38,4.78.75,9.55,1.13,14.33.15,1.91,2.91,1.95,3,0,.53-10.94-2.66-21.94-8.99-30.89-.69-.98-2.44-1-2.74.36-1.66,7.4-2.41,14.97-2.2,22.55l2.8-.76c-4.04-6.8-6-14.6-5.67-22.51h-3c-.08,12.04-.17,24.08-.25,36.11l2.56-1.06c-4.02-4.42-6.61-9.89-7.61-15.77-.29-1.71-2.92-1.24-2.95.4-.09,5.92-.18,11.83-.27,17.75l2.56-1.06-2.76-2.82-1.46,2.51c7.39,2,15.09,2.67,22.7,1.94l-.76-2.8c-7.19,3.54-15.18,5.06-23.17,4.52-1.66-.11-2.08,2.71-.4,2.95,16.67,2.38,33.57,2.69,50.31.82,1.88-.21,1.98-2.94,0-3-7.83-.25-15.67-.51-23.5-.76-1.94-.06-1.92,2.89,0,3,17.04.96,34.17-.39,50.87-3.95l-1.85-1.85c-3.35,10.42-16.17,13.19-25.75,13.15-7.06-.03-14.15-.95-21.2-.22-3.12.32-6.45.82-9.28,2.23s-4.17,4.03-4.53,7.07c-.45,3.8-.19,7.75-.22,11.57-.03,4.31-.06,8.62-.09,12.93l2.95-.4c-2.29-6.15-4.58-12.29-6.88-18.44-.54-1.46-3.12-1.41-2.95.4,1.37,14.07,2.73,28.14,4.1,42.21l1.9-1.45c-2.24-.94-3.58-3.29-3.54-5.66.03-1.93-2.97-1.93-3,0-.07,3.83,2.26,7.1,5.74,8.55.86.36,1.99-.55,1.9-1.45-1.37-14.07-2.73-28.14-4.1-42.21l-2.95.4c2.29,6.15,4.58,12.29,6.88,18.44.57,1.52,2.93,1.38,2.95-.4.05-7.38,0-14.78.16-22.16.06-3.06.62-5.79,3.72-7.05s6.69-1.64,10.03-1.8c7.08-.34,14.16.65,21.24.38,5.05-.19,10.1-1.25,14.69-3.4,5.12-2.41,9.37-6.44,11.13-11.91.37-1.15-.79-2.07-1.85-1.85-16.44,3.5-33.29,4.78-50.07,3.84v3c7.83.25,15.67.51,23.5.76v-3c-16.45,1.84-33.13,1.63-49.52-.71l-.4,2.95c8.52.58,17.03-1.15,24.68-4.93,1.3-.64.72-2.94-.76-2.8-7.37.71-14.76.1-21.91-1.83-1.45-.39-2.51,1.44-1.46,2.51.92.94,1.84,1.88,2.76,2.82s2.54.22,2.56-1.06c.09-5.92.18-11.83.27-17.75l-2.95.4c1.09,6.38,4.04,12.3,8.39,17.09.89.98,2.55.19,2.56-1.06.08-12.04.17-24.08.25-36.11.01-1.94-2.92-1.92-3,0-.35,8.41,1.79,16.79,6.08,24.02.74,1.25,2.84.76,2.8-.76-.2-7.32.49-14.6,2.09-21.75l-2.74.36c6.05,8.56,9.08,18.9,8.58,29.37h3c-.73-9.3-1.46-18.61-2.2-27.91-.18-2.23-.3-4.47-.54-6.7-.21-1.91-.58-3.84-1.65-5.47-1.71-2.61-4.54-3.85-7.56-4.19-3.56-.4-7.23.36-10.64,1.35l.8,2.89c2.46-.79,5.19-1.4,7.78-1.01,2.86.43,4.17,2.29,3.95,5.16-.31,4.05-1.07,8.07-1.41,12.12s-.54,8.14-.59,12.22c-.06,4.73.09,9.46.43,14.18.14,1.9,3.01,1.95,3,0-.05-7.17-.1-14.34-.15-21.52l-2.95.4c.84,5.99.2,12.09-1.71,17.81l2.74-.36c-6.68-9.29-10.12-20.58-9.69-32.01l-2.95.4c3.32,9.24,4.73,19,4.14,28.8l2.95-.4c-5.12-12.68-8.49-26.04-9.9-39.65-.2-1.9-3.2-1.92-3,0h0l.05.03Z" fill="#ff0" stroke-width="0"/><path d="m518.06,15.39c-1.95,4.47-2.47,9.28-1.43,14.05.13.58.83,1.17,1.45,1.1,4.55-.49,5.02-5.67,6.73-8.95.14-.26.4-.69.48-.78.04-.05.35-.4.2-.21.07-.09.11-.07.09-.07.1,0,.29-.05.58.17.56.42.73,1.25.88,1.9.99,4.24,1.62,8.59,2.43,12.86.95,5.04,1.89,10.09,2.84,15.13l2.51-1.46c-2.97-2.68-4.43-6.47-4.07-10.45h-3v118.24c0,1.93,3,1.93,3,0V38.68c0-1.96-2.83-1.89-3,0-.42,4.7,1.45,9.42,4.95,12.58,1.15,1.04,2.78,0,2.51-1.46-.89-4.72-1.77-9.44-2.66-14.15s-1.55-9.28-2.61-13.84c-.57-2.46-2.9-5.38-5.71-3.92-1.78.92-2.47,3.14-3.12,4.89-.53,1.43-1.39,4.6-3.02,4.78l1.45,1.1c-.85-3.92-.48-8.05,1.13-11.74.77-1.75-1.82-3.28-2.59-1.51h0l-.02-.02Z" fill="#ff0" stroke-width="0"/></g></svg>