<?xml version="1.0" encoding="UTF-8"?><svg id="Layer_2" xmlns="http://www.w3.org/2000/svg" viewBox="0 0 1846.35 479.44"><g id="Layer_1-2"><path d="m0,376.99v68.73c0,1.93,3,1.93,3,0v-68.73c0-1.93-3-1.93-3,0h0Z" fill="#00e51b" stroke-width="0"/><path d="m24.55,428.54v14.73c0,1.93,3,1.93,3,0v-14.73c0-1.93-3-1.93-3,0h0Z" fill="#00e51b" stroke-width="0"/><path d="m44.97,433.88c2.31,4.17,4.62,8.34,6.92,12.52.93,1.69,3.53.18,2.59-1.51-2.31-4.17-4.62-8.34-6.92-12.52-.93-1.69-3.53-.18-2.59,1.51h0Z" fill="#00e51b" stroke-width="0"/><path d="m63.52,404.44c2.48,15.94,6.71,31.57,12.61,46.59.7,1.78,3.6,1,2.89-.8-5.9-15.01-10.14-30.65-12.61-46.59-.3-1.9-3.19-1.09-2.89.8h0Z" fill="#00e51b" stroke-width="0"/><path d="m93.65,432.1c4.95,6.19,8.24,13.56,9.7,21.34.35,1.9,3.25,1.09,2.89-.8-1.56-8.31-5.2-16.07-10.47-22.67-.51-.64-1.59-.52-2.12,0-.63.62-.5,1.49,0,2.12h0Z" fill="#00e51b" stroke-width="0"/><path d="m112.55,379.98c6.05,17.75,12.1,35.49,18.15,53.24,1.71,5.03,3.43,10.05,5.14,15.08.62,1.82,3.52,1.04,2.89-.8-6.05-17.75-12.1-35.49-18.15-53.24-1.71-5.03-3.43-10.05-5.14-15.08-.62-1.82-3.52-1.04-2.89.8h0Z" fill="#00e51b" stroke-width="0"/><path d="m149.78,409.3c3.28,13.09,6.56,26.18,9.84,39.27.47,1.87,3.36,1.08,2.89-.8-3.28-13.09-6.56-26.18-9.84-39.27-.47-1.87-3.36-1.08-2.89.8h0Z" fill="#00e51b" stroke-width="0"/><path d="m201.27,386.81v63.82c0,1.93,3,1.93,3,0v-63.82c0-1.93-3-1.93-3,0h0Z" fill="#00e51b" stroke-width="0"/><path d="m221.13,431.35c1.67,6.54,3.34,13.07,5.01,19.61.48,1.87,3.37,1.08,2.89-.8-1.67-6.54-3.34-13.07-5.01-19.61-.48-1.87-3.37-1.08-2.89.8h0Z" fill="#00e51b" stroke-width="0"/><path d="m270.16,432.66c-4.73,7.67-6.44,16.84-4.95,25.72.32,1.9,3.21,1.09,2.89-.8-1.36-8.07.36-16.45,4.64-23.4,1.02-1.65-1.58-3.16-2.59-1.51h0Z" fill="#00e51b" stroke-width="0"/><path d="m243.2,417.02c3.87,5.61,6.39,12.1,7.16,18.88.09.8.62,1.5,1.5,1.5.74,0,1.59-.69,1.5-1.5-.83-7.31-3.38-14.33-7.57-20.39-1.09-1.58-3.69-.08-2.59,1.51h0Z" fill="#00e51b" stroke-width="0"/><path d="m291.99,411.36c.86,10.73,4.32,21.13,10.16,30.19,1.04,1.62,3.64.12,2.59-1.51-5.54-8.6-8.93-18.47-9.75-28.67-.15-1.91-3.15-1.93-3,0h0Z" fill="#00e51b" stroke-width="0"/><path d="m314.43,414.14c2.46,7.36,4.92,14.73,7.37,22.09.61,1.82,3.51,1.04,2.89-.8-2.46-7.36-4.92-14.73-7.37-22.09-.61-1.82-3.51-1.04-2.89.8h0Z" fill="#00e51b" stroke-width="0"/><path d="m338.79,367.17c.84,21.36,3.49,42.66,7.94,63.57,1.27,5.98,2.7,11.93,4.26,17.85.49,1.86,3.39,1.07,2.89-.8-5.44-20.57-9.13-41.59-10.98-62.79-.52-5.93-.89-11.88-1.12-17.83-.08-1.92-3.08-1.93-3,0h0Z" fill="#00e51b" stroke-width="0"/><path d="m381.26,392c2.1,13.15,4.2,26.3,6.3,39.44.3,1.9,3.19,1.09,2.89-.8-2.1-13.15-4.2-26.3-6.3-39.44-.3-1.9-3.19-1.09-2.89.8h0Z" fill="#00e51b" stroke-width="0"/><path d="m400.09,364.72c0,17.19,0,34.38,0,51.57v14.7c0,1.93,3,1.93,3,0,0-17.19,0-34.38,0-51.57v-14.7c0-1.93-3-1.93-3,0h0Z" fill="#00e51b" stroke-width="0"/><path d="m414.82,430.99v4.91c0,.78.69,1.54,1.5,1.5s1.5-.66,1.5-1.5v-4.91c0-.78-.69-1.54-1.5-1.5s-1.5.66-1.5,1.5h0Z" fill="#00e51b" stroke-width="0"/><path d="m444.27,428.95c1.63,6.55,3.26,13.09,4.9,19.64.47,1.87,3.36,1.08,2.89-.8-1.63-6.55-3.26-13.09-4.9-19.64-.47-1.87-3.36-1.08-2.89.8h0Z" fill="#00e51b" stroke-width="0"/><path d="m465.01,434.23c4.69,3.38,7.75,8.67,8.58,14.37.12.8,1.13,1.24,1.85,1.05.86-.24,1.16-1.04,1.05-1.85-.95-6.49-4.66-12.34-9.96-16.16-.66-.47-1.67-.11-2.05.54-.44.76-.12,1.58.54,2.05h0Z" fill="#00e51b" stroke-width="0"/><path d="m491.21,396.27c-2.63,18.07.8,36.72,9.82,52.61.95,1.68,3.55.17,2.59-1.51-8.58-15.13-12.02-33.06-9.52-50.3.27-1.89-2.62-2.7-2.89-.8h0Z" fill="#00e51b" stroke-width="0"/><path d="m518.27,424.26c4.68,6.17,7.14,13.71,6.91,21.45-.06,1.93,2.94,1.93,3,0,.24-8.21-2.35-16.42-7.32-22.97-.49-.65-1.29-.97-2.05-.54-.64.36-1.03,1.41-.54,2.05h0Z" fill="#00e51b" stroke-width="0"/><path d="m545.01,367.18c-1.32,19.28-.57,38.67,2.2,57.8.79,5.42,1.74,10.82,2.85,16.19.39,1.89,3.28,1.09,2.89-.8-3.88-18.74-5.75-37.87-5.58-57.01.05-5.4.27-10.8.64-16.19.13-1.93-2.87-1.92-3,0h0Z" fill="#00e51b" stroke-width="0"/><path d="m572.39,429.1c5.72,8.19,11.44,16.37,17.16,24.56,1.1,1.57,3.7.07,2.59-1.51-5.72-8.19-11.44-16.37-17.16-24.56-1.1-1.57-3.7-.07-2.59,1.51h0Z" fill="#00e51b" stroke-width="0"/><path d="m608.73,354.9c0,26.16,0,52.31,0,78.47,0,7.39,0,14.78,0,22.17,0,1.93,3,1.93,3,0,0-26.16,0-52.31,0-78.47,0-7.39,0-14.78,0-22.17,0-1.93-3-1.93-3,0h0Z" fill="#00e51b" stroke-width="0"/><path d="m624.1,436.43c1.66,3.26,3.32,6.52,4.98,9.78.37.72,1.38.93,2.05.54.73-.43.91-1.33.54-2.05-1.66-3.26-3.32-6.52-4.98-9.78-.37-.72-1.38-.93-2.05-.54-.73.43-.91,1.33-.54,2.05h0Z" fill="#00e51b" stroke-width="0"/><path d="m643.41,431.28c2.42,5.74,4.83,11.49,7.25,17.23.31.75.99,1.28,1.85,1.05.7-.19,1.36-1.09,1.05-1.85-2.42-5.74-4.83-11.49-7.25-17.23-.31-.75-.99-1.28-1.85-1.05-.7.19-1.36,1.09-1.05,1.85h0Z" fill="#00e51b" stroke-width="0"/><path d="m667.64,433.45v2.45c0,.38.17.79.44,1.06s.69.46,1.06.44.79-.14,1.06-.44.44-.65.44-1.06v-2.45c0-.38-.17-.79-.44-1.06s-.69-.46-1.06-.44-.79.14-1.06.44-.44.65-.44,1.06h0Z" fill="#00e51b" stroke-width="0"/><path d="m691.79,433.39c-1.3,10.07,1.72,20.33,8.03,28.24,1.2,1.51,3.31-.63,2.12-2.12-5.83-7.31-8.35-16.88-7.15-26.12.25-1.91-2.76-1.89-3,0h0Z" fill="#00e51b" stroke-width="0"/><path d="m727.43,432.02c1.63.83,3.26,1.66,4.89,2.49.7.36,1.66.21,2.05-.54.36-.68.21-1.67-.54-2.05-1.63-.83-3.26-1.66-4.89-2.49-.7-.36-1.66-.21-2.05.54-.36.68-.21,1.67.54,2.05h0Z" fill="#00e51b" stroke-width="0"/><path d="m753.71,411.37c-1.82,18.24-.22,36.76,4.65,54.42.51,1.86,3.41,1.07,2.89-.8-4.81-17.43-6.34-35.63-4.54-53.63.19-1.92-2.81-1.91-3,0h0Z" fill="#00e51b" stroke-width="0"/><path d="m721.38,436.37c1.7,7.35,3.4,14.7,5.1,22.05.44,1.88,3.33,1.08,2.89-.8-1.7-7.35-3.4-14.7-5.1-22.05-.44-1.88-3.33-1.08-2.89.8h0Z" fill="#00e51b" stroke-width="0"/><path d="m797.73,411.36c0,16.36,0,32.73,0,49.09,0,1.93,3,1.93,3,0,0-16.36,0-32.73,0-49.09,0-1.93-3-1.93-3,0h0Z" fill="#00e51b" stroke-width="0"/><path d="m780.48,389.26c-.39,16.81,1.04,33.65,4.28,50.15.93,4.72,2,9.41,3.22,14.07.49,1.87,3.38,1.08,2.89-.8-4.21-16.09-6.67-32.61-7.3-49.23-.18-4.73-.21-9.46-.1-14.19.04-1.93-2.96-1.93-3,0h0Z" fill="#00e51b" stroke-width="0"/><path d="m846.92,394.18c-.82,14.73-1.63,29.45-2.45,44.18-.11,1.93,2.89,1.92,3,0,.82-14.73,1.63-29.45,2.45-44.18.11-1.93-2.89-1.92-3,0h0Z" fill="#00e51b" stroke-width="0"/><path d="m825.04,436.6c2.45,4.91,4.89,9.83,7.34,14.74.36.73,1.39.93,2.05.54.74-.43.9-1.32.54-2.05-2.45-4.91-4.89-9.83-7.34-14.74-.36-.73-1.39-.93-2.05-.54-.74.43-.9,1.32-.54,2.05h0Z" fill="#00e51b" stroke-width="0"/><path d="m896.15,391.72c-.43,18.89-3.18,37.66-8.16,55.88-.51,1.86,2.38,2.66,2.89.8,5.06-18.47,7.83-37.54,8.27-56.68.04-1.93-2.96-1.93-3,0h0Z" fill="#00e51b" stroke-width="0"/><path d="m932.48,396.64c1.21,19.66.82,39.4-1.15,59-.19,1.92,2.81,1.91,3,0,1.97-19.6,2.35-39.34,1.15-59-.12-1.92-3.12-1.93-3,0h0Z" fill="#00e51b" stroke-width="0"/><path d="m964.64,406.45c0,13.09,0,26.18,0,39.27,0,1.93,3,1.93,3,0,0-13.09,0-26.18,0-39.27,0-1.93-3-1.93-3,0h0Z" fill="#00e51b" stroke-width="0"/><path d="m1003.91,423.63v19.64c0,1.93,3,1.93,3,0v-19.64c0-1.93-3-1.93-3,0h0Z" fill="#00e51b" stroke-width="0"/><path d="m1031.2,433.79c.82,3.27,1.64,6.54,2.47,9.82.2.79,1.08,1.26,1.85,1.05s1.25-1.06,1.05-1.85c-.82-3.27-1.64-6.54-2.47-9.82-.2-.79-1.08-1.26-1.85-1.05s-1.25,1.06-1.05,1.85h0Z" fill="#00e51b" stroke-width="0"/><path d="m1070.62,426.42c.83,5.73,1.67,11.45,2.5,17.18.12.8,1.13,1.24,1.85,1.05.86-.24,1.16-1.04,1.05-1.85-.83-5.73-1.67-11.45-2.5-17.18-.12-.8-1.13-1.24-1.85-1.05-.86.24-1.16,1.04-1.05,1.85h0Z" fill="#00e51b" stroke-width="0"/><path d="m1092.97,372.27c7.07,20.98,14.14,41.95,21.21,62.93,2.02,5.99,4.04,11.99,6.06,17.98.61,1.82,3.51,1.04,2.89-.8-7.07-20.98-14.14-41.95-21.21-62.93-2.02-5.99-4.04-11.99-6.06-17.98-.61-1.82-3.51-1.04-2.89.8h0Z" fill="#00e51b" stroke-width="0"/><path d="m1132.73,434.54c3.28.79,6.56,1.58,9.84,2.37.76.18,1.66-.24,1.85-1.05s-.23-1.65-1.05-1.85c-3.28-.79-6.56-1.58-9.84-2.37-.76-.18-1.66.24-1.85,1.05s.23,1.65,1.05,1.85h0Z" fill="#00e51b" stroke-width="0"/><path d="m1158.85,426.77c1.64,2.45,3.27,4.91,4.91,7.36.43.65,1.34.99,2.05.54.65-.42,1-1.35.54-2.05-1.64-2.45-3.27-4.91-4.91-7.36-.43-.65-1.34-.99-2.05-.54-.65.42-1,1.35-.54,2.05h0Z" fill="#00e51b" stroke-width="0"/><path d="m1194.55,362.14c2.34,30.65,6.75,61.13,13.24,91.18,1.81,8.39,3.78,16.74,5.91,25.05.48,1.87,3.37,1.08,2.89-.8-7.56-29.52-13.13-59.54-16.6-89.81-.98-8.53-1.79-17.07-2.44-25.63-.15-1.91-3.15-1.93-3,0h0Z" fill="#00e51b" stroke-width="0"/><path d="m1227.71,432.05c.82.82,1.64,1.64,2.45,2.45.27.27.68.44,1.06.44s.81-.16,1.06-.44.46-.66.44-1.06-.15-.77-.44-1.06c-.82-.82-1.64-1.64-2.45-2.45-.27-.27-.68-.44-1.06-.44s-.81.16-1.06.44-.46.66-.44,1.06.15.77.44,1.06h0Z" fill="#00e51b" stroke-width="0"/><path d="m1252.78,389.32c3.79,10.21,5.88,20.96,6.14,31.86.05,1.93,3.05,1.93,3,0-.27-11.14-2.36-22.2-6.24-32.65-.67-1.79-3.57-1.02-2.89.8h0Z" fill="#00e51b" stroke-width="0"/><path d="m1288.64,374.54c0,18.5,0,37,0,55.5v15.68c0,1.93,3,1.93,3,0,0-18.5,0-37,0-55.5v-15.68c0-1.93-3-1.93-3,0h0Z" fill="#00e51b" stroke-width="0"/><path d="m1249.36,435.9v2.45c0,.38.17.79.44,1.06s.69.46,1.06.44.79-.14,1.06-.44.44-.65.44-1.06v-2.45c0-.38-.17-.79-.44-1.06s-.69-.46-1.06-.44-.79.14-1.06.44-.44.65-.44,1.06h0Z" fill="#00e51b" stroke-width="0"/><path d="m1323.24,372.1c-1.24,20.48-.83,41.04,1.22,61.45.19,1.9,3.19,1.92,3,0-2.05-20.41-2.46-40.97-1.22-61.45.12-1.93-2.88-1.92-3,0h0Z" fill="#00e51b" stroke-width="0"/><path d="m1345.14,421.57c1.13,6.32,3.72,12.36,7.51,17.54.48.65,1.3.98,2.05.54.64-.38,1.02-1.4.54-2.05-3.67-5-6.12-10.72-7.21-16.82-.14-.8-1.12-1.25-1.85-1.05-.84.23-1.19,1.04-1.05,1.85h0Z" fill="#00e51b" stroke-width="0"/><path d="m1382.19,414.12c2.37,6.58,4.74,13.15,7.1,19.73.65,1.8,3.55,1.03,2.89-.8-2.37-6.58-4.74-13.15-7.1-19.73-.65-1.8-3.55-1.03-2.89.8h0Z" fill="#00e51b" stroke-width="0"/><path d="m1417.78,419.37c4.44.09,8.86,3.07,10.49,7.24.29.75,1.01,1.28,1.85,1.05.72-.2,1.34-1.09,1.05-1.85-2.14-5.47-7.48-9.31-13.39-9.44-1.93-.04-1.93,2.96,0,3h0Z" fill="#00e51b" stroke-width="0"/><path d="m1444.07,364.97c4.91,24.02,13.55,47.28,25.51,68.69,3.37,6.03,7,11.91,10.88,17.62,1.08,1.59,3.68.09,2.59-1.51-13.63-20.09-24.15-42.23-31.07-65.5-1.97-6.62-3.64-13.33-5.02-20.09-.39-1.89-3.28-1.09-2.89.8h0Z" fill="#00e51b" stroke-width="0"/><path d="m1492.71,374.18c-2.71,19.54-1.45,39.55,3.79,58.57,1.49,5.42,3.31,10.74,5.43,15.94.72,1.76,3.62.99,2.89-.8-7.28-17.9-10.88-37.21-10.5-56.53.11-5.48.53-10.96,1.28-16.39.11-.81-.2-1.6-1.05-1.85-.7-.2-1.73.25-1.85,1.05h0Z" fill="#00e51b" stroke-width="0"/><path d="m1519.81,421.79c3.25,5.74,6.49,11.48,9.74,17.23.95,1.68,3.54.17,2.59-1.51-3.25-5.74-6.49-11.48-9.74-17.23-.95-1.68-3.54-.17-2.59,1.51h0Z" fill="#00e51b" stroke-width="0"/><path d="m1547.5,417.54c5.69,1.06,10.21,5.69,11.15,11.4.13.8,1.12,1.25,1.85,1.05.85-.23,1.18-1.04,1.05-1.85-1.09-6.62-6.66-12.27-13.25-13.5-.8-.15-1.62.22-1.85,1.05-.2.73.25,1.7,1.05,1.85h0Z" fill="#00e51b" stroke-width="0"/><path d="m1565.68,369.65c1.31,16.57,2.62,33.14,3.93,49.71.37,4.7.74,9.4,1.11,14.1.15,1.91,3.15,1.93,3,0-1.31-16.57-2.62-33.14-3.93-49.71l-1.11-14.1c-.15-1.91-3.15-1.93-3,0h0Z" fill="#00e51b" stroke-width="0"/><path d="m1593.19,428.89c.83,2.45,1.67,4.9,2.5,7.35.25.74,1.04,1.31,1.85,1.05.74-.24,1.32-1.05,1.05-1.85-.83-2.45-1.67-4.9-2.5-7.35-.25-.74-1.04-1.31-1.85-1.05-.74.24-1.32,1.05-1.05,1.85h0Z" fill="#00e51b" stroke-width="0"/><path d="m1613.38,417.57c7.2,4.7,12.95,11.34,16.66,19.09.83,1.74,3.42.22,2.59-1.51-3.93-8.2-10.12-15.2-17.73-20.16-1.62-1.06-3.13,1.54-1.51,2.59h0Z" fill="#00e51b" stroke-width="0"/><path d="m1646.58,394.21c1.56,18.63,5.88,36.97,12.89,54.3.71,1.77,3.62.99,2.89-.8-6.91-17.08-11.25-35.15-12.78-53.51-.16-1.91-3.16-1.93-3,0h0Z" fill="#00e51b" stroke-width="0"/><path d="m1674.42,438.96c4.08,5.73,8.17,11.47,12.25,17.2.47.66,1.31.97,2.05.54.65-.38,1.01-1.39.54-2.05-4.08-5.73-8.17-11.47-12.25-17.2-.47-.66-1.31-.97-2.05-.54-.65.38-1.01,1.39-.54,2.05h0Z" fill="#00e51b" stroke-width="0"/><path d="m1697.59,434.95c.82,0,1.64,0,2.45,0,.38,0,.79-.17,1.06-.44s.46-.69.44-1.06-.14-.79-.44-1.06-.65-.44-1.06-.44c-.82,0-1.64,0-2.45,0-.38,0-.79.17-1.06.44s-.46.69-.44,1.06.14.79.44,1.06.65.44,1.06.44h0Z" fill="#00e51b" stroke-width="0"/><path d="m1711.02,424.38c3.27,4.91,6.55,9.82,9.82,14.73,1.07,1.6,3.67.1,2.59-1.51-3.27-4.91-6.55-9.82-9.82-14.73-1.07-1.6-3.67-.1-2.59,1.51h0Z" fill="#00e51b" stroke-width="0"/><path d="m1760.11,434.2c2.45,3.27,4.91,6.55,7.36,9.82.49.65,1.3.98,2.05.54.64-.37,1.03-1.4.54-2.05-2.45-3.27-4.91-6.55-7.36-9.82-.49-.65-1.3-.98-2.05-.54-.64.37-1.03,1.4-.54,2.05h0Z" fill="#00e51b" stroke-width="0"/><path d="m1777.71,416.77c4.66,7.52,9.31,15.04,13.97,22.56,1.01,1.64,3.61.13,2.59-1.51-4.66-7.52-9.31-15.04-13.97-22.56-1.01-1.64-3.61-.13-2.59,1.51h0Z" fill="#00e51b" stroke-width="0"/><path d="m1795.06,367.54c12.81,19.18,23.96,39.45,33.27,60.55,2.64,5.98,5.12,12.03,7.46,18.13.68,1.78,3.59,1.01,2.89-.8-8.32-21.73-18.5-42.74-30.46-62.7-3.38-5.65-6.91-11.22-10.57-16.7-1.07-1.6-3.67-.1-2.59,1.51h0Z" fill="#00e51b" stroke-width="0"/><path d="m1838.18,419.19c1.75,8.16,3.49,16.32,5.24,24.48.4,1.89,3.3,1.09,2.89-.8-1.75-8.16-3.49-16.32-5.24-24.48-.4-1.89-3.3-1.09-2.89.8h0Z" fill="#00e51b" stroke-width="0"/><path d="m56.2,258.78c-7.22,4.55-17.17,2.24-22.73-3.91-7.62-8.45-2.96-20.72,3.32-28.43,7.31-8.98,17.67-15.68,28.68-19.13,2.49-.78,5.88-1.74,7.85.59,1.65,1.95,1.9,4.96,2.29,7.38,1,6.23,1.57,12.69.66,18.97s-3.32,12.03-7.79,16.49c-4.08,4.07-9.52,6.64-15.36,6.12-1.92-.17-1.91,2.83,0,3,12.25,1.09,22.14-9.42,25.14-20.45,1.85-6.81,1.7-13.99.82-20.94-.68-5.34-1.08-13.93-7.89-14.92-3.26-.48-6.65.83-9.66,1.96s-5.88,2.43-8.67,3.96c-5.7,3.12-10.95,7.12-15.47,11.8-7.97,8.25-14.99,21.72-8.25,32.8,5.65,9.29,19.18,13.24,28.57,7.32,1.63-1.03.13-3.62-1.51-2.59h0Z" fill="#007bd0" stroke-width="0"/><path d="m74.13,250.87c-1.98-9.26-1.17-18.98,2.14-27.84,1.5-4,3.5-8.39,6.46-11.54,2.31-2.46,5.56-4.69,8.99-5.09,1.34-.16,2.79,0,3.89.86,1.62,1.26,1.98,3.4,2.25,5.31.68,4.76,1.25,9.56,1.3,14.37.09,8.24-1.59,17.57-8.63,22.77-5.83,4.3-15.03,6.04-20.24-.13-1.25-1.48-3.36.65-2.12,2.12,5.35,6.34,14.62,5.85,21.37,2.19,3.49-1.89,6.56-4.71,8.52-8.18,2.59-4.57,3.72-9.78,4.02-14.99s-.25-10.75-.94-16.06c-.57-4.35-1.13-9.4-5.98-10.95-3.73-1.18-7.95.55-11.01,2.65-3.87,2.66-6.37,6.42-8.45,10.56-5.37,10.69-6.96,23.06-4.46,34.75.4,1.89,3.3,1.09,2.89-.8h0Z" fill="#007bd0" stroke-width="0"/><path d="m92.38,250.13c8.57-2.66,8.57-13.32,9.4-20.64.42-3.71.88-7.97,3.17-11.06,3.47-4.7,10.02-3.18,14.45-.78,10.28,5.57,15.56,18.39,13.07,29.66s-12.38,21.85-23.84,25.14c-8.6,2.47-21.39.99-25.7-8.05-.5-1.05-.8-2.17-1.01-3.31-.35-1.9-3.24-1.09-2.89.8,2.06,11.28,14.94,15.5,25.04,14.46,12.5-1.29,24.09-10.48,29.14-21.85,2.65-5.96,3.54-12.46,2.28-18.88-1.2-6.06-4.24-11.84-8.67-16.16s-11.86-8.44-18.41-6.78c-4.46,1.13-7.07,4.93-8.3,9.14-1.29,4.46-1.41,9.18-2.01,13.77-.47,3.56-1.13,8.08-4.15,10.46-.7.55-1.52.94-2.37,1.2-1.84.57-1.05,3.47.8,2.89h0Z" fill="#007bd0" stroke-width="0"/><path d="m43.36,257.32c-6.4,3.13-10.55,9.88-10.98,16.93s3.77,14.17,10.09,17.74c3.08,1.74,6.66,2.72,10.21,2.58,4.43-.17,8.63-1.91,12.45-4.06,6.52-3.68,13.83-9.12,15.1-17.05,1.16-7.2-4.65-15.87-12.57-14.37-1.89.36-1.09,3.25.8,2.89,5.59-1.05,9.47,5.78,8.89,10.6-.79,6.58-6.95,11.27-12.19,14.44-6.03,3.64-12.94,6.2-19.75,3.1-5.51-2.51-9.75-7.82-10.04-13.99-.31-6.7,3.48-13.27,9.51-16.22,1.73-.85.22-3.44-1.51-2.59h0Z" fill="#007bd0" stroke-width="0"/><path d="m80.16,279.34c3.17,21.83,5.19,43.82,6.04,65.86s.54,44.06-.92,66.04c-.82,12.37-2.02,24.72-3.57,37.02-.24,1.91,2.76,1.89,3,0,2.78-22.02,4.4-44.17,4.84-66.36s-.29-44.23-2.19-66.26c-1.07-12.41-2.51-24.78-4.3-37.1-.28-1.9-3.17-1.09-2.89.8h0Z" fill="#d7ff00" stroke-width="0"/><path d="m171.6,284.38c-3.45,3.66-9.51.25-10.39-4-1.35-6.54,4.51-11.72,9.79-14.19,3.05-1.43,6.36-2.5,9.61-3.38,2.5-.68,5.84-1.16,7.57,1.28,2.56,3.63-.22,9.35-3.11,11.89-2.47,2.18-5.54,3.64-8.34,5.35s-5.43,3.71-7.36,6.44c-1.12,1.58,1.48,3.08,2.59,1.51,4.05-5.72,11.71-7.08,16.27-12.22,3.42-3.86,5.74-10.92,1.92-15.29-2.5-2.86-6.49-2.85-9.9-1.97-3.78.97-7.62,2.28-11.13,3.98-6.45,3.12-12.45,9.69-10.8,17.4,1.38,6.44,10.43,10.6,15.41,5.32,1.32-1.4-.79-3.53-2.12-2.12h0Z" fill="#ff2900" stroke-width="0"/><path d="m193.65,259.86c5.56-4.82,15.2-1.32,17.29,5.42,1.17,3.79.3,7.92-1.78,11.22-2.27,3.59-5.97,5.86-10.16,6.46-5.03.73-10.37-.89-14.3-4.07-1.49-1.2-3.62.91-2.12,2.12,8.26,6.69,21.44,7.28,28.3-1.75,2.91-3.84,4.26-8.91,3.25-13.66s-4.34-8.16-8.66-9.88c-4.66-1.86-10.09-1.33-13.94,2-1.46,1.27.67,3.38,2.12,2.12h0Z" fill="#ff2900" stroke-width="0"/><path d="m213.49,274.86c1.04-1.58,3.06-2.11,4.86-1.86,2.13.3,3.8,1.73,4.87,3.53,2.3,3.84,2.26,8.84.98,13.01s-3.84,7.8-7.47,10.06-7.79,2.73-11.8,1.61c-4.22-1.17-8.05-4.11-9.58-8.31-.65-1.8-3.55-1.02-2.89.8,3.56,9.8,16.08,13.9,25.04,8.92,4.68-2.6,8.04-7.22,9.59-12.29s1.44-11.42-1.68-15.94c-1.73-2.5-4.24-4.18-7.3-4.42-2.85-.22-5.64.96-7.22,3.37-1.06,1.62,1.53,3.12,2.59,1.51h0Z" fill="#ff2900" stroke-width="0"/><path d="m161.47,284.61c-7.11-2.04-14.87,2.08-18.15,8.51-3.52,6.89-1.18,15.19,4.09,20.49,5.91,5.95,14.83,7.26,22.63,4.69,6.85-2.26,12.36-6.98,14.48-13.99,1.89-6.23.66-13.93-6.19-16.32-1.83-.64-2.61,2.26-.8,2.89,4.6,1.61,5.39,6.89,4.49,11.11-1.25,5.82-5.06,9.99-10.39,12.47-6.26,2.91-14.02,3.01-19.8-1.02-5.14-3.59-8.53-10.44-6.75-16.68s9.02-11.16,15.6-9.27c1.86.53,2.65-2.36.8-2.89h0Z" fill="#ff2900" stroke-width="0"/><path d="m185.15,293.72c2.57,20,4.1,40.13,4.56,60.29s-.14,40.18-1.79,60.2c-.93,11.34-2.2,22.65-3.81,33.91-.12.81.2,1.6,1.05,1.85.7.2,1.73-.25,1.85-1.05,2.86-20.02,4.7-40.17,5.45-60.38s.44-40.5-.94-60.7c-.78-11.4-1.91-22.78-3.36-34.12-.24-1.89-3.25-1.91-3,0h0Z" fill="#ff00ed" stroke-width="0"/><path d="m260.92,323.91c-5.69,2.85-12.02-1.83-14.55-6.83-3.73-7.36-.33-16.53,2.4-23.62.6-1.57,1.13-3.43,2.31-4.69,1.26-1.35,3.09-1.21,4.67-.53,2.74,1.18,5.03,3.71,6.54,6.22,3.07,5.09,3.44,11.3,2.72,17.07-.9,7.2-3.51,14.21-6.87,20.61-.9,1.71,1.69,3.23,2.59,1.51,3.47-6.62,6.14-13.79,7.16-21.21.93-6.77.47-14.14-3.34-20.02-1.96-3.02-4.77-5.85-8.18-7.15-1.88-.71-4-.79-5.82.16s-2.83,2.73-3.59,4.52c-3.43,8.05-7.31,18.37-3.88,27.04,2.91,7.35,11.56,13.42,19.37,9.51,1.73-.86.21-3.45-1.51-2.59h0Z" fill="#17ff31" stroke-width="0"/><path d="m274.15,308.1c-.61-4.2-1.04-8.43-1.29-12.67-.23-3.91-.58-8.03-.14-11.94.33-2.89,1.96-5.31,5.08-5.2,2.72.1,5.37,1.74,7.3,3.56,4.63,4.37,7.07,11.62,6.91,17.88s-3,11.65-8.46,14.49c-5.08,2.64-11.85,2.67-16-1.68-1.33-1.4-3.45.72-2.12,2.12,4.43,4.65,11.47,5.38,17.29,3.19,6.67-2.51,11.05-8.22,12.05-15.27,1.07-7.51-1.44-15.87-6.37-21.63-3.92-4.58-12.67-8.75-17.07-2.47-1.25,1.79-1.6,4.03-1.7,6.17-.12,2.53-.02,5.09.07,7.62.21,5.57.75,11.11,1.55,16.62.28,1.9,3.17,1.09,2.89-.8h0Z" fill="#17ff31" stroke-width="0"/><path d="m288.76,308.78c3.99,1.56,7.46-1.01,9.42-4.38,1.08-1.85,1.82-3.92,2.32-5.99s.51-4.36.87-6.54,1.02-4.29,2.05-6.21c.81-1.5,1.94-3.18,3.58-3.86,4.36-1.8,6.92,5.67,7.93,8.62,2.91,8.55,2.74,18.57-1.86,26.51-2.14,3.69-5.24,6.89-9.13,8.72-3.4,1.61-7.28,2.08-11,1.75-8.19-.73-16.36-5.98-17.55-14.59-.11-.81-1.14-1.23-1.85-1.05-.87.23-1.16,1.05-1.05,1.85,1.17,8.47,8.56,14.33,16.53,16.18,8.58,1.99,17.61-.31,23.5-7.01,6.7-7.62,8.47-18.41,6.61-28.16-.47-2.48-1.2-4.91-2.17-7.25s-2.14-5.06-4.07-6.85c-1.66-1.54-3.99-2.36-6.23-1.77-2.01.53-3.58,2.03-4.77,3.67-1.56,2.16-2.59,4.76-3.18,7.34s-.5,5.14-1.08,7.67c-.82,3.57-3.23,10.33-8.08,8.43-1.8-.7-2.58,2.2-.8,2.89h0Z" fill="#17ff31" stroke-width="0"/><path d="m254.02,327.98c-5.26,4.97-5.79,12.93-3.09,19.34,2.98,7.07,9.6,11.41,17.27,11.45,8.12.04,16-4.38,20.66-10.94,2.66-3.75,4.55-8.8,3.03-13.37-1.01-3.01-3.2-5.29-5.97-6.79-6.52-3.51-15.02-3.2-20.74-8.22-1.44-1.27-3.57.84-2.12,2.12,4.7,4.13,11.04,5.09,16.82,6.89,2.57.8,5.27,1.79,7.21,3.73,2.58,2.59,2.77,6.27,1.6,9.59-4.55,12.96-25.39,20.17-33.71,6.86-3.53-5.64-3.96-13.72,1.16-18.55,1.41-1.33-.72-3.45-2.12-2.12h0Z" fill="#17ff31" stroke-width="0"/><path d="m283.02,337.08c11.17,6.81,12.64,21.74,13.01,33.56.57,17.92.63,35.87.94,53.8.18,10.38.36,20.75.53,31.13.03,1.93,3.03,1.93,3,0-.32-18.92-.65-37.85-.97-56.77-.16-9.15-.23-18.31-.48-27.46-.18-6.66-.7-13.43-2.56-19.86-1.99-6.88-5.73-13.19-11.96-16.99-1.65-1.01-3.16,1.59-1.51,2.59h0Z" fill="#00dee7" stroke-width="0"/><path d="m493.19,132.42c-20.96-10.21-35.81-31.36-38.97-54.4-.79-5.77-1.16-12.19.18-17.9.8-3.4,2.57-5.98,5.3-8.13,2.57-2.02,5.43-3.72,8.23-5.4,11.91-7.13,24.86-12.45,38.33-15.79,11.94-2.96,24.38-4.58,36.68-3.53,10.71.91,21.66,3.9,30.38,10.4,4.34,3.24,7.96,7.4,10.52,12.17,3.14,5.84,4.61,12.45,5.24,19.01s.57,13.4.38,20.08c-.09,3.24-.29,6.65-1.62,9.66s-3.7,5.05-6.28,6.86c-22.26,15.62-49.62,24.42-76.7,25.67-3.32.15-6.65.19-9.97.12-1.93-.04-1.93,2.96,0,3,28.6.6,57.29-7.11,81.72-22,5.64-3.44,12.06-7.05,14.43-13.61,1.16-3.21,1.35-6.72,1.44-10.11s.12-6.82.08-10.23c-.17-13.34-2.21-27.16-11.39-37.48-7.54-8.47-18.44-13.2-29.4-15.32-12.07-2.34-24.39-1.73-36.45.35-14.21,2.46-28.03,7.12-40.86,13.71-3.24,1.66-6.42,3.45-9.53,5.37-2.84,1.75-5.76,3.52-8.27,5.73-5.38,4.74-6.04,11.83-6.02,18.59.07,24.29,13.15,48.03,33.37,61.39,2.46,1.63,5.03,3.08,7.68,4.38,1.73.84,3.25-1.74,1.51-2.59h0Z" fill="#ff0003" stroke-width="0"/><path d="m515.42,136.45c.07,14.92.09,29.83.05,44.75-.02,7.42-.05,14.83-.1,22.25-.02,3.5.02,7-.08,10.49-.07,2.46-.3,5.15-1.5,7.35s-3.53,3.34-6.04,2.67c-2.89-.77-5.27-3.02-7.32-5.09-4.65-4.69-9.33-9.34-14.2-13.82-9.62-8.85-19.73-17.17-30.25-24.92-11.85-8.72-24.23-16.7-37.06-23.89-1.69-.95-3.2,1.65-1.51,2.59,23.76,13.32,45.97,29.35,66.06,47.75,4.99,4.57,9.82,9.3,14.57,14.13,3.84,3.91,10.01,8.94,15.6,5.16,4.58-3.09,4.65-9.48,4.68-14.41.06-7.67.1-15.33.13-23,.06-17.33.05-34.66-.03-52,0-1.93-3.01-1.93-3,0h0Z" fill="#ff0003" stroke-width="0"/><path d="m422.91,153.1c-2.05-5.39.46-10.9.45-16.39,0-4.05-1.29-8.69-4.82-11.07s-7.84-1.29-10.39,1.77-3.66,7.6-2.95,11.61c1.07,6.02,5.08,11.16,5.7,17.29.19,1.9,3.2,1.92,3,0-.51-4.94-2.87-9.21-4.57-13.79-1.37-3.7-1.99-7.49-.18-11.17,1.36-2.78,4.23-5.12,7.38-3.43s3.93,6.19,3.82,9.43c-.21,5.57-2.42,11.06-.33,16.54.68,1.79,3.58,1.01,2.89-.8h0Z" fill="#ff0003" stroke-width="0"/><path d="m421.25,157.33c-13.35.98-26.57-7.98-30.43-20.84-.3-.99-1.32-1.31-2.2-.9-6.73,3.13-10.96,10.85-10.04,18.21.12.93.14,1.9.95,2.49.93.68,2.28,1.08,3.33,1.53,2.23.95,4.5,1.79,6.82,2.49,4.66,1.41,9.48,2.27,14.34,2.63,1.93.15,1.92-2.86,0-3-7.97-.6-15.79-2.72-22.97-6.23l.69.9c-1.38-6.62,2.32-13.59,8.4-16.42l-2.2-.9c4.22,14.06,18.65,24.12,33.32,23.04,1.91-.14,1.93-3.14,0-3h0Z" fill="#ff0003" stroke-width="0"/><path d="m411.39,159.11c-7.01.33-13.91,1.86-20.38,4.58-3.19,1.34-6.31,2.94-9.2,4.86-2.44,1.62-4.88,3.76-5.52,6.77-1.01,4.78,2.45,9.4,6.62,11.38,4.85,2.3,10.18.97,13.66-3.09,3.9-4.55,4.97-11.07,3.59-16.8-.39-1.61-3.13-1.31-2.95.4,1.37,13.07,8.72,25.08,19.8,32.17.67.43,1.67.15,2.05-.54,7.52-13.5,5.34-31.35-5.19-42.65-1.32-1.42-3.44.71-2.12,2.12,9.6,10.3,11.58,26.71,4.72,39.01l2.05-.54c-10.12-6.48-17.06-17.61-18.32-29.58l-2.95.4c1.01,4.19.46,8.86-1.85,12.54s-6.13,5.68-10.23,4.27c-3.23-1.11-6.73-4.59-6.01-8.3.49-2.51,2.81-4.14,4.83-5.42,2.47-1.56,5.06-2.93,7.74-4.09,6.2-2.67,12.89-4.18,19.63-4.5,1.92-.09,1.93-3.09,0-3h0Z" fill="#ff0003" stroke-width="0"/><path d="m518.54,224.98c26.01-15.74,52.02-31.48,78.03-47.22,7.34-4.44,14.68-8.88,22.02-13.32,1.04-.63.89-1.93,0-2.59-4.17-3.08-8.63-6.38-10.94-11.17-1.75-3.64-1.94-8.82,1.02-11.91,2.69-2.81,6.88-2.52,10.05-.73,3.66,2.07,5.62,5.7,5.45,9.89-.22,5.39-3.71,10.4-7.9,13.58-1.52,1.15-.03,3.76,1.51,2.59,4.6-3.48,8.34-8.49,9.2-14.3.79-5.32-1.08-10.34-5.46-13.52-3.69-2.68-9.06-3.7-13.1-1.16-4.64,2.93-5.79,8.93-4.51,13.95,1.74,6.86,7.77,11.38,13.16,15.37v-2.59c-26.01,15.74-52.02,31.48-78.03,47.22-7.34,4.44-14.68,8.88-22.02,13.32-1.65,1-.14,3.59,1.51,2.59h0Z" fill="#ff0003" stroke-width="0"/><path d="m621.82,165.92c.67-12.59,7.82-25.63,18.93-31.98,1.47-.84,3.1-1.32,4.3.18.86,1.07,1.32,2.48,1.7,3.79.73,2.53.89,5.18.58,7.8-.61,5.2-3.13,10.18-6.71,13.96-4.08,4.32-9.62,7.14-15.63,7.05-1.93-.03-1.93,2.97,0,3,12.47.18,23.2-10.57,25.13-22.53.49-3.05.46-6.15-.25-9.16s-2.09-6.9-5.38-7.75c-3.71-.96-7.5,2.39-10.13,4.58-2.8,2.32-5.25,5.02-7.38,7.96-4.87,6.73-7.73,14.83-8.17,23.12-.1,1.93,2.9,1.92,3,0h0Z" fill="#ff0003" stroke-width="0"/><path d="m629.48,169.67c5.13.75,9.83-1.35,14.45-3.31,3.97-1.69,8.95-3.92,13.04-1.38,3.35,2.08,3.41,6.39,2.23,9.73-1.48,4.21-4.86,7.16-9.22,8.02-7.47,1.47-15.09-2.18-21.64-5.33-1.73-.83-3.26,1.75-1.51,2.59,6.6,3.18,13.86,6.56,21.39,5.98,5.52-.43,10.19-3.08,12.82-8.04,2.04-3.84,2.87-9.08.25-12.88-3.05-4.42-8.6-4.86-13.36-3.42-3.03.92-5.87,2.35-8.81,3.5-2.77,1.08-5.82,2.08-8.84,1.64-1.89-.28-2.7,2.61-.8,2.89h0Z" fill="#ff0003" stroke-width="0"/><path d="m616.65,171.3c5.99,9.09,9.18,19.76,9.14,30.65,0,1.93,2.97,1.93,3,0,.1-7.06.17-14.66-3.33-21.03-2.86-5.2-8.09-9.35-14.22-9.35-.74,0-1.6.69-1.5,1.5,1.44,11.58,5.61,22.67,12.3,32.24,1.1,1.57,3.7.07,2.59-1.51-6.37-9.11-10.52-19.69-11.89-30.73l-1.5,1.5c5.35,0,9.68,3.94,11.97,8.51,2.88,5.75,2.67,12.6,2.58,18.86h3c.05-11.38-3.29-22.65-9.55-32.16-1.06-1.61-3.66-.1-2.59,1.51h0Z" fill="#ff0003" stroke-width="0"/><path d="m510.67,224.49c-9.09,28.51-21.36,55.97-36.57,81.75-1.93,3.27-3.9,6.51-5.92,9.72-1.53,2.43-4.5,5.93-2.71,8.96s6.22,2.09,8.99,2.1c4.16.01,8.32.03,12.48.04,16.31.06,32.61.11,48.92.17,18.47.06,36.94.13,55.4.19,1.27,0,2.02-1.67,1.06-2.56-11.69-10.87-22.45-22.75-32.06-35.5-9.61-12.74-18.11-26.3-25.38-40.51-4.1-8.02-7.81-16.24-11.09-24.62-.7-1.78-3.6-1-2.89.8,5.89,15.04,13.07,29.57,21.49,43.36s18.04,26.84,28.71,38.96c6.04,6.86,12.42,13.41,19.11,19.63l1.06-2.56c-31.94-.11-63.89-.22-95.83-.33-7.99-.03-15.97-.06-23.96-.08-.87,0-3.18.32-3.51-.87-.38-1.41,1.4-3.43,2.09-4.51,1.95-3.08,3.86-6.18,5.72-9.31,7.38-12.38,14.09-25.16,20.1-38.27,6.82-14.88,12.73-30.17,17.7-45.76.59-1.84-2.31-2.63-2.89-.8h0Z" fill="#0900a2" stroke-width="0"/><path d="m497.05,327.89c-1.14,21.74-2.27,43.48-3.41,65.22l-.86,16.43-.42,7.97c-.1,1.91.2,4.64-.87,6.34-1.92,3.05-7.7-1.18-9.59-2.55-2.93-2.12-5.59-4.6-8.48-6.77-2.55-1.92-5.41-3.65-8.65-3.99s-6.44.92-8.48,3.32c-4.62,5.41-2.96,13.95,1.72,18.73,2.96,3.01,6.81,4.92,10.73,6.36,4.55,1.67,9.29,2.85,13.95,4.19,5.15,1.48,10.31,2.95,15.46,4.43,4.6,1.32,9.71,3.15,14.49,1.63,6.72-2.14,8.92-9.85,7.59-16.17-1.7-8.11-9.32-12.92-16.4-15.99-1.92-.83-3.86-1.59-5.81-2.33-1.81-.69-2.59,2.21-.8,2.89,6.93,2.65,15.42,5.81,18.98,12.89,2.48,4.91,2.03,12.99-3.63,15.54-4.21,1.9-9.26-.1-13.39-1.28-4.92-1.41-9.83-2.82-14.75-4.23-4.47-1.28-9-2.45-13.41-3.94-3.83-1.29-7.69-2.98-10.63-5.84-2.35-2.29-3.74-5.29-3.83-8.59-.07-2.83.85-5.94,3.36-7.52,5.55-3.49,11.41,1.96,15.46,5.33,2.61,2.17,5.24,4.4,8.24,6.03s7.67,3.24,10.17-.21c1.07-1.47,1.28-3.34,1.38-5.11.15-2.54.27-5.09.4-7.64.27-5.14.54-10.29.81-15.43,1.08-20.66,2.16-41.32,3.24-61.98l.4-7.72c.1-1.93-2.9-1.92-3,0h0Z" fill="#0900a2" stroke-width="0"/><path d="m533.9,327.97c1.46,25.45,5.07,50.77,10.79,75.61,1.62,7.04,3.42,14.03,5.37,20.98.38,1.33,2.01,1.36,2.74.36,4.66-6.39,13.03-14.21,21.32-9.06,3.2,1.99,5.39,5.74,3.6,9.42-1.89,3.89-6.28,6.64-10.07,8.41-8.15,3.8-17.58,4.01-26.4,3.74-4.1-.13-8.32-.16-12.33-1.13-3.3-.79-7.04-2.38-8.08-5.94-1.35-4.62,2.94-8.91,7.05-10.14,5.87-1.77,12.24,1.06,17.58,3.31.75.32,1.64-.34,1.85-1.05.25-.86-.3-1.53-1.05-1.85-5.67-2.38-11.86-4.85-18.12-3.57-4.68.95-9.3,4.75-10.33,9.55-.96,4.5,1.51,8.64,5.42,10.77s8.83,2.62,13.35,2.85c10.26.53,21.18.78,30.86-3.2,4.65-1.91,9.53-4.9,12.29-9.22s1.86-9.13-1.58-12.56c-3.88-3.86-9.58-4.99-14.68-3.13-5.63,2.04-9.82,6.57-13.27,11.3l2.74.36c-6.86-24.35-11.68-49.28-14.33-74.44-.75-7.1-1.32-14.22-1.73-21.35-.11-1.92-3.11-1.93-3,0h0Z" fill="#0900a2" stroke-width="0"/><path d="m510.22,311.76c9-14.11,15.98-29.71,20.66-45.77,1.25-4.29,2.32-8.64,3.22-13.02h-28.93c2.94,10.59,7.33,20.97,12.94,30.42s12.94,18.43,20.73,26.48c4.1,4.23,8.36,8.29,12.63,12.35,3.54-8.54,7.07-17.07,10.61-25.61-21.79,1.4-43.62,2.04-65.46,1.89-6.12-.04-12.24-.15-18.36-.31v30c13.28-.51,26.43-4.25,37.77-11.25,3.26-2.01,5.87-5.24,6.89-8.96s.54-8.37-1.51-11.56-5.14-6.02-8.96-6.89-8.08-.63-11.56,1.51c-2.73,1.69-5.58,3.16-8.54,4.41l3.58-1.51c-4.99,2.08-10.21,3.51-15.57,4.26l3.99-.54c-2.03.27-4.06.44-6.1.52-3.94.15-7.78,1.57-10.61,4.39-2.6,2.6-4.56,6.87-4.39,10.61s1.45,7.9,4.39,10.61,6.51,4.28,10.61,4.39c21.83.58,43.67.39,65.48-.58,6.11-.27,12.22-.61,18.33-1,2.61-.17,5.29-.71,7.57-2.05,2.82-1.65,4.88-4.2,6.14-7.17.68-1.17,1.02-2.43,1.02-3.79.36-1.33.36-2.66,0-3.99,0-1.35-.35-2.62-1.02-3.79-.6-1.86-1.64-3.47-3.1-4.83-8.3-7.9-16.61-15.85-23.64-24.93l2.35,3.04c-5.69-7.41-10.41-15.51-14.07-24.11l1.51,3.58c-1.87-4.43-3.45-8.97-4.73-13.6-.88-3.16-2.81-5.81-5.38-7.79s-5.8-3.37-9.09-3.22c-2.66.12-5.21.8-7.57,2.05-1.75.94-3.15,2.23-4.21,3.86-1.33,1.45-2.22,3.15-2.68,5.1-2.16,10.52-5.34,20.8-9.49,30.7l1.51-3.58c-3.6,8.51-7.9,16.71-12.87,24.51-2.04,3.21-2.51,7.95-1.51,11.56s3.65,7.25,6.89,8.96c3.48,1.84,7.7,2.76,11.56,1.51,3.8-1.23,6.79-3.49,8.96-6.89h0Z" fill="#0900a2" stroke-width="0"/><path d="m521.86,315.9c3.85,0,7.89-1.67,10.61-4.39s4.56-6.87,4.39-10.61-1.45-7.9-4.39-10.61-6.54-4.39-10.61-4.39c-3.85,0-7.89,1.67-10.61,4.39s-4.56,6.87-4.39,10.61,1.45,7.9,4.39,10.61,6.54,4.39,10.61,4.39h0Z" fill="#0900a2" stroke-width="0"/><path d="m524.32,261.9c3.85,0,7.89-1.67,10.61-4.39s4.56-6.87,4.39-10.61-1.45-7.9-4.39-10.61-6.54-4.39-10.61-4.39c-3.85,0-7.89,1.67-10.61,4.39s-4.56,6.87-4.39,10.61,1.45,7.9,4.39,10.61,6.54,4.39,10.61,4.39h0Z" fill="#0900a2" stroke-width="0"/><path d="m519.41,259.45c3.85,0,7.89-1.67,10.61-4.39s4.56-6.87,4.39-10.61-1.45-7.9-4.39-10.61-6.54-4.39-10.61-4.39c-3.85,0-7.89,1.67-10.61,4.39s-4.56,6.87-4.39,10.61,1.45,7.9,4.39,10.61,6.54,4.39,10.61,4.39h0Z" fill="#0900a2" stroke-width="0"/><path d="m484.27,67.98c5.72.84,11.45,1.67,17.17,2.51,1.55.23,3.3-.38,3.69-2.1.32-1.42-.43-3.45-2.1-3.69-5.72-.84-11.45-1.67-17.17-2.51-1.55-.23-3.3.38-3.69,2.1-.32,1.42.43,3.45,2.1,3.69h0Z" fill="#0aff00" stroke-width="0"/><path d="m536.59,65.81c4.33-.14,8.66-.27,12.99-.41,1.27-.04,2.6-.9,2.89-2.2.32-1.39-.25-2.57-1.38-3.39-3.93-2.85-9.08-3.79-13.79-2.82s-8.68,4.3-10.5,8.84c-1.62,4.02-1.36,9.11,1.07,12.76s6.61,5.69,10.98,5.28c4.84-.44,9.33-3.23,10.79-8.05.46-1.5-.54-3.34-2.1-3.69s-3.2.49-3.69,2.1c-.02.08-.12.55-.19.58.13-.05.29-.56.02-.07-.18.32-.36.63-.56.93-.25.39.11-.14.11-.14.02.04-.36.4-.39.44-.09.09-.19.19-.28.28-.1.09-.19.18-.29.26-.25.2-.2.17.14-.1-.06.21-1.54,1.07-1.73,1.01l.34-.14c-.13.05-.25.1-.38.14-.13.05-.26.09-.39.13-.39.12-.79.22-1.19.3-.69.13-.06.12-.01.01-.02.04-.44.04-.51.04-.37.02-.75.03-1.12.01-.14,0-.27-.02-.41-.03-.71-.03.68.15-.01,0-.4-.08-.79-.16-1.18-.28-.15-.05-.32-.14-.48-.16-.4-.07.65.33.06.03-.3-.15-.6-.3-.89-.48-.12-.07-.44-.22-.5-.34.15.27.37.32.13.09-.32-.32-.64-.63-.95-.97-.5-.55.3.52-.08-.12-.1-.16-.21-.32-.3-.48-.11-.19-.64-1.33-.35-.6-.31-.78-.51-1.58-.65-2.41.14.83,0-.39-.02-.57-.01-.38,0-.77.02-1.15.02-.23.04-.46.07-.69-.07.69-.04.26,0,.11.1-.45.19-.91.32-1.35.07-.22.14-.44.22-.66.01-.03.31-.71.11-.29s.13-.25.14-.27c.1-.21.21-.41.33-.61.19-.33.42-.64.63-.96-.34.51-.15.18-.04.06.21-.23.41-.46.63-.68.11-.11.22-.21.34-.32.08-.07.7-.56.16-.16.33-.25.69-.48,1.05-.7s.73-.4,1.11-.58c-.64.3.11-.04.21-.07.24-.08.47-.16.72-.23.48-.14.98-.24,1.47-.34.81-.17-.62.03.2-.03.25-.02.5-.04.76-.06.51-.02,1.02-.02,1.52,0,.25.01.51.04.76.06.71.06-.43-.11.21.04.54.12,1.08.22,1.62.38.2.06.41.12.61.19.08.03.93.36.6.21-.41-.17.35.17.34.16.27.13.53.27.79.42.48.27.94.58,1.39.9l1.51-5.59c-4.33.14-8.66.27-12.99.41-1.57.05-3.07,1.34-3,3s1.32,3.05,3,3h0Z" fill="#0aff00" stroke-width="0"/><path d="m488.6,63.02c-3.58-2.4-7.65-.15-9.8,3.01s-2.14,7.24-.82,10.73c2.81,7.43,10.38,11.88,18.23,10.18,4.18-.91,7.86-3.55,10.14-7.14,2.08-3.27-3.11-6.28-5.18-3.03-3.11,4.89-10.28,6.12-14.57,2.28-1.26-1.12-2-2.09-2.74-3.67-.47-1.01-.82-2.49-.82-3.67,0-.95.51-2.26,1.25-3.01.14-.15.28-.29.43-.42-.19.13-.2.14-.03.03.12-.08.24-.16.36-.22.32-.16.33-.17.03-.02.35-.08.34-.1-.03-.05.35,0,.34-.01-.03-.07.33.1.34.08.05-.04.17.09.34.19.5.3,1.35.9,3.32.26,4.1-1.08.86-1.47.27-3.2-1.08-4.1h0Z" fill="#0aff00" stroke-width="0"/><path d="m472.5,100.88c16.48,10.3,34.97,19.19,54.75,19.73,16.43.45,33.21-6.17,43.72-19.09,5.68-6.98,9.21-15.43,9.25-24.5.02-3.86-5.98-3.87-6,0-.07,14.24-10.28,26.1-22.84,32.45-6.75,3.41-14.19,5.09-21.72,5.17-9.05.09-17.95-1.86-26.43-4.91-9.76-3.52-18.92-8.54-27.7-14.02-3.28-2.05-6.3,3.14-3.03,5.18h0Z" fill="#0aff00" stroke-width="0"/><path d="m499.87,28.16c.75.08-1.2-.5-.48-.13-.22-.11-.42-.25-.64-.36-.63-.32.32.38-.17-.13-.17-.18-.36-.35-.53-.53-.06-.06-.58-.72-.19-.19-.35-.47-.66-.98-.95-1.49-1.17-2.05-2.02-4.26-3.17-6.32-1.37-2.45-3.22-4.73-5.78-6-2.81-1.39-5.94-1.74-9.02-1.35-5.75.73-11.13,3.55-15.71,7.01-4.37,3.3-8.08,7.26-11.18,11.78-6.18,8.98-9.65,19.73-11.41,30.42-1.87,11.37-2.02,22.98-.74,34.43,1.59,14.15,5.61,28.65,16.01,38.95l4.24-4.24c-15.67-12.45-25.46-31.53-27.22-51.18-.91-10.13.12-19.97,3.46-29.55s8.99-18.49,17.12-24.16c5.02-3.5,10.64-5.51,16.77-6.09,7.23-.68,14.49.19,21.67,1.07l-.8-5.89c-21.53,4-44.31,12.15-57.26,30.93-5.81,8.42-9.41,18.78-9.11,29.08.15,5.28,1.35,10.41,3.55,15.21,2.05,4.48,4.99,8.48,8.09,12.29,6.65,8.18,14.92,15.72,17.82,25.96l4.41-3.39c-6.57-3.4-10.47-9.48-12.68-16.42-2.45-7.71-3.01-15.33-3.19-23.44-.21-9.48-.4-19.31,2.19-28.52,2.36-8.36,7.25-15.06,14.71-19.22s16.96-5.31,25.34-2.35c1.39.49,3.02-.44,3.54-1.74.59-1.47.02-2.85-1.23-3.75-7.29-5.22-16.6-.5-23.36,3.26-7.07,3.93-14.21,8.14-19.93,13.95-6.08,6.17-9.81,14-11.07,22.55s-.6,17.95,1.31,26.67c2.14,9.76,6.05,19.16,11.42,27.58,1.76,2.76,6.57,1.05,5.48-2.31-3.75-11.64-6.51-23.58-8.22-35.68-.83-5.86-1.38-11.77-1.69-17.68s-.55-11.61,0-17.36c.47-4.93,1.85-9.73,4.63-13.85,2.15-3.19,5.39-6.06,8.71-8.15,7.51-4.75,16.17-7.09,24.88-9.05,4.94-1.11,9.4-2.07,14.42-1.95,2.33.06,4.06.29,6.37,1.13.95.35-.23-.12.31.12.29.13.57.27.84.42.5.27,1,.57,1.46.91-.11-.08-.33-.28.14.11.24.2.48.42.7.64.45.44.79.85,1,1.15,1.98,2.79,6.13,1.1,5.48-2.31-.38-1.99.7-4.23,2.4-5.89,2.04-1.99,4.92-2.9,7.75-3.33,3.13-.47,6.35-.39,9.5-.45,3.77-.07,7.54-.13,11.3-.2,12.65-.23,25.48-.96,38.07.65,11.01,1.41,21.99,5.18,29.84,13.43,7.07,7.43,10.54,17.31,12.14,27.51,1.88,11.93,1.15,24.83.12,37.06-.12,1.47,1.24,2.78,2.6,2.95,1.5.18,2.84-.69,3.29-2.15,4.01-12.95-.41-26.83-4.46-39.22-3.35-10.27-7.47-20.62-13.95-29.36-3.21-4.33-6.9-8.18-11.28-11.33-4.88-3.51-10.56-5.83-16.45-6.98-6.64-1.3-13.42-1.38-20.17-1.3-7.24.09-14.48.22-21.72.33-6.13.09-12.31-.05-18.4.81-4.96.7-9.9,2.22-13.8,5.49-4.18,3.52-6.5,9.69-4.56,14.97,1.15,3.14,3.47,5.39,6.62,6.51s6.37.92,9.49.67c13.68-1.09,26.2-7,39.53-9.69,10.83-2.18,23.46-2.06,32.03,5.6,7.78,6.96,10.82,17.53,12.86,27.61,1.29,6.4,2.23,12.87,3.28,19.31.59,3.61,1.18,7.22,1.77,10.84.3,1.81.59,3.61.89,5.42.05.33.11.66.16.99,0-.03.19,1.58.13.75.05.6.05,1.2,0,1.79-.04.47-.44,1.69-.64,2.1-.34.74.15-.33-.05.09-.1.2-.58.38,0,.03.52-.32-.17-.11.48-.12s.1,0-.17-.1l2.2,2.89c-1.82-20.61-3.95-42.94-16.86-60.01-11.38-15.05-29.17-23.31-47.54-25.9-10.75-1.52-21.56-1.33-32.28.31-2.93.45-2.8,5.23,0,5.79,9.9,1.97,19.86.89,29.8-.17,8.29-.88,16.9-1.65,25.01-.12,7.26,1.37,14.17,4.4,18.68,10.44,2.76,3.69,4.67,8,6.52,12.19s3.59,8.65,5.15,13.07c3.58,10.2,6.29,20.71,8.12,31.36.45,2.6,4.3,2.83,5.48.72,11.39-20.34,3.69-46.21-12.01-61.97C582.92,4.15,555.25-.66,530.52.07c-7.04.21-15.08.31-21.03,4.6-5.37,3.88-8.59,11.96-4.51,17.9.92,1.33,2.63,1.94,4.1,1.08,1.32-.77,2-2.76,1.08-4.1-.37-.54-.63-1.01-.73-1.31-.19-.56-.24-.82-.26-1.09-.11-1.3,0-1.85.41-3.1.64-1.93,2.14-3.75,3.94-4.86,4.78-2.94,10.95-2.91,16.38-3.09,11.79-.39,23.69.42,35.13,3.4,10.79,2.81,21.44,7.64,29.76,15.17,7.47,6.77,13.02,15.56,15.83,25.16,3.08,10.52,2.69,21.88-2.7,31.5l5.48.72c-1.67-9.75-4.08-19.36-7.22-28.73-1.57-4.69-3.33-9.31-5.25-13.86s-3.74-8.87-6.23-12.95c-4.57-7.47-11.59-12.39-19.97-14.78s-16.57-2.33-24.85-1.6c-11.22.98-22.73,3.18-33.94.96v5.79c16.85-2.58,35.58-1.28,51.23,5.91,7.83,3.6,14.67,8.46,20.26,15,6.16,7.21,10.14,16.3,12.61,25.53,2.92,10.9,4,22.16,4.99,33.37.13,1.43.86,2.41,2.2,2.89,2.67.97,5.37-.5,6.65-2.89s1.57-5.16,1.19-7.78c-1.04-7.17-2.33-14.31-3.5-21.46-1.88-11.49-3.34-23.29-8.22-33.98-2.15-4.71-5.11-9.17-8.98-12.63-4.44-3.97-9.89-6.6-15.72-7.74-12.61-2.47-25.13.99-37.12,4.68-6.46,1.99-12.95,4.01-19.66,5.02-2.93.44-6.13.8-9.08.43-1.08-.14-2.25-.42-3.15-1.08-.79-.57-1.26-1.32-1.51-2.08-.7-2.08-.31-4.18.71-5.97s2.3-2.91,4.06-3.93c1.1-.63,1.79-.93,2.72-1.27,1.14-.41,2.3-.73,3.47-.99,2.48-.56,4.32-.76,6.91-.92,6.6-.4,13.25-.28,19.85-.38,6.99-.11,13.99-.33,20.98-.24,6.41.09,12.85.62,18.93,2.79,4.72,1.68,8.88,4.41,12.4,7.71,7.4,6.95,12.3,16.42,15.92,25.8,1.97,5.1,3.64,10.3,5.17,15.54,1.86,6.33,3.55,12.82,3.57,19.45,0,3.18-.42,6.26-1.36,9.3l5.89.8c.99-11.73,1.63-23.63.13-35.35s-5-22.82-12.64-31.78C597.23-.04,566.79,2.64,542.39,3.08c-4.34.08-8.68.15-13.02.23-4.11.07-8.28.06-12.3.98-7.44,1.72-14.19,8.1-12.64,16.27l5.48-2.31c-6.16-8.68-17.58-8.14-26.93-6.38-9.44,1.78-19.09,4.21-27.68,8.61s-16.15,11.92-18.78,21.82c-1.57,5.91-1.64,12.12-1.51,18.19s.57,12.69,1.27,19c1.62,14.47,4.64,28.76,9.11,42.62l5.48-2.31c-8.62-13.51-13.46-29.89-12.47-45.97.46-7.44,2.61-14.96,7.39-20.81s10.87-9.83,17.2-13.5c3.54-2.06,7.14-4.3,10.99-5.73,3.6-1.34,7.18-2.04,10.3.21l2.31-5.48c-8.74-3.08-18.42-2.26-26.83,1.42s-15.38,10.86-18.99,19.67c-4.05,9.88-4.15,20.91-4.06,31.42.07,8.69.51,17.53,2.74,25.97,2.44,9.21,7.43,17.93,16.14,22.44,2.26,1.17,5.15-.77,4.41-3.39-5.26-18.62-25.71-28.45-28.88-47.74-.7-4.25-.42-9.13.52-13.41,1.04-4.71,2.78-9.08,5.18-13.24,5.12-8.86,12.93-15.59,21.85-20.51,10.53-5.8,22.29-9.01,34.06-11.19,1.45-.27,2.35-1.93,2.15-3.29-.24-1.59-1.42-2.41-2.95-2.6-12.94-1.59-26.54-2.76-38.37,3.89-9.65,5.42-16.72,14.75-21.04,24.79-8.69,20.18-7.39,43.54,1.63,63.37,4.94,10.86,12.38,20.68,21.74,28.11,1.27,1.01,3.01,1.24,4.24,0,1.15-1.15,1.15-3.1,0-4.24-8.47-8.39-12.14-20.05-13.85-31.6-1.6-10.78-1.71-22.08-.32-32.95,1.24-9.72,4.11-20.1,9.16-28.69,2.55-4.33,5.3-7.84,9.12-11.23,3.43-3.05,8-6.04,12.62-7.36,1.53-.44,2.69-.66,4.22-.68,1.33-.02,2.56.14,3.53.55,1.25.52,2.04,1.2,2.89,2.3-.31-.4.06.09.12.2.18.29.37.57.55.86.36.59.68,1.2.99,1.82,1.12,2.22,2.02,4.6,3.5,6.62,1.82,2.51,4.09,3.99,7.19,4.33,1.61.18,3-1.51,3-3,0-1.77-1.38-2.82-3-3h0Z" fill="#170b00" stroke-width="0"/><path d="m1349.17,144.39c-7.63,3.44-17.01,2.54-24.53-1.25-8.27-4.17-14.22-11.23-16.67-20.3-2.53-9.35-1.23-19.7,3.11-28.42,4.51-9.06,12.14-16.04,21.05-20.69s18.66-6.87,28.44-6.69c8.67.16,17.6,2.37,25.36,6.18,15.7,7.7,29.07,22.71,28.92,41.06-.04,5.26-1.64,10.21-5.29,14.07s-8.06,6.28-12.63,8.51c-10.77,5.25-22.31,8.92-34.11,11.01-2.9.51-5.82.92-8.75,1.23-1.61.17-3,1.26-3,3,0,1.49,1.38,3.17,3,3,13.08-1.36,25.91-4.5,38.06-9.55,10.77-4.48,23.06-10.17,27.23-21.99,2.04-5.78,1.76-12.21.55-18.13-.98-4.79-2.78-9.44-5.17-13.7-4.75-8.46-11.93-15.43-20.12-20.54-17.6-10.97-39.81-13.2-59.12-5.53-10.61,4.21-20.13,11.09-26.59,20.6s-9.23,20.81-7.91,31.81c.67,5.58,2.29,10.99,5.13,15.86,2.58,4.42,6.12,8.15,10.23,11.17,8.13,6,18.72,8.7,28.68,6.83,2.49-.47,4.86-1.3,7.17-2.34,1.48-.67,1.83-2.81,1.08-4.1-.89-1.52-2.62-1.74-4.1-1.08h0Z" fill="#e700d0" stroke-width="0"/><path d="m1356.03,153.6c-.74,14.08-1.49,28.16-2.23,42.23-.18,3.48-.37,6.96-.55,10.43-.09,1.66-.17,3.31-.26,4.97-.07,1.2-.16,2.45-.32,3.36-.1.57-.22,1.14-.38,1.69-.08.27-.16.54-.25.81-.03.08-.28.72-.13.37-.44,1-1.01,1.76-1.57,2.16-1.99,1.4-4.95.91-7.22.68-9.35-.94-18.39-4.85-26.59-9.79-8.76-5.27-16.77-11.66-24.89-17.85-9.15-6.97-18.52-13.84-29.04-18.6l1.08,4.1c4.58-8.1,7.28-17.14,7.92-26.42.3-4.33.28-8.9-.7-13.15-.83-3.62-2.73-7.45-6.19-9.18-9.3-4.65-16.9,6.64-22.09,12.55-5.78,6.58-13.38,13.63-13.88,22.97-.44,8.27,9.31,17.76,17.39,12.32,3.2-2.15.43-6.95-3.03-5.18-8.4,4.31-18.22,4.59-26.78,8.6-7.35,3.44-14.15,10.2-13.5,18.91.28,3.77,1.67,7.54,4.4,10.23,3.25,3.2,7.72,3.99,12.07,2.93,2.52-.62,4.9-1.78,7.26-2.85,2.2-.99,4.39-1.99,6.54-3.08,4.26-2.14,8.34-4.61,11.98-7.71,7.74-6.6,13.07-17.39,9.91-27.6-.75-2.42-4.16-3.01-5.48-.72-5.19,9-8.88,18.91-10.69,29.14-1.48,8.31-2.58,17.7,1.71,25.42,2.17,3.9,5.78,6.49,10.28,6.75,1.06.06,2.05-.62,2.59-1.49,8.34-13.45,12.56-29.35,11.98-45.17-.14-3.85-6.14-3.87-6,0,.54,14.82-3.35,29.53-11.16,42.14l2.59-1.49c-.2-.01-.4-.02-.59-.04.16.02.48.12-.05-.03-.31-.09-.63-.16-.94-.26-.08-.03-.6-.25-.28-.1s-.18-.1-.25-.14c-.35-.21-.7-.41-1.02-.65.42.32-.21-.22-.32-.33-.23-.23-.45-.46-.66-.71-.38-.44-.13-.16-.05-.05-.11-.15-.22-.31-.33-.47-.24-.36-.47-.74-.67-1.12-1.31-2.4-1.99-5.78-2.12-8.6-.18-4.02.38-8.12,1.08-12.07.82-4.62,2.02-9.18,3.58-13.62,1.72-4.9,3.92-9.6,6.51-14.09l-5.48-.72c2.17,7.04-1.08,14.61-6.2,19.76-5.91,5.94-13.91,9.42-21.47,12.74-1.85.82-3.89,1.62-5.94,1.63-1.57,0-2.38-.34-3.54-1.14.39.27-.26-.23-.38-.33-.24-.23-.47-.47-.69-.71,0-.01-.31-.37-.13-.14.21.26-.16-.22-.19-.27-.22-.32-.42-.65-.61-.99-.51-.93-1.01-2.43-1.17-3.56-.04-.31-.1-1.39-.08-2.03.03-.99.05-1.02.22-1.76.37-1.61.84-2.53,1.92-4.07,1.92-2.74,4.99-4.73,8.07-6.22,3.93-1.89,8.37-2.89,12.65-3.92,4.97-1.19,9.9-2.5,14.47-4.84l-3.03-5.18c-.26.17-.52.35-.8.49.36-.18-.39.12-.54.16-.14.04-.29.07-.43.09.07,0,.42-.03.08-.03-.19,0-.39,0-.58,0-.06,0-.62-.07-.33-.02.22.04-.47-.13-.61-.17-.12-.04-.95-.38-.55-.19-.28-.13-.55-.28-.82-.45-.13-.08-.27-.17-.4-.26-.09-.06-.57-.43-.29-.2-1.16-.93-1.73-1.68-2.38-2.93-.55-1.06-.77-2.15-.72-3.43.12-3.3,1.87-6.39,3.77-9.06,2.16-3.05,4.78-5.78,7.24-8.59,2.76-3.14,5.41-6.44,8.35-9.41,1.2-1.21,2.45-2.32,3.97-3.11,1.24-.64,2.33-.82,3.59-.37-.31-.11.34.17.44.22.35.2.47.32.52.36.6.54.69.67,1.04,1.21.79,1.26,1.11,2.26,1.46,3.81.38,1.66.45,2.74.55,4.56.1,1.96.1,3.93,0,5.9-.43,8.58-2.93,17.01-7.17,24.49-.74,1.3-.42,3.43,1.08,4.1,19.47,8.8,34.58,24.44,52.57,35.62,8.95,5.56,18.7,9.86,29.22,11.23,2.89.38,5.9.69,8.78.05s5.46-2.67,6.81-5.35,1.72-5.37,1.95-8.19c.26-3.35.37-6.71.55-10.07.86-16.31,1.73-32.63,2.59-48.94.09-1.62-1.44-3-3-3-1.7,0-2.91,1.38-3,3h0Z" fill="#e700d0" stroke-width="0"/><path d="m1356.43,226.37c16.01-19.08,36.8-34.13,60-43.25,5.85-2.3,11.85-4.24,17.94-5.79s13.39-1.85,17.62-6.8,3.57-11.01,3.11-16.81c-.12-1.48-.23-2.95-.25-4.44,0-.6,0-1.21.02-1.81.04-.96,0-.98.26-1.89.18-.63.18-.53.49-1.07l-.09.12c.26-.25.29-.28.08-.11-.5-.14.3.13.02,0,1.08.52,1.87,1.13,2.74,1.96,4.28,4.06,6.02,10.35,4.29,15.86s-6.82,9.67-12.62,10.63l2.92,5.01c7.61-6.45,15.23-12.9,22.84-19.35,3.32-2.81,6.56-5.74,10.27-8.05,3.06-1.91,6.58-3.6,10.08-3.53,1.53.03,2.97.45,4.37,1.35.8.51,1.56,1.28,2.1,2.21.17.3.33.61.47.92-.23-.52.05.19.11.37.09.29.17.58.24.88.05.22.16,1.11.11.5.06.67.09,1.35.06,2.02-.01.32-.04.64-.07.96.06-.59-.1.57-.14.73-.14.66-.31,1.3-.52,1.94-.11.32-.22.64-.34.96-.21.56-.09.22-.04.1-.1.23-.2.45-.31.67-.33.67-.69,1.33-1.08,1.96-.19.3-.38.59-.58.88-.09.12-.17.25-.26.37-.56.77.17-.2-.17.22-2.02,2.46-3.97,3.94-6.94,4.97-9.48,3.29-19.82,1.03-29.6,1.19v6c13.29-1.75,27.09,2.23,37.35,10.9,2.86,2.41,5.5,5.18,7.66,8.18v-3.03c-1.23,2.04-3.34,2.85-6,2.85s-5.57-.84-8.06-2.28c-6.66-3.87-11.61-10.27-19.45-12.01-2.28-.51-4.2,1.4-3.69,3.69,2.4,10.71,4.8,21.43,7.2,32.14l5.01-2.92c-10.42-13.35-18.78-28.4-24.66-44.28-.56-1.52-2.03-2.55-3.69-2.1-1.46.4-2.66,2.16-2.1,3.69,6.27,16.93,15.09,32.7,26.2,46.93.8,1.03,2.59,1.08,3.64.47,1.18-.69,1.67-2.08,1.38-3.39-2.4-10.71-4.8-21.43-7.2-32.14l-3.69,3.69c7.91,1.75,12.8,9.21,20.04,12.42,6.71,2.98,15.98,3.36,20.25-3.74.51-.85.6-2.19,0-3.03-8.91-12.36-22.77-20.26-37.85-22.11-4.1-.5-8.24-.48-12.34.06-1.61.21-3,1.23-3,3,0,1.61,1.37,3.03,3,3,9.88-.16,20.04,1.84,29.73-.94,3.83-1.1,7.29-2.94,10.06-5.85,2.5-2.64,4.41-5.87,5.46-9.35,2.07-6.85.05-14.7-6.91-17.79-8.94-3.96-18.33,2.09-25.07,7.62-9.48,7.78-18.73,15.86-28.09,23.79-1,.85-1.1,2.56-.47,3.64.72,1.23,2.06,1.6,3.39,1.38,6.3-1.04,12-5.26,15.09-10.82,3.27-5.89,3.3-12.83.62-18.94-2.17-4.95-10.02-14.49-15.85-8.82-2.33,2.26-2.67,5.67-2.65,8.74s.44,6.14.55,9.22c.05,1.4.07,2.83-.12,4.21.07-.49-.12.58-.11.53-.07.32-.15.64-.24.96-.24.83-.27.93-.7,1.68-.56.98-1.31,1.77-2.44,2.44-1.37.81-2.89,1.24-4.43,1.61-6.52,1.58-12.99,3-19.36,5.14-12.67,4.26-24.82,10.13-36,17.46-12.64,8.28-24.1,18.36-33.81,29.94-1.04,1.24-1.22,3.03,0,4.24,1.07,1.07,3.2,1.25,4.24,0h0Z" fill="#e700d0" stroke-width="0"/><path d="m1350.86,222.35c.07,14.82.13,29.64.2,44.46.03,7.29.09,14.57.09,21.86,0,6.71-.36,13.25-2.85,19.57-2.31,5.86-5.99,11.15-9.46,16.37-3.79,5.7-7.48,11.47-11.01,17.34-7.06,11.7-13.59,23.72-19.56,36.02-2.97,6.11-5.8,12.29-8.48,18.53-.71,1.66-1.42,3.32-2.11,4.98-.59,1.42-1.04,2.65-1.63,3.83-.23.46-.62,1.17-.83,1.45-.23.3-.58.64-.79.75.37-.19-.57.08-.37.09-.66-.05-1.29-.57-1.83-.93-2.58-1.74-5.01-3.32-7.99-4.35s-6.02-1.48-9.04-1.2c-5.8.52-11.06,3.49-13.79,8.76-2.39,4.59-2.84,10.51.21,14.92,3.61,5.22,9.95,6.8,15.78,8.21,6.97,1.68,13.98,3.18,21.03,4.48,6.53,1.2,13.28,2.14,19.85.68,5.74-1.27,10.64-4.63,13.89-9.52,2.84-4.28,4.33-9.71,3.85-14.84-1.03-11.12-10.53-19.34-21.48-20.09-2.58-.18-5.24.16-7.7.94-1.54.49-2.54,2.08-2.1,3.69.42,1.52,2.14,2.59,3.69,2.1,4.21-1.34,8.7-.87,12.58,1.1s7.03,5.19,8.32,9.16.92,8.55-.86,12.3c-2.05,4.31-5.24,7.44-9.95,8.9-5.56,1.73-11.58,1.02-17.21.03-6.68-1.17-13.32-2.59-19.92-4.14-2.98-.7-6.01-1.34-8.91-2.36-2.12-.74-4.46-2-5.67-3.66s-1.45-3.14-1.31-5.24c.07-.98-.06.28.03-.29.04-.26.09-.52.15-.77.12-.52.27-1.02.45-1.52.2-.57.87-1.84,1.47-2.69.98-1.37,2.54-2.66,4.49-3.39,2.29-.86,4.78-1.02,7.15-.64,2.74.44,5.33,1.5,7.65,3,2.71,1.75,5.19,3.97,8.68,3.2,2.76-.61,4.65-2.96,5.81-5.39,1.32-2.77,2.38-5.68,3.6-8.5,2.6-6.03,5.32-12,8.18-17.91,5.68-11.75,11.87-23.25,18.55-34.46,3.36-5.64,6.84-11.2,10.45-16.69s7.08-10.34,9.86-15.95c2.97-5.97,4.57-12.15,4.97-18.79s.14-13.8.1-20.68c-.06-14.07-.12-28.14-.19-42.21l-.05-10.49c-.02-3.86-6.02-3.87-6,0h0Z" fill="#ff0009" stroke-width="0"/><path d="m1356.23,308.55c12.22,10.24,22.88,22.26,31.59,35.61,8.7,13.35,15.48,27.92,19.99,43.21,2.52,8.51,4.37,17.27,5.41,26.06.18,1.48,1.01,2.76,2.6,2.95,1.42.17,2.94-.67,3.29-2.15,2.51-10.63,7.51-22.61,18.62-26.5,4.69-1.64,9.95-1.82,14.22.98,1.6,1.05,3.03,2.72,4.05,4.58.89,1.62,1.53,3.87,1.58,5.61.02.51-.02,1.01-.04,1.52-.03.94.07-.3-.02.25-.04.25-.09.49-.14.74-.12.54-.28,1.07-.48,1.58s.31-.6-.12.25c-.18.36-.38.72-.6,1.06-.45.72-1.28,1.62-2.22,2.38-1.16.92-2.5,1.65-3.82,2.31-6.22,3.12-12.76,5.71-19.13,8.52-6.63,2.93-13.26,5.86-19.88,8.79-4.91,2.17-11.83,5.95-16.99,3.06-1.04-.59-2.02-1.42-2.57-2.28-.64-.99-.94-1.97-.78-2.96s.89-2.04,1.75-2.89c.98-.97,2.07-1.71,3.24-2.47,6.82-4.39,13.72-8.65,20.58-12.97,3.26-2.05.25-7.25-3.03-5.18-6.86,4.32-13.77,8.58-20.58,12.97-2.65,1.7-5.4,3.71-6.85,6.59-1.61,3.18-1.46,6.93.49,9.94,1.84,2.85,4.84,4.99,8.13,5.81,3.66.91,7.58.28,11.11-.89,3.85-1.29,7.53-3.1,11.24-4.74s7.53-3.33,11.3-4.99c7.35-3.25,14.71-6.48,22.06-9.75,5.78-2.57,11.65-6.15,12.99-12.84,1.16-5.78-.8-11.78-4.69-16.14-4.13-4.64-10.58-6.55-16.66-5.88-7.5.83-14.27,4.81-18.97,10.66-4.95,6.17-7.78,13.65-9.58,21.29l5.89.8c-1.97-16.58-6.39-32.69-13.09-47.98s-15.43-29.12-26.07-41.67c-5.96-7.03-12.52-13.55-19.59-19.48-1.24-1.04-3.03-1.22-4.24,0-1.07,1.07-1.25,3.2,0,4.24h0Z" fill="#ff0009" stroke-width="0"/><path d="m1319.66,24.83c10.81-.75,21.62-1.5,32.43-2.25,2.35-.16,4.87-.51,7.2-.07.55.1,1.08.26,1.6.43.06.02.54.2.14.03.18.08.36.17.54.26.31.16.6.33.89.51.16.1.32.21.48.32.25.18-.2-.19.19.15.58.5,1.12,1.05,1.59,1.66-.28-.37.31.48.38.58.24.37.46.76.67,1.15.19.36.36.72.53,1.09.21.47-.13-.35.05.13.07.19.15.39.22.58.3.85.56,1.71.77,2.58.9,3.69,1.06,7.47.97,11.55-.05,2.12,1.95,3.19,3.8,2.89,17.73-2.89,35.57-5.08,53.47-6.56,5.07-.42,10.15-.78,15.23-1.09,3.86-.23,3.86-5.76,0-6-13.87-.86-27.76-.24-41.51,1.74-5.91.85-12.1,1.66-17.75,3.69s-9.81,5.16-12.03,10.58c-.93,2.26-1.32,4.59-2.78,6.48-1.19,1.55-3.72,1.85-5.85,1.92-6.93.21-13.88.17-20.81.25-7,.08-14,.2-21,.25-2.38.02-5.03.06-7.09-.91-2.22-1.04-3.08-3.07-3.62-5.38-.77-3.29-1.16-6.75-1.43-10.12s-.29-6.95.58-10.31c1.33-5.12,4.98-9.64,10.32-10.38,1.61-.22,2.48-2.27,2.1-3.69-.48-1.73-2.08-2.32-3.69-2.1-5.78.8-10.56,5.31-12.97,10.45-2.92,6.21-2.79,13.11-1.93,19.77.77,6.04,1.26,13.51,7.3,16.77,2.84,1.53,6.12,1.87,9.29,1.9,3.49.03,6.99-.07,10.48-.11,7.29-.09,14.58-.17,21.86-.26,3.54-.04,7.08-.03,10.62-.13,3.34-.1,6.66-.66,9.27-2.89,2.27-1.93,3.3-4.81,4.26-7.53.83-2.35,1.65-4.24,3.54-5.91,3.75-3.31,9.74-4.27,14.78-5.21,15.83-2.95,32-3.86,48.07-2.87v-6c-18.38,1.12-36.71,2.97-54.95,5.53-5.12.72-10.24,1.5-15.34,2.33l3.8,2.89c.17-7.59-.48-16.37-5.7-22.35-3.06-3.51-7.55-4.9-12.1-4.85-5.67.05-11.38.73-17.04,1.12-6.6.46-13.2.92-19.8,1.38-1.62.11-3,1.3-3,3,0,1.54,1.38,3.11,3,3h0Z" fill="#2d00e7" stroke-width="0"/><path d="m1437.06,42.14c-.41-.31.74.88.38.39.11.15.22.32.31.48-.02-.04.38.79.22.41.29.7.34,1.24.32,2.13-.04,1.46-.59,3.09-1.68,4.59-.03.04-.34.42-.64.72-.18.18-.37.36-.57.53-.43.37.55-.36-.25.19-.99.68-2.06,1.21-3.2,1.57-2.33.75-4.71.95-7.15.98-5.92.07-11.88-.43-17.79-.69-6.37-.28-12.74-.57-19.11-.85-7.2-.32-14.4-.64-21.59-.96-1.62-.07-3,1.43-3,3,0,1.68,1.37,2.93,3,3,14.06.63,28.13,1.25,42.19,1.88,3.47.15,6.95.31,10.42.46,2.91.13,5.83.28,8.73.03,5.66-.48,11.46-2.4,14.57-7.49,1.42-2.33,2.27-5.26,2.03-8-.27-3.16-1.66-5.65-4.17-7.56-1.29-.98-3.36-.2-4.1,1.08-.9,1.54-.22,3.12,1.08,4.1h0Z" fill="#2d00e7" stroke-width="0"/><path d="m1330.14,92.06c-7.37-1.96-14.3,5.59-13.63,12.75.37,3.97,2.96,7.46,6.92,8.48s7.69-.39,10.65-2.78c3.22-2.6,5.07-7,3.75-11.07-.48-1.49-2.1-2.61-3.69-2.1-1.49.48-2.61,2.09-2.1,3.69.1.3.17.6.24.91.13.58-.05-.78-.03-.19,0,.15.02.3.02.45s0,.3-.01.45c-.02.29-.19.64.04-.21-.09.33-.13.67-.24,1-.04.14-.11.28-.15.42.2-.79.19-.43.06-.17s-.28.53-.44.79c-.08.13-.17.25-.25.38-.16.23-.48.43.1-.12-.26.25-.47.55-.73.8-.22.22-.46.42-.7.63-.45.39.6-.42.11-.09-.13.09-.26.18-.39.27-.26.17-.53.33-.81.48-.14.07-.28.15-.42.21-.26.13-.87.24,0,.01-.6.15-1.16.4-1.77.51-.27.05-.7,0,.2-.02-.15,0-.3.03-.45.04-.35.02-.7.02-1.04,0-.3-.02-.61-.2.21.04-.14-.04-.29-.05-.43-.09-.29-.07-.56-.2-.85-.26.75.17.46.2.17.06-.13-.07-.27-.14-.4-.22s-.26-.17-.38-.25c-.42-.27.58.51,0-.02-.23-.2-.41-.47-.64-.67.54.46.3.41.11.13-.08-.12-.16-.25-.23-.37s-.14-.26-.2-.38c-.27-.49.26.72.07.19-.11-.32-.21-.63-.28-.96-.03-.14-.05-.28-.08-.42.21.91.06.5.04.22-.02-.29-.03-.58-.01-.87.01-.33.26-1.25,0-.23.09-.34.13-.68.22-1.02.08-.29.17-.58.28-.86.09-.24.35-.62-.07.15.07-.13.13-.28.19-.41.3-.6.68-1.12,1.04-1.69-.46.74-.25.32-.09.13.13-.15.26-.3.4-.45.24-.25.5-.48.76-.72.43-.38-.61.43-.14.1.16-.11.32-.23.49-.33.29-.18.59-.33.89-.48.51-.25-.72.26-.18.08.18-.06.36-.12.55-.17.14-.04.28-.07.42-.1.77-.15-.61.03-.09,0,.34-.02.68-.02,1.02,0,.58.02-.78-.16-.2-.03.2.04.4.08.6.14,1.51.4,3.33-.51,3.69-2.1s-.47-3.26-2.1-3.69h0Z" fill="#2d00e7" stroke-width="0"/><path d="m1373.94,89.62c-1.36-1.89-3.24-3.08-5.61-3.12-1.88-.03-3.78.7-5.29,1.8-3.74,2.73-5.37,7.22-3.33,11.52,3.94,8.28,17.67,9.07,23.8,3.05,4.09-4,3.46-11.54-2.31-13.57-1.53-.54-3.28.61-3.69,2.1-.46,1.66.56,3.15,2.1,3.69-.71-.25.45.39-.09-.09.12.1.22.21.33.32.38.36.02.05-.04-.05.07.13.16.28.24.41-.06-.1-.17-.58-.02-.06.04.15.08.32.14.47.18.52.04-.27.03.05s-.01.67,0,.99c.02.4.17-.42,0-.06-.07.14-.09.33-.13.48-.08.32.06-.1.08-.14-.07.15-.14.29-.23.43-.1.17-.21.35-.33.51.29-.38-.31.29-.31.3-.14.14-.29.28-.44.4.11-.09.37-.23-.12.07-.35.21-.7.41-1.05.61,0,0-.45.22-.2.11.28-.13-.3.12-.36.14-.44.16-.88.29-1.33.41-.4.1-.8.17-1.2.26-.57.12-.12.03,0,0-.18.02-.36.04-.54.05-.77.06-1.54.07-2.31.02-.18-.01-.36-.03-.55-.05-.48-.04.46.08-.02,0-.36-.06-.72-.12-1.07-.21-.31-.07-.61-.15-.91-.24-.17-.05-.34-.11-.51-.17-.07-.02-.86-.35-.27-.09-.64-.29-1.22-.64-1.81-1.02-.04-.03-.37-.29-.1-.07.29.23-.12-.11-.18-.17-.27-.26-.54-.53-.79-.81.4.46-.15-.24-.26-.42-.09-.15-.47-1.01-.25-.44-.11-.31-.18-.62-.28-.93.03.11.02.67.02.14,0-.17.03-.38,0-.54-.06-.39-.15.53-.03.15.04-.14.06-.28.1-.42s.11-.28.13-.41c.07-.39-.26.44-.05.11.14-.21.24-.46.37-.68.08-.12.17-.24.25-.37-.35.58-.03.05.09-.09.23-.25.5-.45.73-.7.27-.3-.43.26-.08.06.16-.09.3-.21.46-.31.12-.08.25-.15.38-.22.09-.05.65-.3.22-.12-.4.16.03,0,.13-.04.16-.05.33-.09.5-.14.48-.16-.09,0-.2,0,.2-.01.39-.02.59-.03.09,0,.32,0,.39.02l-.42-.05c.09.02.19.04.28.07.05.04.21.08.27.09-1.09-.23,0,.05-.03.05-.11,0-.47-.49-.14-.09.12.13.51.64.09.05.95,1.31,2.61,1.95,4.1,1.08,1.3-.76,2.03-2.78,1.08-4.1h0Z" fill="#2d00e7" stroke-width="0"/><path d="m1315.92,124.17c15.43,2.85,29.31,11.09,45.02,12.82,7.43.82,15.08.03,21.87-3.26,5.46-2.65,9.98-7.43,12.45-12.96,2.86-6.39,3.26-13.81-.49-19.95-2.01-3.29-7.2-.28-5.18,3.03,1.25,2.05,1.9,4.32,1.95,6.55.06,2.55-.36,4.58-1.38,7.13-.78,1.96-2.4,4.51-3.92,6.18-1.85,2.03-3.6,3.4-6.08,4.65-12.3,6.19-26.97,1.69-39.06-2.66-7.75-2.79-15.45-5.82-23.58-7.33-1.59-.29-3.24.44-3.69,2.1-.4,1.46.49,3.39,2.1,3.69h0Z" fill="#2d00e7" stroke-width="0"/><path d="m869.58,251.38c4.55-1.35,9.19-2.79,13.96-3.03,3.84-.2,7.47.35,10.78,2.25,2.94,1.68,4.98,4.1,5.72,7.4s.11,7.11-.36,10.38c-.55,3.92-1.09,7.81-.36,11.75s2.96,7.19,6.16,9.37c6,4.09,14.38,3.06,20.94,1.11,7.83-2.33,17.63-7.96,25.41-2.98l-1.49-2.59c.19,4.76.38,9.51.56,14.27.09,2.38.19,4.76.28,7.14.07,1.84.44,4.08-.32,5.83-.49,1.13-1.63,1.9-2.71,2.35-1.55.65-3.27.92-4.94,1.05-4.68.38-9.38-.16-14.03-.63-7.88-.79-15.77-1.02-23.11,2.41-3.24,1.51-6.06,3.84-8.07,6.8-2.4,3.53-3.15,7.86-3.4,12.04-.28,4.61-.24,9.25-.3,13.86-.06,4.91-.09,9.81-.1,14.72,0,9.65.11,19.29.33,28.94.11,4.82.25,9.64.42,14.46.13,3.67.31,7.33.12,11-.17,3.24-.51,5.99-1.6,9.19-.44,1.31-.91,2.35-1.79,3.71-.5.77-.52.79-1.03,1.36-.24.27-.49.53-.76.78-.15.14-.31.28-.46.42-.07.06-.37.31-.12.12-2.47,1.95-5.07,2.55-8.1,2.19.31.04-.52-.1-.68-.13-.38-.08-.76-.17-1.14-.28-.65-.18-1.65-.54-1.99-.69-1.36-.61-2.97-1.58-3.96-2.37-5.86-4.68-7.92-12.13-8.46-19.51-.31-4.18-.22-8.38-.16-12.57.07-4.81.1-9.62.07-14.44-.05-9.62-.28-19.25-.7-28.86s-.86-19.17-1.82-28.69c-.42-4.12-1.46-8.31-5.13-10.73s-8.42-2.04-12.5-1.79c-8.77.53-17.87,2.7-26.6.75-3-.67-5.72-2.02-7.96-3.96-.59-.51-1.15-1.05-1.69-1.62-.27-.28-.52-.57-.77-.87s-.47-.59-.55-.69c-.44-.61-.86-1.25-1.23-1.9-.18-.32-.36-.65-.52-.98-.09-.19-.18-.38-.27-.57.13.29-.02-.04-.06-.15-.26-.67-.47-1.35-.64-2.05-.08-.34-.15-.69-.2-1.03-.08-.5.03.41,0-.09-.01-.2-.03-.39-.04-.59-.01-.34-.01-.69,0-1.03,0-.2.02-.39.04-.58,0,.06-.07.43-.01.07.12-.73.3-1.45.58-2.13-.15.39.2-.39.27-.52.17-.32.36-.63.56-.93.26-.39.86-1.06,1.41-1.56.91-.83,2.3-1.62,3.44-2.03,3.26-1.18,6.3-1.36,9.78-1.35,4.36.02,8.73.36,13.09.59,4.77.24,9.55.49,14.32.73,4.28.22,8.9.57,12.63-1.97,6.46-4.4,6.76-12.96,5.87-19.95-.53-4.14-1.29-8.44-.07-12.53,1.11-3.71-4.68-5.29-5.79-1.6-1.74,5.84-.22,11.66.23,17.55.16,2.12.08,4.18-.32,5.97-.1.44-.21.87-.35,1.3-.18.56-.28.86-.41,1.13-.18.39-.39.77-.61,1.14-.38.62-.43.7-.77,1.04-.73.74-1.03,1.07-2.08,1.51s-2.2.55-3.32.58c-2.9.08-5.83-.2-8.72-.35-6.26-.32-12.51-.64-18.77-.96-8.87-.45-20.28-.35-25.23,8.54-4.52,8.12.33,17.76,7,22.99,4.02,3.15,8.51,4.7,13.56,5.3,5.88.7,11.79,0,17.65-.61,2.96-.31,5.92-.6,8.9-.69,2.17-.06,4.92-.3,6.81.88,1.66,1.03,2.07,2.91,2.38,4.87.37,2.41.48,5.35.67,7.96.92,12.58,1.52,25.18,1.79,37.79.14,6.22.19,12.44.17,18.67-.02,5.78-.25,11.58-.1,17.36s.72,11.14,2.69,16.31c1.83,4.78,4.64,8.79,8.73,11.9,3.59,2.73,8.08,4.53,12.63,4.52s9.1-2.02,12.14-5.46c5.9-6.66,6.37-16.43,6.12-24.89-.37-12.39-.77-24.77-.87-37.16s-.13-24.93.27-37.38c.15-4.68.84-9.44,4.15-12.65,2.84-2.76,6.84-4.12,10.96-4.78,4.82-.77,10.58-.04,15.7.47,5.63.56,11.7,1.15,17.22-.45,2.38-.69,4.76-1.89,6.35-3.83,1.89-2.32,2.42-5.11,2.38-8.04-.08-6.16-.48-12.33-.72-18.49-.06-1.48-.12-2.95-.17-4.43-.04-1.01-.03-1.96-.68-2.8-.55-.71-1.42-1.17-2.22-1.57-2.39-1.2-4.96-1.81-7.63-1.93-5.26-.23-10.49,1.42-15.38,3.15-2.2.78-4.37,1.62-6.63,2.23-2.08.56-4.11.96-5.97,1.09-2.08.15-4.09.07-5.72-.32-.4-.1-.81-.21-1.2-.34-.24-.08-.49-.16-.72-.26-.52-.21.59.31-.26-.13-.36-.18-.72-.37-1.06-.59-.21-.13-.43-.27-.63-.42-.17-.12-.16-.12,0,0-.12-.1-.23-.2-.35-.3-1.42-1.38-2.2-2.63-2.67-4.64-.41-1.76-.36-3.89-.17-5.99.41-4.47,1.62-9.22,1.18-13.91-.49-5.23-2.9-9.6-7.13-12.72-3.93-2.89-8.88-4.21-13.71-4.27-5.96-.07-11.77,1.6-17.43,3.28-3.69,1.1-2.12,6.89,1.6,5.79h0Z" fill="#e70006" stroke-width="0"/></g></svg>