<?xml version="1.0" encoding="UTF-8"?><svg id="Layer_2" xmlns="http://www.w3.org/2000/svg" viewBox="0 0 2019.58 823.16"><g id="Layer_1-2"><path d="m55.38,724.45c2.69,21.42,5.38,42.83,8.07,64.25.77,6.1,1.53,12.19,2.3,18.29.24,1.89,3.24,1.91,3,0-2.69-21.42-5.38-42.83-8.07-64.25-.77-6.1-1.53-12.19-2.3-18.29-.24-1.89-3.24-1.91-3,0h0Z" fill="#008a0d" stroke-width="0"/><path d="m137.95,756.88v44.25c0,1.93,3,1.93,3,0v-44.25c0-1.93-3-1.93-3,0h0Z" fill="#008a0d" stroke-width="0"/><path d="m199.1,768.96c2.13,12.85,4.27,25.69,6.4,38.54.32,1.9,3.21,1.09,2.89-.8-2.13-12.85-4.27-25.69-6.4-38.54-.32-1.9-3.21-1.09-2.89.8h0Z" fill="#008a0d" stroke-width="0"/><path d="m1.31,774.22c-3.63,12.24.58,24.69,8.89,33.98,1.29,1.44,3.41-.69,2.12-2.12-7.61-8.51-11.44-19.87-8.12-31.06.55-1.85-2.34-2.65-2.89-.8h0Z" fill="#008a0d" stroke-width="0"/><path d="m210.21,716.53c10.76,23.01,21.53,46.03,32.29,69.04,3.03,6.47,6.05,12.94,9.08,19.4.82,1.75,3.4.23,2.59-1.51-10.76-23.01-21.53-46.03-32.29-69.04-3.03-6.47-6.05-12.94-9.08-19.4-.82-1.75-3.4-.23-2.59,1.51h0Z" fill="#008a0d" stroke-width="0"/><path d="m266.39,778.54c5.81,6.01,11.62,12.02,17.43,18.04,1.34,1.39,3.46-.73,2.12-2.12-5.81-6.01-11.62-12.02-17.43-18.04-1.34-1.39-3.46.73-2.12,2.12h0Z" fill="#008a0d" stroke-width="0"/><path d="m334.53,691.6c-6.2,24.03-9.58,48.8-9.83,73.63-.07,7.06.12,14.11.54,21.15.12,1.92,3.12,1.93,3,0-1.48-24.58.06-49.31,4.61-73.52,1.29-6.87,2.82-13.7,4.57-20.46.48-1.87-2.41-2.67-2.89-.8h0Z" fill="#008a0d" stroke-width="0"/><path d="m375.45,780.48v17.7c0,1.93,3,1.93,3,0v-17.7c0-1.93-3-1.93-3,0h0Z" fill="#008a0d" stroke-width="0"/><path d="m431.51,769.56c11.59,6.06,22.79,17.39,20.97,31.53-.25,1.91,2.76,1.89,3,0,1.95-15.13-10.02-27.62-22.46-34.12-1.71-.89-3.23,1.69-1.51,2.59h0Z" fill="#008a0d" stroke-width="0"/><path d="m475.75,721.48c1.07,22.85,5.19,45.51,12.07,67.32,1.98,6.27,4.19,12.47,6.6,18.59.7,1.78,3.6,1,2.89-.8-8.35-21.21-14.22-43.43-16.97-66.07-.77-6.33-1.3-12.68-1.6-19.04-.09-1.92-3.09-1.93-3,0h0Z" fill="#008a0d" stroke-width="0"/><path d="m535.57,727.37c.79,20.23,5.48,40.11,13.37,58.73,2.33,5.5,4.94,10.88,7.78,16.14.92,1.7,3.51.19,2.59-1.51-9.58-17.71-16.32-36.93-19.25-56.88-.8-5.46-1.28-10.96-1.5-16.48-.07-1.92-3.08-1.93-3,0h0Z" fill="#008a0d" stroke-width="0"/><path d="m581.42,781.54c3.04,3.93,6.09,7.87,9.13,11.8.5.64,1.6.52,2.12,0,.63-.63.5-1.48,0-2.12-3.04-3.93-6.09-7.87-9.13-11.8-.5-.64-1.6-.52-2.12,0-.63.63-.5,1.48,0,2.12h0Z" fill="#008a0d" stroke-width="0"/><path d="m612.29,712.65c2.15,27.95,8.62,55.46,18.8,81.56,2.96,7.58,6.22,15.04,9.74,22.37.84,1.74,3.42.22,2.59-1.51-12.09-25.11-20.83-51.83-25.36-79.34-1.26-7.65-2.18-15.35-2.77-23.08-.15-1.91-3.15-1.93-3,0h0Z" fill="#008a0d" stroke-width="0"/><path d="m664.51,796.15c4.57,2.95,9.13,5.9,13.7,8.85,1.63,1.05,3.13-1.55,1.51-2.59-4.57-2.95-9.13-5.9-13.7-8.85-1.63-1.05-3.13,1.55-1.51,2.59h0Z" fill="#008a0d" stroke-width="0"/><path d="m710.2,781.67c3.34,1.3,6.5,3.25,8.91,5.93,1.92,2.14,3.25,4.84,3.31,7.62.04,1.93,3.04,1.93,3,0-.16-8.11-7.49-13.75-14.41-16.45-.76-.29-1.65.32-1.85,1.05-.23.85.29,1.55,1.05,1.85h-.01Z" fill="#008a0d" stroke-width="0"/><path d="m772.84,778.32c4.06,8.95,8.12,17.89,12.18,26.84.8,1.76,3.38.23,2.59-1.51-4.06-8.95-8.12-17.89-12.18-26.84-.8-1.76-3.38-.23-2.59,1.51h0Z" fill="#008a0d" stroke-width="0"/><path d="m832.86,725.09c9.24,19.19,18.48,38.39,27.72,57.58,2.62,5.45,5.25,10.9,7.87,16.36.84,1.74,3.42.22,2.59-1.51-9.24-19.19-18.48-38.39-27.72-57.58-2.62-5.45-5.25-10.9-7.87-16.36-.84-1.74-3.42-.22-2.59,1.51h0Z" fill="#008a0d" stroke-width="0"/><path d="m934.04,796.13c4.48,3,8.96,6.01,13.44,9.01.67.45,1.66.13,2.05-.54.43-.74.14-1.6-.54-2.05-4.48-3-8.96-6.01-13.44-9.01-.67-.45-1.66-.13-2.05.54-.43.74-.14,1.6.54,2.05h0Z" fill="#008a0d" stroke-width="0"/><path d="m1011.05,775.87c3.04,1.97,6.09,3.93,9.13,5.9.66.43,1.69.16,2.05-.54.39-.75.17-1.6-.54-2.05-3.04-1.97-6.09-3.93-9.13-5.9-.66-.43-1.69-.16-2.05.54-.39.75-.17,1.6.54,2.05h0Z" fill="#008a0d" stroke-width="0"/><path d="m1068.3,715.63c16.52,18.75,29.18,41.16,34.27,65.78,1.35,6.5,2.13,13.1,2.36,19.74.07,1.93,3.07,1.93,3,0-.86-24.96-9.71-48.98-23.56-69.62-4.23-6.31-8.92-12.32-13.94-18.02-1.28-1.45-3.39.68-2.12,2.12h-.01Z" fill="#008a0d" stroke-width="0"/><path d="m1170.22,786.78c2.74,10.85,5.47,21.7,8.21,32.55.47,1.87,3.37,1.08,2.89-.8-2.74-10.85-5.47-21.7-8.21-32.55-.47-1.87-3.37-1.08-2.89.8h0Z" fill="#008a0d" stroke-width="0"/><path d="m1253.4,796.27c2.35,1.13,4.67,2.76,6.11,4.78.7.99,1.16,1.86,1.46,2.89.32,1.1.4,1.83.26,3.08-.09.81.75,1.5,1.5,1.5.88,0,1.41-.69,1.5-1.5.65-6.02-4.32-10.93-9.32-13.33-.73-.35-1.62-.2-2.05.54-.38.66-.2,1.7.54,2.05h0Z" fill="#008a0d" stroke-width="0"/><path d="m1283.69,715.26c16.3,23.43,29.64,48.97,38.61,76.1,2.41,7.28,4.49,14.66,6.26,22.11.44,1.88,3.34,1.08,2.89-.8-6.47-27.35-17.4-53.55-31.61-77.77-4.24-7.23-8.78-14.28-13.56-21.16-1.09-1.57-3.7-.08-2.59,1.51h0Z" fill="#008a0d" stroke-width="0"/><path d="m1398.89,783.77c1.62,3.92,3.24,7.83,4.86,11.75.31.75,1,1.28,1.85,1.05.71-.19,1.36-1.09,1.05-1.85-1.62-3.92-3.24-7.83-4.86-11.75-.31-.75-1-1.28-1.85-1.05-.71.19-1.36,1.09-1.05,1.85h0Z" fill="#008a0d" stroke-width="0"/><path d="m1473.18,720.16c5.15.1,9.98,1.89,13.81,5.36,3.27,2.97,5.65,6.75,7.49,10.73,2.96,6.39,5.62,12.92,8.43,19.38,2.97,6.85,5.94,13.69,8.91,20.54,3.3,7.61,6.6,15.22,9.9,22.82.77,1.77,3.35.24,2.59-1.51-6.14-14.15-12.28-28.3-18.42-42.45-2.92-6.72-5.7-13.51-8.76-20.17-1.91-4.15-4.43-8.12-7.79-11.25-4.45-4.14-10.09-6.33-16.16-6.45-1.93-.04-1.93,2.96,0,3h0Z" fill="#008a0d" stroke-width="0"/><path d="m1560.05,787.15c9.49,6.98,18.24,14.97,25.8,24.02,1.24,1.48,3.35-.65,2.12-2.12-7.73-9.25-16.71-17.35-26.41-24.49-1.56-1.15-3.05,1.46-1.51,2.59h0Z" fill="#008a0d" stroke-width="0"/><path d="m1610.12,787.75c5.87-.15,11.86,1.06,17.05,3.85,3.93,2.11,7.88,5.34,8.81,9.94.38,1.89,3.27,1.09,2.89-.8-1.05-5.2-5.42-9.09-9.87-11.56-5.72-3.16-12.37-4.6-18.89-4.43-1.93.05-1.93,3.05,0,3h0Z" fill="#008a0d" stroke-width="0"/><path d="m1678.14,781.54c9.59,4.48,19.18,12.1,21.51,22.97.4,1.89,3.3,1.09,2.89-.8-2.48-11.59-12.62-19.97-22.89-24.77-1.74-.81-3.26,1.77-1.51,2.59h0Z" fill="#008a0d" stroke-width="0"/><path d="m1773.1,736.63c4.57,15.73,9.13,31.47,13.7,47.2.54,1.85,3.43,1.06,2.89-.8-4.57-15.73-9.13-31.47-13.7-47.2-.54-1.85-3.43-1.06-2.89.8h0Z" fill="#008a0d" stroke-width="0"/><path d="m1459.4,790.83c1.93,0,1.93-3,0-3s-1.93,3,0,3h0Z" fill="#008a0d" stroke-width="0"/><path d="m1458.54,790.3c3.04,2.95,6.09,5.9,9.13,8.85.56.55,1.57.6,2.12,0s.6-1.54,0-2.12c-3.04-2.95-6.09-5.9-9.13-8.85-.56-.55-1.57-.6-2.12,0s-.6,1.54,0,2.12h0Z" fill="#008a0d" stroke-width="0"/><path d="m335.36,218.36c-11.34,1.98-23,.61-34.4-.05-10.42-.61-21.63-1.08-31.38,3.28-9.4,4.2-14.35,13.5-17.77,22.73-2.76,7.46-4.2,15.42-4.23,23.38-.06,16.47,5.89,32.45,15.08,45.96,10.71,15.75,25.53,28.44,41.86,38.09,20.16,11.9,43.14,19.72,66.34,22.79,13.25,1.75,26.61,1.55,39.77-.82,12.18-2.19,23.95-6.14,35.3-11.02s21.44-10.22,31.83-15.96c5.24-2.89,10.44-5.91,15.21-9.55,4.12-3.14,8.08-6.81,10.55-11.43,5.83-10.92-.27-22.79-6.32-32.15-4.98-7.7-10.92-14.77-17.46-21.18-14.67-14.4-32.24-25.73-50.73-34.58-20.89-9.99-43.19-16.97-65.95-21.16-5.85-1.08-11.73-1.96-17.63-2.68-1.91-.23-1.9,2.77,0,3,22.98,2.8,45.68,8.42,67.21,16.95,19.21,7.62,37.71,17.66,53.81,30.67,7.25,5.86,14.03,12.33,20.01,19.48,2.73,3.27,5.29,6.68,7.64,10.24,2.98,4.52,5.84,9.29,7.53,14.45,1.81,5.51,1.82,11.24-1.2,16.32-2.64,4.45-6.75,7.94-10.92,10.91-4.81,3.42-9.97,6.32-15.14,9.15s-9.95,5.37-15,7.92c-21.69,10.93-44.93,19.37-69.48,19.64-13.2.15-26.34-1.88-39.09-5.22-10.83-2.83-21.42-6.58-31.55-11.36-17.44-8.24-33.65-19.52-46.36-34.12-10.68-12.27-18.8-27.11-21.44-43.29s.46-31.97,8.87-45.16c2.89-4.53,6.95-7.97,11.99-9.9,4.65-1.78,9.63-2.45,14.59-2.65,11.08-.46,22.12,1.1,33.19,1.29,5.38.09,10.78-.14,16.09-1.07,1.9-.33,1.09-3.22-.8-2.89h-.02Z" fill="#ff0012" stroke-width="0"/><path d="m375.44,379.26c.02,18.48.04,36.95.07,55.43,0,5.4-.29,11.25-3.69,15.73-4.22,5.56-11.93,7.13-18.54,6.71-7.51-.47-14.78-3.31-21.4-6.74-7.46-3.87-14.41-8.75-21.48-13.27-15.56-9.95-31.12-19.91-46.68-29.86s-31.26-19.99-46.89-29.99c-1.96-1.26-3.93-2.51-5.89-3.77-1.63-1.04-3.14,1.55-1.51,2.59,16.05,10.27,32.1,20.53,48.15,30.8s32.1,20.53,48.15,30.8c7.45,4.77,14.78,9.88,22.53,14.16,6.71,3.71,14.01,6.82,21.65,7.92,7.21,1.03,15.19.24,21.12-4.37,4.81-3.73,6.78-9.46,7.3-15.34.32-3.68.17-7.4.17-11.08l-.02-14.17c-.01-9.53-.02-19.06-.03-28.58v-6.96c-.01-1.93-3.01-1.93-3.01,0h0Z" fill="#ff0012" stroke-width="0"/><path d="m376.83,454.19c29.88-3.85,59.38-10.77,87.68-21.13,25.85-9.47,50.83-21.74,73.39-37.58,11.43-8.03,22.25-16.97,32.02-26.96.99-1.01.18-2.41-1.06-2.56-9.88-1.2-20.34-4.12-28.4-10.2-3.04-2.3-5.92-5.32-7.18-8.99-1.1-3.2-.44-6.54,1.24-9.41,4.41-7.52,13.9-11.17,22.28-11.16,8.86,0,18.36,3.96,23.04,11.81,6.39,10.72-1.95,22.84-7.81,31.76-1.08,1.65,1.46,3.02,2.59,1.51,6.22-8.33,12.43-16.66,18.65-24.98,1.58-2.12,3.16-4.24,4.74-6.36,1.35-1.81,2.63-3.72,4.2-5.36,2.62-2.74,6.17-5.22,10.03-5.66,1.91-.22,3.96.12,5.56,1.23s2.44,2.84,3.25,4.5c1.85,3.77,3.02,7.94,3.03,12.16.01,8.25-4.8,15.03-11.61,19.29-8.16,5.1-18.16,7.12-27.68,6.04l.4,2.95c11.86-3.85,23.94-7.64,36.51-7.94,5.42-.13,10.86.49,16.08,1.99,4.3,1.24,8.76,3.1,11.97,6.32,2.53,2.54,3.86,5.96,2.49,9.43-1.51,3.83-5.24,6.56-8.71,8.49-9.77,5.41-21.42,6.05-32.17,3.71-11.51-2.51-22.15-8.34-30.82-16.25l-.66,2.51c11.47-3.35,22.81,3.83,31.97,9.9,4.77,3.15,9.52,6.5,13.42,10.71,2.91,3.15,5.75,7.28,5.51,11.76-.48,8.96-10.5,14.27-18.45,14.61-10.39.45-18.96-5.37-25.23-13.19-4.22-5.27-7.93-11.04-11.48-16.78-3.77-6.11-7.24-12.42-10.38-18.88-.84-1.74-3.43-.22-2.59,1.51,5.97,12.31,13.09,24.3,21.45,35.15,6.52,8.47,15.45,14.99,26.5,15.21,9.45.19,20.36-5.08,22.78-14.95,2.62-10.69-8.1-19.36-15.71-24.8-10.74-7.67-24.72-17.21-38.6-13.16-1.04.3-1.52,1.73-.66,2.51,16.77,15.3,42.6,24.25,64.27,14.21,7.41-3.43,16.45-11.12,11.9-20.17-2.06-4.09-6.24-6.86-10.3-8.67-5.15-2.3-10.72-3.51-16.33-3.99-14.9-1.27-29.57,3.31-43.56,7.86-1.69.55-1.24,2.76.4,2.95,16.83,1.92,39.89-6.34,42.13-25.55.53-4.53-.29-9.18-1.94-13.4-1.54-3.94-3.5-8.09-7.73-9.65-4.2-1.55-8.82-.22-12.47,2.08-3.99,2.51-6.58,6.09-9.35,9.81-7.8,10.45-15.59,20.89-23.39,31.34l2.59,1.51c5.97-9.08,13.83-20.86,9.14-32.13-3.81-9.15-13.47-14.54-22.97-15.7s-20.75,2.03-27.08,9.86c-2.5,3.09-4.27,6.97-3.97,11.03s2.62,7.86,5.46,10.78c3.95,4.06,9.06,6.86,14.26,8.99,6.2,2.54,12.76,4.04,19.4,4.85l-1.06-2.56c-17.82,18.22-39,32.91-61.45,44.84-25.1,13.34-51.95,23.28-79.46,30.35-16.46,4.23-33.2,7.44-50.06,9.61-1.89.24-1.91,3.25,0,3h-.01Z" fill="#ff0012" stroke-width="0"/><path d="m207.38,384.03c-5.55,2.97-9.49,7.73-13.07,12.78-3.22,4.55-6.37,9.49-11.26,12.43-5.96,3.57-14,3.83-20.12.51-2.67-1.45-5.23-3.66-6.34-6.57-1.03-2.71-.31-5.33,1.46-7.55,2.57-3.22,6.5-5.27,10.3-6.65,4.63-1.69,9.53-2.56,14.45-2.76,1.43-.06,2.11-2.05.76-2.8-9.91-5.45-19.32-11.86-27.71-19.46-3.84-3.47-7.47-7.19-10.8-11.14-1.62-1.92-3.17-3.9-4.63-5.94-1.35-1.88-2.79-3.82-3.66-5.98-.77-1.92-1.08-4.09.41-5.75,1.39-1.55,3.59-2.24,5.59-2.5,4.78-.63,9.82.65,14.27,2.31,4.95,1.85,9.7,4.49,14.22,7.19s9.03,5.83,13.15,9.27c8.16,6.82,15.23,15.03,19.76,24.7l2.59-1.51c-8.85-15.82-14.09-33.58-14.16-51.77-.02-5.01.34-10.03,1.09-14.99l-2.74.36c10.78,14.15,17.6,31.27,17.22,49.23-.1,4.85-.73,9.65-1.83,14.37-.27,1.14.71,2.1,1.85,1.85,11.59-2.63,25.43-11.02,26.04-24.3.14-3.11-.67-6.17-2.15-8.9l-2.05,2.05c5.13,2.67,9.76,6.62,12.1,12.03,1.96,4.52,1.94,9.75-.24,14.19-1.42,2.9-3.56,5.29-6.05,7.31-1.5,1.21.63,3.32,2.12,2.12,4.72-3.81,8.07-9.15,8.57-15.28s-1.93-11.57-5.76-15.93c-2.56-2.92-5.78-5.24-9.22-7.03-1.33-.69-2.79.7-2.05,2.05,5.46,10.02-2.87,20.11-11.41,24.82-3.35,1.85-6.96,3.12-10.68,3.97l1.85,1.85c4.13-17.7,1.31-36.11-6.98-52.2-2.49-4.82-5.43-9.39-8.72-13.71-.67-.88-2.53-1.08-2.74.36-2.75,18.3-.48,36.99,6.3,54.19,2.02,5.11,4.39,10.08,7.07,14.87.96,1.71,3.4.21,2.59-1.51-4.3-9.17-10.9-17.15-18.47-23.8-8.52-7.48-18.49-13.81-28.97-18.16-4.73-1.96-10.03-3.35-15.18-3.11-4.4.21-10.01,2.07-10.89,7.04s3.03,9.75,5.82,13.47c3.28,4.37,6.88,8.48,10.77,12.32,9.51,9.4,20.54,17.21,32.25,23.64l.76-2.8c-8.66.35-18.38,2.49-25.04,8.39-2.5,2.21-4.57,5.25-4.68,8.69s1.65,6.48,3.95,8.79c5.73,5.75,14.77,7.19,22.38,4.98,6.39-1.86,10.84-6.5,14.65-11.73,4.3-5.91,8.19-12.16,14.83-15.71,1.7-.91.19-3.5-1.51-2.59h-.06Z" fill="#ff0012" stroke-width="0"/><path d="m369.45,457.93c-9.17,19.7-20.6,38.3-33.66,55.66-14,18.6-29.92,35.74-47.06,51.47-10.24,9.39-20.94,18.29-32.01,26.69-1.13.86-.85,2.76.76,2.8,32.83.77,65.64,1.98,98.44,3.63,32.73,1.65,65.44,3.73,98.12,6.26,18.37,1.42,36.73,2.98,55.08,4.68,1.92.18,1.91-2.82,0-3-32.59-3.02-65.21-5.6-97.87-7.74-32.73-2.15-65.5-3.85-98.28-5.12-18.49-.71-36.99-1.29-55.49-1.72l.76,2.8c19.53-14.82,37.96-31.1,54.72-49,15.5-16.56,29.59-34.5,41.62-53.74,6.47-10.35,12.33-21.08,17.48-32.14.81-1.74-1.78-3.26-2.59-1.51h0l-.02-.02Z" fill="#00078b" stroke-width="0"/><path d="m373.64,458.19c21.13,17.31,41.58,35.46,61.19,54.49s36.85,37.29,53.95,57.15c9.36,10.87,18.45,21.99,27.22,33.35.5.65,1.28.98,2.05.54.64-.36,1.03-1.41.54-2.05-15.77-20.43-32.51-40.1-50.11-58.97s-37.41-38.31-57.31-56.22c-11.56-10.41-23.37-20.53-35.41-30.39-1.48-1.21-3.62.9-2.12,2.12h0v-.02Z" fill="#00078b" stroke-width="0"/><path d="m356.7,521.86c-3.81,3.7-7.84,7.14-12.03,10.39l3.04-2.35c-17.88,13.8-38.2,24.14-58.5,33.86-5.99,2.86-12,5.67-18.01,8.47l-3.04,2.35c-1.46,1.36-2.5,2.97-3.1,4.83-1.26,2.98-1.78,6.6-.76,9.77.8,2.47,2.1,4.7,3.86,6.62,2.49,2.72,6.96,4.45,10.61,4.39,25.57-.41,51.14-.42,76.7-.02,25.46.4,50.92,1.19,76.36,2.39,14.31.68,28.62,1.48,42.92,2.41l3.99-.54c1.95-.46,3.65-1.36,5.1-2.68,2.48-1.91,4.66-4.65,5.38-7.79.6-2.64.6-5.34,0-7.98-.85-3.71-3.78-6.98-6.89-8.96-7.06-4.5-13.92-9.3-20.56-14.41l3.04,2.35c-12.14-9.38-23.49-19.81-33.6-31.36-2.72-3.1-5.34-6.29-7.87-9.55l2.35,3.04c-9.13-11.83-16.94-24.68-22.78-38.45l1.51,3.58c-2.27-5.37-4.23-10.87-5.85-16.47-.91-3.16-2.79-5.79-5.38-7.79s-5.8-3.37-9.09-3.22c-2.66.12-5.21.8-7.57,2.05-3.29,1.74-5.88,5.47-6.89,8.96-4.77,16.45-9.55,32.9-14.32,49.36-1.2,4.13-2.4,8.27-3.6,12.4-1.36,4.67-2.47,9.32-2.76,14.21-.17,2.89.23,5.95.91,8.74s1.87,5.67,3.54,8.04c2.84,4.06,6.39,7.51,10.85,9.77,5.33,2.71,10.43,4.04,16.38,4.53,2.87.24,5.73-.21,8.56-.67s5.4-1.62,7.92-2.85c3.23-1.57,5.97-5.6,6.89-8.96.99-3.59.54-8.37-1.51-11.56s-5.14-6.02-8.96-6.89l-3.99-.54c-2.71,0-5.23.69-7.57,2.05-.29.14-.58.27-.87.4l3.58-1.51c-1.23.49-2.49.8-3.79.98l3.99-.54c-1.82.22-3.63.19-5.44-.05l3.99.54c-2.16-.31-4.25-.88-6.26-1.72l3.58,1.51c-1.56-.68-3.03-1.5-4.38-2.54l3.04,2.35c-.81-.65-1.55-1.35-2.2-2.17l2.35,3.04c-.62-.83-1.13-1.72-1.55-2.66l1.51,3.58c-.47-1.13-.78-2.28-.96-3.49l.54,3.99c-.22-1.74-.15-3.46.07-5.2l-.54,3.99c.62-4.24,2.03-8.36,3.22-12.46,1.36-4.69,2.72-9.38,4.08-14.07,2.7-9.3,5.4-18.6,8.09-27.9,1.52-5.25,3.04-10.49,4.57-15.74h-28.93c5.23,18.06,13.69,35.3,24.42,50.71,11.8,16.94,25.84,32.18,41.67,45.41,9.98,8.34,20.49,16.08,31.46,23.08l7.57-27.95c-25.47-1.66-50.97-2.91-76.48-3.76-25.47-.85-50.95-1.29-76.43-1.33-14.36-.02-28.72.08-43.08.31l7.57,27.95c24.89-11.59,50.31-23.13,72.59-39.38,6.63-4.84,13.1-9.96,18.99-15.68,2.73-2.66,4.39-6.82,4.39-10.61s-1.63-8.07-4.39-10.61-6.61-4.57-10.61-4.39-7.68,1.55-10.61,4.39h-.03Z" fill="#00078b" stroke-width="0"/><path d="m327.44,606.45c.49,21.52,2.83,43,6.93,64.13,2.06,10.64,4.57,21.19,7.51,31.62,1.48,5.26,3.07,10.5,4.77,15.7.85,2.61,1.73,5.22,2.64,7.81.84,2.41,1.84,4.8,2.45,7.28.48,1.94.5,3.71-.72,5.37.41-.56-.31.3-.42.41-.12.12-.24.23-.37.34-.06.06-.48.39-.19.17s-.15.1-.22.15c-.15.1-.29.2-.44.29-.35.21-.7.41-1.07.59-.21.1-.42.2-.63.3-.44.2.38-.15-.08.03-.37.14-.74.27-1.11.39-.83.26-1.69.48-2.54.64-1.07.21-1.22.23-2.27.33s-2.03.14-3.05.15c-3.92.03-7.25-.41-11.04-1.55-4.33-1.31-8.32-3.55-12.19-5.83-4.12-2.44-8.18-5.01-12.54-7.01-3.75-1.72-7.65-3.05-11.7-3.87-7.94-1.61-16.05-1.56-24.04-.36s-15.16,3.5-22.1,6.95c-6.05,3-11.91,7.02-16.21,12.28s-6.78,11.6-6.7,18.47c.09,7.39,3.06,14.48,7.35,20.39,10.76,14.82,27.88,23.76,44.9,29.41,19.48,6.47,40.08,9.21,60.48,10.76,10.02.76,20.15,1.52,30.21,1.35,8.34-.14,18.67-.91,24.85-7.29,6.79-7,3.05-16.63-1.2-23.87-5.68-9.67-11.52-19.25-17.28-28.88-2.82-4.71-5.64-9.42-8.45-14.12-1.98-3.31-7.17-.3-5.18,3.03,5.72,9.56,11.44,19.12,17.16,28.68,2.79,4.67,5.61,9.33,8.38,14.01,1.93,3.25,3.93,6.88,4.33,10.47.16,1.42.01,3.08-.47,4.16-.77,1.72-2.09,2.97-3.4,3.83-3.11,2.03-6.88,2.95-10.72,3.46-9.15,1.23-18.83.36-28.08-.16-19.93-1.12-39.96-3.17-59.3-8.32-17.07-4.54-34.39-11.62-46.84-24.6-4.84-5.05-8.75-10.93-10.22-17.69-.08-.39-.16-.78-.23-1.17-.02-.11-.17-1.24-.11-.67-.1-.88-.17-1.76-.18-2.65-.01-.79,0-1.58.07-2.36.03-.39.07-.79.12-1.18-.06.52.12-.69.15-.83.29-1.55.75-3.05,1.29-4.53.19-.52.02-.06-.02.04.07-.15.13-.3.2-.45.14-.3.28-.59.43-.89.34-.67.72-1.32,1.12-1.96.37-.58.77-1.14,1.17-1.7.06-.09.34-.45,0-.02.11-.14.22-.28.33-.41.25-.31.51-.62.77-.92,1-1.14,2.08-2.22,3.21-3.23,2.34-2.1,4.73-3.76,7.75-5.5,6.27-3.61,12.86-5.96,20.12-7.44,6.93-1.42,15.05-1.86,21.92-.83,3.63.55,7.22,1.43,10.65,2.74,4.26,1.62,8.2,3.98,12.09,6.32,4.18,2.51,8.36,4.96,12.88,6.83,3.72,1.55,7.57,2.43,11.57,2.85,6.87.73,15.81.23,21-4.98,3.59-3.61,3.6-8.56,2.13-13.14-1.62-5.06-3.52-10.03-5.15-15.09-3.26-10.14-6.13-20.42-8.56-30.79-4.8-20.42-7.93-41.22-9.26-62.16-.32-5.09-.54-10.19-.65-15.29-.09-3.85-6.09-3.87-6,0h0Z" fill="#ff00fb" stroke-width="0"/><path d="m425.34,611.6c-4.89,32.24-6.74,64.91-5.29,97.49.41,9.18,1.08,18.35,1.99,27.49.13,1.33.84,2.52,2.2,2.89,1.2.33,2.83-.19,3.39-1.38.39-.83.84-1.63,1.35-2.39.13-.19.27-.38.41-.57-.43.6.03-.04.11-.13.36-.43.73-.85,1.12-1.25.69-.71,1.44-1.37,2.22-1.99-.53.43.14-.1.21-.15.21-.15.42-.3.64-.45.51-.35,1.03-.69,1.56-1.01.86-.52,1.75-1.01,2.66-1.45,1.33-.66,1.88-.89,2.99-1.31,2.39-.92,4.86-1.64,7.36-2.22,10.03-2.31,21.29-2.33,31.32.06,11.09,2.64,21.26,8.74,28.33,17.67,5.98,7.55,9.4,17.52,9.74,26.98.18,5.12-.29,9.08-1.76,13.92-1.35,4.45-3.76,9.08-6.7,12.64-7.71,9.32-19.19,14.14-31.03,16.13-13.12,2.2-26.89,1.07-39.78-1.97-12.47-2.94-25.41-7.82-34.97-16.6-2-1.84-3.74-3.73-5.1-5.8-.68-1.04-1.29-2.12-1.8-3.25-.4-.89.18.52-.16-.39-.1-.28-.2-.55-.3-.83-.21-.64-.39-1.3-.53-1.96-.06-.28-.11-.56-.15-.85.1.66-.02-.27-.02-.34-.04-.52-.05-1.04-.04-1.57.03-1.28.07-1.61.49-3.07.17-.58.36-1.15.59-1.7-.24.58.14-.28.16-.32.12-.26.26-.52.39-.77.61-1.14,1.31-2.23,2.07-3.28,2.71-3.77,6.84-7.71,10.18-11.53,3.18-3.62,6.57-7.82,7.38-12.72.4-2.43.24-4.88-.67-7.18-.6-1.5-2-2.56-3.69-2.1-1.43.39-2.7,2.18-2.1,3.69.2.51.38,1.02.51,1.55.06.25.11.51.16.77-.12-.63.01.25.02.47.02.5,0,1-.06,1.5.05-.54,0-.05-.05.2-.06.29-.13.58-.21.87-.07.25-.15.49-.23.74-.04.11-.28.77-.17.5s-.22.49-.29.62c-.14.29-.29.57-.44.85-.58,1.05-1.24,2.05-1.95,3.02-.07.09-.5.67-.26.35-.22.28-.44.56-.67.84-.43.53-.87,1.04-1.31,1.56-.88,1.02-1.79,2.01-2.71,2.99-1.93,2.08-3.89,4.13-5.72,6.29-3.64,4.3-6.8,8.99-7.36,14.73-.54,5.44,1.73,10.81,4.97,15.06,8.36,10.95,21.95,17.41,34.82,21.38,13.5,4.16,28,6.12,42.11,5.06,13.53-1.02,27.22-4.92,37.59-14.02,8.53-7.49,13.49-18.06,14.58-29.28,1.03-10.58-1.5-21.63-6.78-30.83-6.38-11.11-16.83-19.19-28.71-23.72-10.53-4.02-22.51-4.84-33.63-3.45-9.96,1.25-21.19,4.18-28.29,11.8-1.44,1.54-2.7,3.29-3.6,5.2l5.59,1.51c-3.21-32.15-3.29-64.59-.2-96.75.85-8.91,1.95-17.79,3.29-26.63.24-1.6-.4-3.23-2.1-3.69-1.42-.39-3.45.48-3.69,2.1h0l.02-.02Z" fill="#ff00fb" stroke-width="0"/><path d="m287.33,280.86c1.92-2.08,3.91-3.36,6.72-4.65,1.03-.48,2.59-1.04,3.99-1.46,1.57-.47,3.18-.84,4.8-1.12,6.25-1.09,13.07-.75,19.2,1.44l-.72-5.48c-10.63,6.92-25.17,8.42-37.47,5.69-1.58-.35-3.25.48-3.69,2.1-.41,1.5.51,3.34,2.1,3.69,7.44,1.65,15.07,1.78,22.6.67,6.83-1,13.68-3.18,19.5-6.96,2.25-1.46,1.73-4.61-.72-5.48-7.12-2.55-14.99-2.73-22.39-1.44-6.57,1.15-13.55,3.77-18.16,8.78-1.1,1.19-1.18,3.06,0,4.24,1.11,1.11,3.14,1.2,4.24,0h0v-.02Z" fill="#00fc0a" stroke-width="0"/><path d="m372.74,268.54c.35.14-.57-.33-.5-.29-.03-.02-.78-.61-.37-.24-.17-.15-.33-.32-.49-.49-.31-.37.51.38-.06-.13-.38-.34,0,.3-.09-.19-.03-.16-.11-.9-.08-.16,0-.11.02-.37-.01-.49.03-.35.01-.33-.03.05.03-.17.07-.34.11-.5.14-.51.54-1.26,1.04-1.8.83-.88,1.47-1.33,2.72-1.88,5.59-2.46,12.34-2.03,18.29-1.78,2.94.12,5.93.17,8.8.89,1.24.31,2.31.65,3.34,1.43-.39-.3.32.32.32.31.61.51-.11-.23.13.13.12.18.22.36.32.55-.39-.76.08.81-.02-.14.02.2.01.39.02.59.02.42.23-.65,0,.04-.08.24-.13.48-.21.72.2-.63-.07.14-.13.24-.09.16-.18.32-.28.47-.02.02-.56.76-.21.32-.39.48-.83.92-1.29,1.33s-.64.54-1.26.94c-.5.32-1.01.61-1.54.88-1.19.6-2.61,1.03-4.02,1.36-7.5,1.75-15.35,1.09-22.97,1.95-1.61.18-3,1.25-3,3,0,1.48,1.38,3.18,3,3,8.3-.94,16.82-.26,24.99-2.27,3.46-.85,6.8-2.46,9.39-4.94,2.05-1.96,3.79-4.81,3.49-7.76-.83-8.18-11.55-8.71-17.78-9-3.92-.18-7.87-.32-11.79.02s-7.94,1.02-11.39,2.92c-3.13,1.72-5.66,4.78-5.99,8.42-.37,4.04,2.5,6.85,5.97,8.28,1.5.62,3.3-.67,3.69-2.1.47-1.72-.59-3.07-2.1-3.69h-.01Z" fill="#00fc0a" stroke-width="0"/><path d="m313.39,317.7c3.45-1.51,7.8-.56,11.38.59,4.21,1.35,8.11,3.45,12.13,5.27,9.17,4.15,18.6,7.69,28.22,10.64,9.08,2.78,18.65,5.62,28.25,5.3,4.63-.15,9.32-1.11,13.34-3.48,3.8-2.24,6.67-5.58,9.55-8.84,6.99-7.93,14.32-16.55,15.73-27.4.21-1.61-1.53-3-3-3-1.8,0-2.79,1.39-3,3-1.1,8.41-7.52,15.77-12.93,21.97-2.61,2.99-5.19,6.36-8.53,8.56s-7.49,3.12-11.58,3.21c-9.09.2-18.09-2.59-26.69-5.24-9.18-2.83-18.21-6.18-26.95-10.17-8.9-4.06-19.07-9.91-28.95-5.58-1.48.65-1.83,2.82-1.08,4.1.9,1.53,2.61,1.73,4.1,1.08h0Z" fill="#00fc0a" stroke-width="0"/><path d="m333.92,215.59c-13.65-10.75-30.63-16.88-47.66-19.64-9.48-1.54-19.14-2.15-28.73-1.52-9.4.62-18.83,2.41-27.33,6.61-12.75,6.3-21.42,18.31-23.44,32.37-2.08,14.55,1.89,29.66,8.29,42.68,7.48,15.23,19.01,28.36,32.18,38.95,1.9,1.53,3.84,3.02,5.81,4.47,2.51,1.85,5.54-1.68,4.1-4.1-9.25-15.67-16.37-32.54-20.61-50.25-2.01-8.37-3.37-16.88-4.01-25.47-.16-2.18-.28-4.36-.35-6.54-.03-1.01-.07-2.02-.07-3.03,0-.37.02-.74.04-1.11.04-.59-.03-.21.13-.78.35-1.17.93-1.93,2.48-2.45,1.95-.66,4.02-.88,6.06-1.13,11.05-1.38,22.09-2.77,33.14-4.15,1.48-.19,2.76-1,2.95-2.6s-.71-2.75-2.15-3.29c-3.54-1.33-7.51-1.72-11.26-1.36s-7.59,1.27-10.79,3.33c-3.68,2.37-5.81,6.01-7.02,10.13s-2.2,8.69-2.96,13.09c-3.13,18.1-2.56,36.68,1.66,54.56,2.45,10.37,6.14,20.42,10.75,30.03l4.1-4.1c-12.08-5.62-21.44-15.61-28.04-27.04s-9.72-23.23-10.8-35.66c-.54-6.23-.56-12.5-.21-18.74.33-5.87.83-12.2,4.89-16.86,3.44-3.95,8.26-6.47,13.24-8.27,6-2.17,12.34-3.47,18.67-4.15,17.27-1.88,34.69.18,52-.69,1.62-.08,3-1.32,3-3,0-1.58-1.37-3.06-3-3-7.78.28-15.44-1-23.1-2.18s-15.66-2.15-23.59-1.64c-14.2.93-28.36,5.34-40.43,12.93s-21.22,18.14-28.57,30.05c-3.83,6.21-8.06,12.89-8.88,20.28s3.37,13.82,8,19.08c5.15,5.85,11.13,11.01,16.79,16.36,6.09,5.76,12.19,11.53,18.28,17.29,1.51,1.43,3.02,2.85,4.52,4.28l2.12-5.12c-2.34-.25-4.98-.94-6.97-1.78s-4.36-2.29-5.82-3.48c-1.73-1.41-3.29-3.01-4.71-4.73-.53-.65-.97-1.23-1.61-2.15-.6-.88-1.18-1.77-1.72-2.68-6.3-10.54-10.89-22.29-13.8-34.2-2.75-11.22-4.18-23.19-3.07-34.73.44-4.62,1.68-9.65,4-13.86,1.26-2.3,2.8-4.39,4.63-6.27s3.3-3.07,5.19-4.36c8.13-5.56,17.64-8.32,27.31-10.25,10.9-2.18,22.01-3.07,33.09-3.66,12.84-.68,25.83-1.36,38.66-.28,11.06.93,23.06,3.32,32.18,10.04.68.5,1.57,1.26,2.31,1.97s1.71,1.78,2.05,2.27c.12.18.24.51.4.61l.35-1.17c.13-.09.11-.09-.07.03-.4.05-1.01.38-1.48.5-1.3.34-2.61.58-3.94.69-5.81.48-11.56-.79-16.97-2.82-10.3-3.88-18.75-11.33-29.04-15.28-2.63-1.01-5.35-1.77-8.12-2.27l-.8,5.89c7.41.41,14.74,1.82,21.75,4.25,6.02,2.08,12.21,5.17,17.04,8.99,1.33,1.05,2.6,2.18,3.79,3.38.57.58,1.13,1.17,1.67,1.79.28.32.55.65.82.98.25.31.12.14.49.64l3.39-4.41c-9.53-2.85-16.8-9.57-25.03-14.8-8.3-5.27-17.64-8.02-27.35-9.13-9.91-1.13-20.02-.46-29.78,1.53-9.59,1.95-18.92,5.39-27.25,10.54-16.32,10.09-27.84,26.15-33.09,44.53-2.62,9.19-3.5,19.39.22,28.42,2.04,4.96,5.22,9.31,9.24,12.86,4.02,3.54,8.58,6.41,13.2,9.09,9.43,5.48,18.88,10.68,27.28,17.72,7.48,6.28,14.22,13.5,19.4,21.79,1.22,1.95,2.35,3.95,3.39,6l3.39-4.41c-4.76-.98-7.83-3.64-10.06-7.67-2.61-4.71-4.49-10.52-6.44-16.09-4.42-12.6-7.87-25.55-10.24-38.7-1.15-6.38-2.04-12.8-2.64-19.25-.47-5.08-.69-10.27,2.1-14.69s7.78-6.76,12.45-8.54c5.78-2.2,11.85-3.7,17.88-5.01,13.84-3,28.49-4.51,42.45-1.43,1.58.35,3.25-.48,3.69-2.1.41-1.5-.51-3.34-2.1-3.69-13.71-3.03-27.92-2.02-41.61.61-6.37,1.22-12.75,2.72-18.92,4.77-5.72,1.9-11.63,4.37-16.01,8.64-4.61,4.49-6.3,10.64-6.21,16.93s1.16,13.14,2.16,19.59c2.16,13.94,5.55,27.69,10.04,41.07,1.28,3.8,2.64,7.58,4.09,11.32,1.2,3.1,2.35,6.27,3.91,9.21,2.92,5.48,7.7,9.55,13.86,10.82,2.61.54,4.6-2.02,3.39-4.41-9.16-18.02-25.03-31.91-42.27-41.99-8.77-5.12-18.77-9.55-25.49-17.42-5.93-6.94-7.32-16.15-5.96-24.74,2.73-17.18,12.29-33.53,26.22-44.14,15.1-11.51,34.54-16.36,53.4-15.65,8.78.33,17.95,2.04,25.73,5.97,8.51,4.3,15.42,11.13,24,15.31,2.38,1.16,4.85,2.14,7.39,2.9,2.33.7,4.98-2.25,3.39-4.41-8.59-11.62-22.87-18.15-36.68-21.13-4.62-1-9.34-1.61-14.06-1.87-3.33-.18-4.15,5.28-.8,5.89,5.86,1.07,11.21,3.38,16.36,6.33s9.68,6.12,14.81,8.64c5.76,2.82,11.87,4.84,18.26,5.52,3.2.34,6.41.22,9.58-.32s7.65-1.7,7.82-5.65c.13-2.98-2.62-5.69-4.68-7.56s-4.34-3.47-6.74-4.83c-5.31-3-11.21-5.01-17.14-6.36-13.7-3.11-27.93-2.88-41.89-2.34-12.16.46-24.33,1.11-36.39,2.79-11.01,1.53-22.12,3.95-32.14,8.92-4.55,2.26-8.88,5.16-12.43,8.81-4.16,4.28-7.13,9.56-8.77,15.29-1.52,5.31-1.94,10.91-1.93,16.41.02,6.63.63,13.25,1.71,19.79,2.2,13.33,6.66,26.25,12.74,38.3,2.39,4.72,4.96,9.32,8.43,13.34s7.66,7.05,12.51,9c2.77,1.11,5.65,1.7,8.62,2.02,2.63.28,3.89-3.44,2.12-5.12-11.58-10.95-23.31-21.77-34.73-32.89-4.46-4.34-9.58-9.35-10.95-15.61s2.87-13,6.02-18.38c6.59-11.25,14.69-21.64,25.47-29.16,10.7-7.46,23.54-12.2,36.5-13.66,8.16-.91,16.24-.35,24.34.88,8.65,1.31,17.31,2.93,26.1,2.61v-6c-16.22.82-32.47-.89-48.67.38-6.96.55-13.95,1.64-20.64,3.69-5.97,1.84-11.86,4.45-16.61,8.58-5.33,4.64-7.66,11.02-8.46,17.88-.75,6.5-.83,13.16-.52,19.69.64,13.51,3.58,26.87,9.66,39s15.61,23.79,27.59,30.83c1.58.93,3.21,1.77,4.87,2.54,2.76,1.28,5.44-1.31,4.1-4.1-7.41-15.45-12.13-32.26-13.31-49.38-.58-8.48-.34-17.01.73-25.44.53-4.16,1.3-8.3,2.24-12.39.8-3.47,1.41-7.68,3.68-10.53,1.09-1.36,2.04-1.97,3.74-2.79.52-.25.45-.21.82-.35.43-.16.87-.31,1.31-.44.97-.29,1.95-.51,2.95-.68,3.45-.57,7.24-.27,10.68,1.02l.8-5.89c-10.31,1.29-20.62,2.58-30.93,3.87-4.65.58-10.15.62-13.89,3.84-3.38,2.91-3.09,7.56-2.94,11.59.7,18.73,4.63,37.29,11.33,54.78,3.96,10.34,8.81,20.33,14.44,29.86l4.1-4.1c-13.13-9.66-24.79-21.65-32.94-35.83-3.68-6.41-6.5-12.96-8.44-20.1-1.74-6.43-2.73-12.59-2.48-19.26.03-.73.07-1.45.13-2.17.03-.34.06-.68.09-1.02.02-.19.04-.39.06-.58.01-.1.09-.76.02-.22.2-1.46.47-2.9.81-4.33s.76-2.87,1.26-4.27c.58-1.64.85-2.27,1.64-3.84,2.88-5.74,7.05-10.39,12.37-13.86,6.81-4.44,14.76-6.72,22.76-7.82,9.09-1.25,18.45-1.08,27.55-.08,16.32,1.79,32.87,6.76,46.62,15.9,1.39.93,2.93,2.02,4.13,2.97,1.27,1,3,1.24,4.24,0,1.04-1.04,1.28-3.23,0-4.24h.03Z" fill="#171000" stroke-width="0"/><path d="m346.1,220.04c.08-.12.17-.23.25-.35.29-.39-.25.31.06-.07.18-.22.37-.45.56-.66.49-.55,1-1.08,1.53-1.59,1.05-1,1.89-1.67,2.84-2.34,2.49-1.76,5.22-3.21,8.03-4.39,5.95-2.51,12.96-4.12,19.57-5.09,15.19-2.23,31.07-1.41,46.18,1.12,15.14,2.54,30.12,6.98,43.8,14.01,6.54,3.36,12.99,7.26,18.52,12.12s9.85,11.24,12.45,18.37,4.14,15.02,5.9,22.57c2.07,8.91,4.14,17.81,6.21,26.72.51,2.19,1.02,4.37,1.53,6.56.33,1.44,1.88,2.36,3.29,2.15s2.77-1.44,2.6-2.95c-1.72-15.57,5.49-30.83,2.16-46.36-1.67-7.78-6.22-14.42-11.53-20.19-5-5.43-10.67-10.31-16.49-14.84-11.91-9.25-24.94-16.82-38.87-22.6-14.88-6.17-30.6-10.02-46.6-11.76-8.12-.88-16.32-1.18-24.48-.83-4.06.18-8.11.51-12.14,1.03s-7.84,1.03-11.64,2.06c-5.21,1.42-14.05,4.61-13.74,11.39.28,6.28,7.34,8.66,12.52,9.51,6.98,1.14,13.99.66,21.03.52,7.98-.16,15.96-.14,23.93.26,14.95.75,30.14,2.77,44.1,8.42,12.39,5.01,23.07,13.67,30.84,24.23,8.02,10.9,13.68,23.38,19.75,35.41,1.97,3.92,3.95,7.83,5.92,11.75l2.59-4.51c-2.52.05-4.6-.22-7.04-1.2.12.05.4.18-.16-.07-.29-.13-.57-.27-.84-.41-.46-.24-.91-.49-1.34-.77-1.07-.67-1.35-.88-2.3-1.74-3.12-2.8-5-5.81-7.12-9.58-2.75-4.89-5.67-9.51-9.24-13.86-3.86-4.7-8.16-9.02-12.63-13.14-9.84-9.07-20.39-17.39-30.69-25.92-5.25-4.35-10.39-8.92-15.87-12.98-4.75-3.52-10.15-5.8-15.96-6.85-13.56-2.47-27.42-.09-41.04-1.85v6c19.8-1.79,39.76,2.07,58.17,9.32,9.06,3.57,17.74,8.01,26.2,12.81,8.25,4.68,16.47,9.53,24.35,14.8,4.13,2.76,8.15,5.71,11.7,9.19,2.99,2.93,5.76,6.45,7.13,10.16l3.69-3.69c-8.29-3.25-14.02-10.31-20.64-15.93s-13.92-10.69-21.51-15.07c-16.66-9.62-34.95-16.44-53.62-20.93-11.27-2.71-22.74-4.55-34.28-5.61v6c27.38-3.38,54.96,2.37,80.7,11.53,12.28,4.37,24.37,9.43,35.79,15.72,10.74,5.91,21.11,12.99,29.18,22.31,4.15,4.8,7.72,10.34,9.77,16.32s2.52,11.68,1.22,17.47c-.35,1.58.48,3.25,2.1,3.69,1.51.41,3.33-.51,3.69-2.1,5.85-26.08-16.97-47.29-37.05-59.49-11.78-7.15-24.49-12.73-37.35-17.61-12.92-4.9-26.19-8.95-39.76-11.58-15.88-3.08-32.19-4.27-48.29-2.28-1.61.2-3,1.24-3,3s1.38,2.85,3,3c19.76,1.81,39.35,6.14,57.95,13.09,16.44,6.15,32.56,14.61,46.01,25.74,3.64,3.02,6.98,6.35,10.49,9.51,4.2,3.78,8.73,6.91,14.01,8.99,2.07.81,4.44-1.65,3.69-3.69-3.13-8.5-10.09-14.68-17.22-19.89-7.85-5.73-16.34-10.65-24.73-15.54-17.56-10.24-36.1-18.94-56.13-23.01-11.58-2.35-23.48-3.3-35.26-2.24-1.61.15-3,1.27-3,3s1.39,2.79,3,3c12.03,1.56,24.2-.15,36.25,1.17,5.6.61,10.96,2.17,15.67,5.28,2.38,1.57,4.54,3.41,6.73,5.22,2.69,2.22,5.37,4.45,8.06,6.67,10.37,8.58,20.96,16.97,30.95,26,4.65,4.2,9.15,8.58,13.21,13.35,3.49,4.1,6.38,8.5,8.98,13.2,2.35,4.24,5.02,8.51,8.7,11.73,4.41,3.86,9.83,5.86,15.7,5.75,2.37-.05,3.61-2.49,2.59-4.51-3.91-7.76-7.82-15.52-11.74-23.27-2.65-5.26-5.36-10.51-8.41-15.56-6.71-11.11-15.21-21.05-26.14-28.2-12.16-7.96-26.46-11.95-40.72-13.98-15.38-2.19-30.95-2.37-46.46-1.95-6.28.17-12.73.53-18.6-.99-.64-.17-1.28-.36-1.9-.58-.13-.05-.78-.3-.58-.22.17.07-.48-.24-.63-.32-.27-.14-.53-.29-.78-.46-.1-.06-.66-.48-.4-.27s-.24-.23-.31-.31c-.11-.11-.2-.22-.31-.33-.27-.29.25.42.07.08-.1-.19-.22-.38-.32-.57-.16-.29.09.2.09.22-.03-.11-.07-.21-.09-.31-.15-.69-.02.25-.04-.28-.02-.49-.15.4.04-.25.03-.11.07-.23.11-.34-.02.05-.23.44-.05.17.1-.15.51-.78.17-.34.3-.38.97-1,1.13-1.13,2.1-1.69,5.31-2.76,8.13-3.52,3.44-.92,7-1.45,10.52-1.88,7.94-.98,15.96-1.27,23.96-.98,15.47.56,30.87,3.31,45.57,8.17,14.03,4.63,27.37,11.22,39.61,19.5,5.56,3.76,10.87,7.87,15.9,12.31,5.54,4.88,11.07,10.13,14.9,16.51s4.78,13.32,4.31,20.57c-.49,7.61-2.25,15.08-2.96,22.67-.34,3.63-.41,7.27,0,10.89l5.89-.8c-2.13-9.15-4.26-18.3-6.38-27.45-1.91-8.2-3.53-16.54-5.99-24.6s-5.94-15.08-11.45-21.11-12.28-10.5-19.2-14.43c-13.84-7.85-29.21-13.02-44.78-16.08s-32.87-4.45-49.2-2.64c-7.38.82-14.76,2.17-21.77,4.67-6.08,2.17-12.1,5.15-16.72,9.75-1.07,1.07-2.03,2.25-2.92,3.47-.96,1.31-.22,3.35,1.08,4.1,1.52.89,3.15.24,4.1-1.08h-.01Z" fill="#171000" stroke-width="0"/><path d="m1426.13,183.35c-13.39.22-26.75,1.2-40,3.12-12.5,1.82-24.97,4.5-36.85,8.86-10.29,3.77-20.36,8.79-28.49,16.25-9.47,8.69-14.74,20.63-14.2,33.55.5,11.76,4.82,23.25,10.52,33.44,5.08,9.08,11.57,17.39,18.8,24.85,16.58,17.1,37.2,30.15,58.83,39.89,24.72,11.13,51.11,18.17,78,21.47,15.39,1.89,31.03,2.67,46.51,1.38,15.53-1.29,30.49-5.05,44.94-10.83,6.94-2.78,13.75-5.89,20.5-9.11s13.1-6.16,18.93-10.4c5.77-4.2,10.24-9.47,12.3-16.41,2.07-6.98,1.96-14.66,2.05-21.87.18-15.69-.81-31.69-3.83-47.11-2.68-13.68-8.44-26.35-18.62-36.08-9.58-9.16-21.47-15.69-33.53-20.98-13.21-5.8-26.97-10.41-40.87-14.22-27.26-7.48-56.55-12.04-84.67-7.13-6.42,1.12-12.73,2.81-18.81,5.16-1.51.58-2.56,2.02-2.1,3.69.4,1.44,2.17,2.68,3.69,2.1,25.28-9.76,53.76-8.01,79.87-2.86,13.48,2.66,26.75,6.37,39.76,10.77s25.66,9.46,37.35,16.48c10.77,6.47,20.42,14.75,26.15,26.13,6.22,12.35,7.69,26.83,8.78,40.42.63,7.86.9,15.75.81,23.64-.08,6.69.09,13.8-1.83,20.28s-6.37,10.83-11.78,14.37c-5.85,3.83-12.27,6.76-18.57,9.75-13.08,6.19-26.46,11.83-40.6,15.13-14.9,3.48-30.31,4.16-45.55,3.47-26.98-1.21-53.85-6.5-79.24-15.7-22.13-8.01-43.54-19.17-61.75-34.19-15.21-12.54-28.85-28.35-35.8-46.72-4.48-11.85-6.56-25.48-.43-37.16,4.61-8.77,12.65-15.08,21.38-19.81,10.05-5.45,21.11-8.89,32.22-11.43,12.37-2.83,24.98-4.48,37.63-5.38,6.16-.44,12.33-.7,18.5-.8,3.86-.06,3.87-6.06,0-6h0Z" fill="#1400b9" stroke-width="0"/><path d="m1490.12,369.2c-.75,23.86-1.5,47.73-2.25,71.59-.19,5.99-.38,11.97-.56,17.96-.09,2.99-.19,5.99-.28,8.98l-.13,4.24-.06,2c-.02.75-.22,1.75-.08,2.49.12.62.04.18-.05.49.03-.09.55-.31.02-.03-.14.07-.48.17.03,0-.17.05-1.1.2-.51.15-.49.03-.98.03-1.47-.02.49.05-.18-.03-.3-.05-.21-.04-.43-.09-.64-.14-.49-.12-.98-.26-1.46-.42-.9-.3-1.45-.54-2.4-1.05-1.9-1.02-3.56-2.42-5.31-3.67-2.04-1.46-4.11-2.86-6.22-4.2-18.13-11.59-38.32-19.65-58.17-27.74-22.06-9-44.11-17.99-66.17-26.99-22.01-8.98-44.02-17.95-66.03-26.93-2.77-1.13-5.54-2.26-8.31-3.39-1.5-.61-3.3.66-3.69,2.1-.47,1.72.59,3.08,2.1,3.69,22.55,9.2,45.1,18.39,67.65,27.59,22.47,9.16,44.95,18.33,67.42,27.49,20.28,8.27,40.93,16.3,59.67,27.79,4.21,2.58,8.13,5.48,12.17,8.31,3.43,2.41,8.28,4.28,12.51,3.46,2.33-.45,4.38-2.13,4.95-4.49.35-1.42.25-3,.29-4.45l.14-4.49c.19-6.15.39-12.31.58-18.46.76-24.28,1.53-48.56,2.29-72.84.09-2.99.19-5.99.28-8.98.12-3.86-5.88-3.86-6,0h0Z" fill="#1400b9" stroke-width="0"/><path d="m1493.58,481.52c17.54-13.64,36.05-26.05,55.17-37.36,20.16-11.92,41.03-22.63,62.4-32.21,11.04-4.95,22.22-9.59,33.5-13.94,9.79-3.77,22.75-7.64,25.58-19.23,1.2-4.93.39-10.05-.81-14.9-1.27-5.14-2.78-10.19-3.58-15.44s-.96-10.28-.06-15.27c.46-2.53,1.16-5.06,2.17-7.43.53-1.23,1.15-2.42,1.82-3.57.33-.56.67-1.12,1.03-1.66.24-.37.5-.73.75-1.1l.26-.36c-.18.23-.15.21.08-.07,1.39-1.52,3.03-2.61,5.02-3.12.8-.2,1.55-.25,2.2-.07.7.2,1.03.52,1.18,1.08.72,2.65.97,5.51,1.26,8.24.33,3.08.54,6.17.63,9.26.35,12.2-1.24,24.36-4.61,36.09-.88,3.06-1.88,6.08-2.98,9.07l5.48-.72c-4.13-9.38-3.09-19.76-.21-29.32,1.53-5.09,3.53-10.03,5.7-14.88,1.05-2.36,2.07-4.76,3.25-7.06.86-1.67,1.68-2.61,3.14-3.94,1.15-1.05,2.85-2.18,4.14-2.67.41-.16.83-.29,1.26-.4.1-.02,1.23-.23.79-.18.47-.05.95-.05,1.43-.03.52.03-.37-.08.14,0,.26.05.52.11.77.18,1.54.45,2.16,1.49,2.59,3.01.56,1.94.97,3.94,1.25,5.95.49,3.53.49,7.93-.02,11.76-.05.41-.27,1.67-.4,2.37-.21,1.06-.45,2.11-.72,3.16-.54,2.06-1.21,4.09-2,6.07-3.68,9.25-10.29,17.4-17.83,23.96l4.24,4.24c5.98-7.71,12.16-15.25,18.55-22.62,3.08-3.55,6.08-7.34,9.49-10.59,2.35-2.25,5.83-4.52,9.16-3.98,1.72.28,2.8,1.18,3.51,2.44.61,1.08,1.09,2.76,1.16,3.7.13,1.85.03,2.73-.45,4.37-.45,1.53-1.01,2.68-1.95,4.17-4.17,6.62-11.61,10.85-18.68,13.97-9.31,4.12-19.31,6.61-29.13,9.19-3.75.98-2.16,6.64,1.6,5.79,10.78-2.46,21.75-4.87,32.88-3.99,4.39.35,8.9,1.4,12.87,3.32,1.75.85,3.6,1.96,4.84,3.05.36.31.7.64,1.02.99.14.14.74.84.5.54.23.3.45.63.65.96.1.16.19.32.28.49.03.06.36.86.15.29.12.34.23.68.31,1.03.04.17.08.35.1.53-.09-.59-.02-.12-.02,0-.01.38,0,.74-.03,1.12-.03.43.12-.53,0-.12-.05.18-.08.37-.13.56-.04.15-.38,1.02-.24.73s-.31.56-.39.69c-.17.28-.35.54-.54.8.39-.52-.39.42-.51.54-.24.25-.5.5-.76.73-.13.12-.85.7-.45.4-.69.53-1.43,1-2.19,1.43-1.73.99-2.94,1.49-4.72,2.09-8.22,2.75-16.76,2.65-25.03.42-10.06-2.71-18.87-8.29-27.44-14.03-1.35-.9-3.32-.26-4.1,1.08-.86,1.47-.27,3.2,1.08,4.1,8.48,5.68,17.2,11.1,27.03,14.1s19.71,3.33,29.25.37c6.69-2.07,15.84-6.95,15.16-15.28-.8-9.68-12.44-14.45-20.61-16.1-13.49-2.73-27.39.37-40.55,3.37l1.6,5.79c9.67-2.54,19.4-5.08,28.64-8.97,8.47-3.57,16.84-8.34,22.18-16.06,2.27-3.28,3.8-7.19,3.85-11.21.05-3.88-1.35-8.37-4.42-10.91-4.13-3.41-9.7-2.98-14.25-.69-4.29,2.16-7.33,5.9-10.45,9.42-7.98,8.99-15.66,18.23-23.03,27.73-.99,1.28-1.25,3,0,4.24s3.02,1.07,4.24,0c14.66-12.76,25.18-31.55,22.74-51.48-.57-4.64-1.2-10.68-5.41-13.51s-9.39-1.85-13.44.5-6.89,5.85-8.84,10.06c-2.57,5.53-5.08,11.11-7.12,16.86-2.17,6.1-3.78,12.45-4.16,18.94-.4,6.71.82,13.28,3.52,19.42.47,1.06,1.94,1.59,2.99,1.43,1.24-.19,2.07-.99,2.49-2.15,4.47-12.17,7.13-24.99,7.72-37.94.29-6.33.07-12.69-.66-18.99-.34-2.92-.54-6.08-1.37-8.91s-3.18-4.95-6.17-5.43c-5.38-.86-10.67,2.46-13.67,6.72-3.28,4.68-5.48,10.16-6.39,15.81s-.71,11.5.13,17.26c.79,5.39,2.34,10.57,3.64,15.85,1.12,4.53,1.98,9.2.23,13.55s-6.66,7.25-11.04,9.27c-5.35,2.46-10.97,4.35-16.44,6.53-5.85,2.32-11.67,4.73-17.46,7.2-22.3,9.54-44.1,20.26-65.18,32.28-19.97,11.39-39.3,23.94-57.66,37.78-2.27,1.71-4.52,3.44-6.77,5.19-1.28,1-1.05,3.2,0,4.24,1.26,1.26,2.96,1,4.24,0h0l.04.02Z" fill="#1400b9" stroke-width="0"/><path d="m1270.41,386.99c-13.94,3.69-27.87,7.39-41.81,11.08-6.74,1.79-13.45,3.72-20.24,5.28-5.64,1.29-11.65,2.35-17.44,1.51-2.67-.39-5.15-1.13-7.34-2.6-.53-.35-1.19-.93-1.86-1.7-.58-.68.28.46-.21-.27-.15-.22-.3-.45-.43-.69-.09-.15-.16-.32-.25-.47q-.15-.32-.02,0c-.06-.16-.12-.32-.18-.49-.14-.41-.22-.83-.33-1.24-.2-.78.02.4-.02-.09-.02-.21-.03-.43-.04-.64-.01-.43.01-.86.04-1.29-.05.72.02-.12.05-.24.06-.3.14-.61.22-.9.06-.22.13-.43.2-.64.02-.07.38-.87.11-.3.2-.42.41-.84.65-1.24.64-1.07.84-1.3,1.72-2.19,3.36-3.39,8.72-5.19,13.59-6.29,5.72-1.3,11.63-1.65,17.48-1.59,14.76.15,29.61,2.76,43.56,7.58l1.6-5.79c-18.33-3.09-36.99-9.65-51.66-21.14-1.59-1.25-3.14-2.56-4.63-3.94-.4-.37-.79-.74-1.18-1.12-.26-.25-.65-.9-.96-1.07-.53-.29.04-.2-.13-.1,0,0-.14.66-.19.61-.06-.06,1.18-.74,1.26-.77,3.8-1.71,8.11-2.09,12.2-2.03,8.31.11,16.86,2.57,23.7,7.33,8.35,5.8,12.87,14.87,16.91,23.89.6,1.34,2.51,1.77,3.75,1.23,1.35-.59,2.15-2.07,1.74-3.54-2.26-7.98-4.51-15.96-6.77-23.93-1.13-3.99-2.26-7.98-3.38-11.97-.48-1.68-.98-3.36-1.42-5.05-.07-.27-.13-.53-.19-.8-.02-.08-.12-.97-.06-.31-.02-.28-.04-.55-.04-.83,0-.18,0-.37.02-.55-.06.35-.06.34,0,0,.02-.08.3-.9.03-.3.03-.07.49-.79.11-.31.32-.4.42-.49.73-.63,1.4-.65,3.06-.42,4.49-.03,2.89.78,5.56,2.52,7.69,4.56,1.88,1.81,3.25,3.78,4.34,6.28-.2-.45.2.52.18.48.11.3.22.6.32.91.2.6.37,1.22.53,1.83s.28,1.23.38,1.85c.11.65.13.75.2,1.68.33,4.1-.18,8.21-.55,12.29-.41,4.56-.57,9.05.26,13.57.61,3.3,6.14,2.58,5.89-.8-.63-8.82.07-17.65,2.17-26.24,1.07-4.37,2.45-8.69,4.16-12.86-.21.5.14-.32.2-.45.14-.31.28-.61.43-.91.33-.66.68-1.32,1.06-1.95s.76-1.2,1.17-1.78c.09-.12.18-.25.27-.37-.25.32.08-.08.11-.12.27-.32.54-.63.83-.94,2.5-2.65,5.48-4.09,9.29-4.67l-2.31-.3c1.51,1.04,3.18,2.58,4.11,3.84,1.19,1.62,1.81,2.89,2.32,4.64.93,3.26.7,6.66-.26,10.06-1.1,3.88-3.07,7.29-5.44,10.79-2.71,4-5.75,7.78-8.57,11.7-3.16,4.4-6.04,9.02-7.74,14.2-.51,1.54.59,3.28,2.1,3.69,1.63.45,3.18-.55,3.69-2.1,2.89-8.78,9.66-15.83,14.88-23.27,4.63-6.61,8.7-14.46,7.83-22.79-.43-4.18-1.95-7.97-4.6-11.24-1.41-1.74-3.19-3.41-5.11-4.59-2.06-1.27-5.49.16-7.55,1.03-8.1,3.44-11.75,11.26-14.41,19.11-3.85,11.38-5.47,23.53-4.61,35.52l5.89-.8c-1.49-8.05,1.16-16.18.5-24.27-.52-6.42-2.92-12.59-7.58-17.14-4.97-4.85-14.73-10.02-21.02-4.54-2.53,2.2-2.75,5.72-2.09,8.79.89,4.18,2.32,8.31,3.48,12.42,2.75,9.73,5.5,19.47,8.26,29.2l5.48-2.31c-4.04-9.02-8.64-17.87-16.54-24.14-7.73-6.13-17.51-9.41-27.32-9.98-4.86-.28-9.91.19-14.55,1.74-2.6.87-5.81,2.25-6.51,5.23-.76,3.23,1.72,5.7,3.88,7.69,7.12,6.58,15.45,11.83,24.22,15.93,11.01,5.15,22.73,8.67,34.71,10.69,1.6.27,3.23-.42,3.69-2.1s-.56-3.16-2.1-3.69c-13.53-4.68-27.89-7.21-42.19-7.73-6.57-.24-13.19.06-19.66,1.25-5.68,1.04-11.67,2.86-16.34,6.38-4.01,3.02-7.06,7.55-7.04,12.73s3.41,9.75,8.03,12.01c5.93,2.91,12.75,3.07,19.18,2.23,6.99-.91,13.76-2.85,20.56-4.65,16.66-4.42,33.32-8.83,49.98-13.25,3.73-.99,2.15-6.78-1.6-5.79h0l.04.02Z" fill="#1400b9" stroke-width="0"/><path d="m1492.43,482.05c.29,12.76.58,25.52.86,38.29.28,12.56.8,25.13.73,37.69s-1.4,24-5.54,35.48-10.06,22.11-15.69,32.84c-11.9,22.7-23.8,45.39-35.7,68.09-11.85,22.6-23.7,45.19-35.55,67.79-1.42,2.72-2.81,5.45-4.28,8.15-.9,1.65-1.9,3.3-3.39,4.48-4.03,3.21-9.95,1.96-14.56,1.05-12.51-2.49-25.02-5.03-37.53-7.54s-24.48-5.38-36.94-6.15c-10.83-.67-22.6.46-32.07,6.22-3.7,2.26-7.02,5.35-8.52,9.51-1.33,3.69-.61,7.83,1.42,11.11,4.83,7.82,14.67,12.01,22.9,15.09,10.68,4,21.99,6.62,33.11,9.04,11.93,2.6,23.99,4.63,36.11,6.15s23.54,2.64,35.34,2.83c10.07.16,20.7-.42,30.07-4.43,8.39-3.58,16.03-11.51,13.44-21.34-2.46-9.35-12.86-14.07-21.56-15.63-5.14-.92-10.29-.96-15.44-.11-1.6.26-2.49,2.25-2.1,3.69.47,1.7,2.09,2.36,3.69,2.1,8.34-1.37,18.8.04,25.51,5.56,2.82,2.32,4.82,5.67,4.34,9.42-.51,4.05-3.64,7.16-6.98,9.16-7.89,4.72-17.83,5.46-26.81,5.58-11.25.15-22.56-.9-33.73-2.15-22.83-2.55-45.82-6.82-67.75-13.73-4.69-1.48-9.32-3.21-13.7-5.46-3.64-1.87-7.26-4.05-10-7.13-2.03-2.28-3.03-4.84-2.3-7.47.93-3.36,4.27-5.74,7.25-7.36,9.46-5.14,20.88-5.41,31.34-4.4,11.92,1.15,23.69,4.03,35.41,6.38,11.97,2.41,23.92,5.05,35.94,7.2,5.38.97,11.33,1.51,16.24-1.43,4.06-2.43,6.11-6.6,8.23-10.63,11.49-21.9,22.97-43.81,34.46-65.71,11.43-21.8,22.87-43.61,34.3-65.41,5.62-10.71,11.51-21.33,16.55-32.32,4.92-10.73,8.47-21.71,9.74-33.48,1.29-11.93.67-24,.4-35.97s-.56-24.63-.83-36.94c-.14-6.05-.27-12.09-.41-18.14-.09-3.86-6.09-3.87-6,0h0v.03Z" fill="#a2008d" stroke-width="0"/><path d="m1492.08,599.19c6.53,26.4,21.83,49.37,40.79,68.52,9.91,10.01,20.51,19.43,29.06,30.68,8.04,10.59,14.47,22.31,19.68,34.52,5.61,13.15,9.8,26.86,13.98,40.51.61,1.99,2.63,2.61,4.41,1.79,9.8-4.53,20.19-7.78,30.74-10.04,11-2.36,22.33-3.74,33.59-3.65,5.26.04,10.53.45,15.65,1.71,4.54,1.12,9.12,2.9,12.43,6.15.72.7,1.24,1.3,1.65,1.92.23.34.45.7.65,1.06.12.22.23.44.34.67.09.19.08.18-.01-.04.05.14.1.27.15.41.12.41.23.82.33,1.24.14.57.02.17.01.03.02.23.03.46.03.69s-.15,1.28-.03.72c-.1.46-.21.92-.39,1.36.19-.47-.06.11-.13.22-.13.22-.25.44-.39.66-.11.17-.23.34-.35.51.26-.34-.06.06-.1.1-.6.69-1.54,1.53-2,1.86-1.68,1.2-3.63,2.2-5.49,2.94-4.82,1.92-9.9,3.09-14.92,4.32-6,1.47-12.01,2.95-18.01,4.42-11.67,2.87-23.32,5.94-35.13,8.21-11.74,2.25-23.75,3.53-35.7,2.39-9.44-.9-19.31-3.9-26.95-9.65-1.21-.91-2.85-2.43-4.02-3.81-.16-.19-.32-.39-.48-.58.08.11.27.37-.07-.1-.25-.36-.49-.72-.72-1.09s-.43-.73-.63-1.11c-.08-.16-.16-.33-.24-.5-.31-.62.08.3-.12-.29-.27-.77-.47-1.52-.64-2.32s.02.39-.02-.12c-.02-.22-.04-.44-.05-.66-.02-.44-.01-.89.02-1.33.01-.18.03-.36.05-.54-.08.61,0,0,.05-.15.12-.46.21-.92.37-1.37.23-.63.74-1.45,1.56-2.05,1.56-1.14,3.85-1.46,5.81-1.64,2.81-.26,5.64-.3,8.46-.41,6.2-.24,12.4-.48,18.6-.72,3.06-.12,6.12-.24,9.18-.36,1.62-.06,3-1.33,3-3,0-1.58-1.37-3.06-3-3-6.61.26-13.23.51-19.84.77-3.31.13-6.61.26-9.92.38-3.05.12-6.11.19-9.13.66-2.8.44-5.54,1.39-7.68,3.31-1.84,1.66-2.94,4.08-3.31,6.5-.64,4.19.45,8.34,2.86,11.81,5.72,8.23,15.89,12.83,25.29,15.33,12.04,3.21,24.85,2.92,37.12,1.32,12.86-1.68,25.42-4.83,38-7.92,6.4-1.57,12.81-3.14,19.21-4.72,5.86-1.44,11.78-2.73,17.55-4.47,8.3-2.5,21.06-8.04,17.87-19.05-1.36-4.67-5.18-8.31-9.24-10.75-4.8-2.88-10.44-4.33-15.94-5.1-12.14-1.72-24.61-.66-36.67,1.18-11.66,1.78-23.18,4.72-34.16,9.04-2.73,1.07-5.44,2.23-8.1,3.46l4.41,1.79c-7.59-24.85-15.7-49.89-30.63-71.45-8.15-11.77-18.21-21.71-28.39-31.7-9.96-9.78-19.35-19.96-27.01-31.67-7.92-12.11-14-25.35-17.48-39.42-.93-3.75-6.71-2.16-5.79,1.6h0l-.02.02Z" fill="#a2008d" stroke-width="0"/><path d="m1410.25,183.59c24.96-2.49,50.03-3.72,75.11-4.05,25.19-.33,50.39.22,75.56,1.27,12.55.52,25.09,1.17,37.63,1.89,6.26.36,12.52.74,18.78,1.13,3.13.2,6.25.39,9.38.59,2.85.18,5.97.67,8.77-.15,2.6-.77,4.59-2.7,5.09-5.41.36-1.91.19-3.93.02-5.85-.35-3.97-1.18-7.91-3.12-11.43-5.34-9.65-16.82-11.16-26.83-10.73-12.53.53-25.06,1.64-37.57,2.47s-25.53,1.71-38.3,2.56c-3.08.21-6.16.41-9.23.62l1.51.41c-7.64-4.77-12.99-11.79-18.22-18.94-5.56-7.6-11.46-14.82-19.66-19.72-8.1-4.84-17.38-7.25-26.67-8.47-10.01-1.31-20.17-1.17-30.22-.38s-20.8,2.37-31.1,4.19-21.8,3.92-28.64,12.43c-3.1,3.86-4.97,8.36-6.78,12.93-2.23,5.63-4.14,11.48-4.41,17.58-.42,9.67,4.33,18.25,12.08,23.84,8.5,6.13,19.68,7.73,29.92,7.02,11.01-.77,21.71-3.87,32.01-7.68,2.42-.89,4.81-1.83,7.2-2.79,1.5-.6,2.56-2,2.1-3.69-.39-1.43-2.18-2.7-3.69-2.1-9.72,3.91-19.68,7.46-30.02,9.31-9.53,1.7-20.24,1.96-29.22-2.19-7.27-3.36-13.17-9.49-14.24-17.42-.76-5.63.77-11.3,2.64-16.57,1.58-4.45,3.26-9.03,5.91-12.97,5.6-8.32,16.61-10.1,25.77-11.75,9.79-1.76,19.63-3.24,29.55-4.07s19.82-1.03,29.66.12c8.57,1.01,17.24,3.23,24.73,7.61s13.01,11.13,18.11,18.1c5.34,7.31,10.78,14.43,18.34,19.61,1.25.86,2.3,1.59,3.87,1.55s3.08-.21,4.62-.31c2.99-.2,5.98-.4,8.96-.6,6.16-.41,12.31-.82,18.47-1.24,12.13-.81,24.26-1.62,36.4-2.44,5.78-.39,11.57-.91,17.36-1.08,4.88-.14,10.16-.03,14.6,2.25,1.78.92,3.03,1.88,4.35,3.39.7.8,1.88,2.85,2.22,3.73.64,1.66,1.05,3.4,1.35,5.16.01.07.09.59.03.13.03.21.05.41.07.62.05.41.09.82.12,1.23.07.86.11,1.72.14,2.58s.05,1.54-.1,1.99c-.04.12-.03.2-.2.34-.26.21-.77.34-1.2.4-2.53.38-5.34-.13-7.88-.29-5.99-.38-11.97-.76-17.96-1.12-11.99-.72-23.99-1.38-35.99-1.94-24.01-1.12-48.04-1.85-72.08-1.83-23.94.02-47.9.77-71.77,2.61-5.77.45-11.54.96-17.3,1.53-1.61.16-3,1.26-3,3,0,1.5,1.38,3.16,3,3h0l-.03.02Z" fill="#e7000d" stroke-width="0"/><path d="m945.21,340.23c-1.34,11.32-.28,22.84,2.91,33.77,1.08,3.7,6.87,2.13,5.79-1.6-3.06-10.47-3.99-21.34-2.7-32.18.19-1.61-1.52-3-3-3-1.78,0-2.81,1.38-3,3h0Z" fill="#e7000d" stroke-width="0"/><path d="m950.76,345.11c9.81-.35,19.77-2.63,28.32-7.58,3.34-1.93.32-7.12-3.03-5.18-7.63,4.42-16.53,6.45-25.29,6.76-3.85.14-3.87,6.14,0,6h0Z" fill="#e7000d" stroke-width="0"/><path d="m958.82,362.3c5.11.2,10.7-.92,14.97-3.85,1.29-.89,2-2.67,1.08-4.1-.83-1.28-2.72-2.03-4.1-1.08-.85.59-1.75,1.06-2.69,1.5-.3.13-.26.12.12-.05-.13.05-.27.11-.4.16-.27.11-.55.2-.83.3-.53.18-1.07.34-1.62.48s-1.12.27-1.69.37c-.3.05-.62.13-.92.15.8-.05-.08,0-.25.02-1.22.12-2.44.15-3.67.11-1.57-.06-3.07,1.42-3,3,.08,1.68,1.32,2.93,3,3h0Z" fill="#e7000d" stroke-width="0"/><path d="m958.33,405.99c-5.91-4.45-12.2-8.66-19.62-9.99-6.62-1.18-14.73-.92-20.04,3.74-2.83,2.48-3.91,6.26-3.14,9.89s3.3,6.44,6.05,8.64c3.17,2.53,6.7,4.48,10.26,6.4s6.76,3.64,10.23,5.28c7.36,3.49,15.03,6.13,23.16,7.03,7.04.78,14.69.4,21.31-2.29,6.28-2.56,11.55-7.28,13-14.14,1.28-6.07-.09-12.23-1.73-18.09-.58-2.08-1.17-4.16-1.75-6.23-.51-1.83-.96-3.69-1.78-5.41-1.65-3.46-5.18-5.05-8.81-5.42-3.3-.34-6.79.43-9.75,1.9-3.32,1.65-5.61,4.7-6.82,8.14-.53,1.52-.81,3.1-1.08,4.69s.42,3.23,2.1,3.69c1.44.39,3.42-.49,3.69-2.1.44-2.65.85-5.36,2.64-7.38,1.45-1.64,3.77-2.59,5.98-2.9,1.17-.16,2.87-.12,3.57.03.31.07.62.14.92.24.01,0,.92.38.43.15.52.25.98.53,1.35.99.69.83.9,1.9,1.25,3.15.52,1.85,1.04,3.69,1.55,5.54,1.51,5.4,3.08,10.22,2.7,15.63-.14,1.97-.75,4.21-1.96,6.13s-3.4,3.74-5.73,4.96c-5.08,2.67-11.43,3.27-17.24,3.04-6.74-.27-13.28-2.01-19.51-4.53-6.29-2.54-12.33-5.85-18.22-9.2-2.81-1.59-5.64-3.29-7.87-5.66-.47-.5-.79-.88-1.14-1.43s-.61-1.08-.75-1.46c-.09-.26-.16-.53-.23-.8-.03-.1-.12-.78-.08-.33-.09-.9-.04-1.12.13-1.75.24-.84-.21.3.19-.5.12-.23.46-.77.52-.83.24-.29.52-.55.8-.8.34-.29.4-.34.18-.15.13-.09.25-.18.39-.26,1.32-.79,2.13-1.14,3.71-1.54,2.86-.73,6.27-.79,9.18-.37,7.24,1.04,13.22,5.21,18.93,9.5,1.3.98,3.35.21,4.1-1.08.9-1.54.22-3.13-1.08-4.1h0v-.02Z" fill="#ff0003" stroke-width="0"/><path d="m969.94,397.08c-3.59,2.89-7.18,5.79-10.77,8.68-.56.45-.88,1.43-.88,2.12,0,.74.33,1.61.88,2.12s1.32.91,2.12.88c.84-.04,1.47-.35,2.12-.88,3.59-2.89,7.18-5.79,10.77-8.68.56-.45.88-1.43.88-2.12,0-.74-.33-1.61-.88-2.12s-1.32-.91-2.12-.88c-.84.04-1.47.35-2.12.88h0Z" fill="#ff0003" stroke-width="0"/><path d="m942.97,481.95c-.48,3.47-.97,6.94-1.45,10.41l3.69-2.1c-4.71-1.54-10.45-3.11-13.85-6.72-.5-.54-.8-1.03-.94-1.52-.05-.16-.08-.33-.12-.5-.19-.72-.06.53-.01-.21.01-.16,0-.35,0-.5-.01-.66-.15.38.03-.2.08-.24.13-.49.21-.73-.04.13-.27.49,0,0,.13-.23.25-.46.4-.68.07-.1.35-.4.03-.03.65-.73,1.18-1.1,1.88-1.39,2.41-.97,5.16-.65,7.64-.18,2.97.56,5.92,1.27,8.84,2.04,5.83,1.54,11.56,3.45,17.13,5.74s11.33,5.27,16.59,8.59c2.9,1.83,6.04-2.33,3.64-4.71-3.04-3.01-6.43-6.44-7.43-10.74-.06-.25-.11-.49-.15-.74-.1-.61.02.41,0-.1-.02-.38-.02-.76-.02-1.15,0-.08.05-.68,0-.32s.04-.24.06-.32c.09-.43.2-.86.34-1.28.06-.19.13-.38.21-.56-.18.41.04-.05.07-.11.19-.36.39-.72.62-1.07.4-.6.92-1.17,1.68-1.84,2.75-2.43,7.15-3.19,10.91-3.13,4.2.06,8.5,1.09,12.21,2.92,4.59,2.27,8.4,5.57,12.16,8.99,1.2,1.09,3.06,1.18,4.24,0,1.11-1.11,1.2-3.15,0-4.24-3.9-3.55-7.91-7.06-12.6-9.53s-10.16-3.97-15.61-4.13-10.82,1.05-15.04,4.44c-3.37,2.7-5.62,7.08-5.24,11.46.55,6.33,5,11.39,9.33,15.68l3.64-4.71c-11.18-7.06-23.68-12.03-36.47-15.28-6.31-1.6-14.12-4.07-20.24-.68-4.57,2.53-6.52,8.34-3.8,12.94,1.67,2.83,4.69,4.81,7.57,6.24,3.35,1.67,6.93,2.87,10.48,4.03,1.4.46,3.47-.54,3.69-2.1.48-3.47.97-6.94,1.45-10.41.22-1.6-.39-3.22-2.1-3.69-1.4-.39-3.47.48-3.69,2.1h0l.02.02Z" fill="#3200ff" stroke-width="0"/><path d="m971.96,524.42v36.49c0,3.86,6,3.87,6,0v-36.49c0-3.86-6-3.87-6,0h0Z" fill="#3200ff" stroke-width="0"/><path d="m972.27,513.52c3.86,0,3.87-6,0-6s-3.87,6,0,6h0Z" fill="#3200ff" stroke-width="0"/><path d="m935.98,589.36c4.82,19.27,22.49,33.01,39.82,40.76,6.11,2.73,12.43,4.92,18.93,6.55,3.75.94,5.34-4.85,1.6-5.79-10.46-2.62-20.55-6.67-29.66-12.47-4.09-2.6-7.7-5.35-11.21-8.7-3.29-3.13-5.97-6.23-8.32-9.87-2.62-4.05-4.22-7.52-5.36-12.09-.94-3.74-6.72-2.16-5.79,1.6h-.01Z" fill="#32ffff" stroke-width="0"/><path d="m999.71,619.57c.5.3.98.61,1.45.95-.46-.34.16.14.25.22.23.2.46.41.68.63.18.18.36.37.53.56.06.07.56.67.33.38s.22.32.27.4c.13.2.26.41.38.61s.22.42.33.63c.36.68-.07-.31.11.24.14.44.29.86.39,1.31.05.22.09.44.12.66-.08-.49-.04-.28-.01.09.03.45,0,.89-.01,1.34-.02.73.14-.63,0,.09-.04.22-.08.44-.14.66-.11.45-.25.88-.41,1.31-.25.7.3-.52-.07.14-.11.21-.21.42-.33.63-.24.42-.51.83-.8,1.22.39-.54-.06.06-.16.18-.17.19-.34.38-.52.57-.37.38-.77.73-1.18,1.08-.27.22-.28.23-.05.04-.11.08-.23.17-.34.24-.24.16-.48.32-.72.47-.55.34-1.13.65-1.71.93-1.46.71-1.85,2.78-1.08,4.1.87,1.49,2.64,1.79,4.1,1.08,5.04-2.46,8.96-7.02,9.4-12.75s-3.18-10.46-7.79-13.21c-1.39-.83-3.29-.31-4.1,1.08s-.32,3.27,1.08,4.1h0v.02Z" fill="#32ffff" stroke-width="0"/><path d="m959.01,671.65c10,5.61,19.48,12.32,30.81,15.01,5.45,1.3,10.89,1.48,16.42.59,4.58-.74,9.43-2.24,13.21-5.02s6.59-7,4.85-11.73l-4.41,3.39c4.27,3.17,8.22,6.98,11.25,11.37,2.73,3.96,5.37,8.76,5.65,13.66.07,1.27-.01,2.48-.45,3.68-.15.41-.35.8-.57,1.18-.13.23-.27.45-.42.66-.07.11-.55.71-.16.24-.58.7-1.22,1.35-1.91,1.94-.14.12-.29.24-.44.36.4-.31-.1.07-.2.14-.45.31-.9.61-1.36.9-3.77,2.29-7.92,3.49-12.39,4.51-5.66,1.29-11.26,1.97-17.01,2.51-1.61.15-3,1.27-3,3,0,1.5,1.38,3.15,3,3,5.8-.55,11.61-1.24,17.32-2.45,5.11-1.08,10.33-2.57,14.85-5.24,4.59-2.71,8.17-6.8,8.7-12.28.57-5.87-2.24-12.18-5.27-17.07-3.75-6.06-8.86-11.07-14.56-15.29-2.06-1.53-5.28,1.02-4.41,3.39.13.36.21.72.31,1.09-.22-.78-.05.21-.01.47.02.16-.11.61.05-.18-.03.13-.04.28-.08.41-.06.2-.13.41-.18.6-.12.55.31-.44-.03.07-.18.27-.34.58-.51.86-.1.15-.44.52-.02.04-.1.12-.2.25-.31.36-.29.3-.58.59-.89.87-.13.11-.26.23-.39.34-.52.43.28-.17-.24.18-1.7,1.11-3.35,1.98-4.93,2.55-2.09.76-4.26,1.31-6.46,1.67-4.32.72-9.08.47-13.4-.56-5.11-1.22-9.91-3.28-14.52-5.76-5.04-2.72-9.85-5.84-14.85-8.65-3.37-1.89-6.4,3.29-3.03,5.18h0Z" fill="#00ff07" stroke-width="0"/><path d="m942.67,406.7c-3.83-.26-7.65-.53-11.48-.79-2.92-.2-4.16,4.3-1.51,5.59,11.29,5.51,23.25,9.55,35.51,12.27v-5.79c-3.15.45-6.48.22-9.56-.53-1.47-.36-3-.85-4.25-1.45s-2.55-1.43-3.35-2.14c-1.21-1.07-3.05-1.19-4.24,0-1.13,1.13-1.17,3.12,0,4.24,5.07,4.86,14.02,4.52,20.15,2.13,3.81-1.48,6.97-3.97,9.22-7.42,2.03-3.13,2.99-6.81,3.77-10.42l-5.48.72c2.35,4.98,13.69,2.8,11.97-3.33-.92-3.27-5.84-2.6-5.89.8-.09,5.19-.18,10.37-.27,15.56-.07,3.87,5.87,3.85,6,0,.21-6.08.42-12.16.63-18.24l-5.59,1.51c2.9,4.73,4.81,10.03,4.99,15.61.15,4.45-.24,8.77-4.85,10.84-2.32,1.04-5,1.44-7.51,1.73-2.77.31-5.57.46-8.36.46-5.49,0-10.95-.6-16.3-1.85-5.59-1.3-11.01-3.26-15.97-6.18l-1.51,5.59c13.38-.18,26.78.8,39.96,3.11l.8-5.89c-7.27.76-14.87-.46-21.28-3.8-2.89-1.51-5.1-3.03-7.21-5.48-.6-.7-1.36-1.84-1.96-3.09.27.57-.16-.42-.2-.54-.08-.25-.16-.51-.23-.77-.09-.34-.16-.69-.22-1.03.12.72-.01-.37-.02-.51l-3.8,2.89c10.66,3.07,21.05,7.01,30.95,12.04,1.44.73,3.25.38,4.1-1.08.78-1.34.37-3.37-1.08-4.1-10.35-5.26-21.23-9.44-32.38-12.65-1.81-.52-3.88.95-3.8,2.89.54,12.28,14.83,19.03,25.32,20.78,3.9.65,7.84.85,11.78.44,1.48-.15,2.76-1.02,2.95-2.6.16-1.36-.66-3.03-2.15-3.29-13.72-2.4-27.63-3.51-41.56-3.32-2.96.04-4.1,4.07-1.51,5.59,10.41,6.13,22.87,8.76,34.86,8.84,6.25.04,13.18-.26,18.96-2.83s7.93-7.96,8.18-13.86c.31-7.4-1.95-14.7-5.8-20.97-1.58-2.57-5.49-1.46-5.59,1.51-.21,6.08-.42,12.16-.63,18.24h6c.09-5.19.18-10.37.27-15.56l-5.89.8c-.18-.64.08-1.31.5-1.79-.22.21-.16.16.2-.13-.11.07-.22.14-.34.19.03-.19.56-.14-.09,0-.17.04-1.16.18-.36.11-.31.03-.65-.01-.95.03-.52.08.37.22-.11,0-.79-.36.19.2-.23-.04.35.3.41.35.19.14.28.4.34.46.2.18-1.09-2.32-4.96-1.71-5.48.72-.65,2.98-1.33,5.89-2.79,8.38-.81,1.37-1.76,2.49-3.02,3.52-.88.72-2.39,1.52-2.98,1.75-2.87,1.12-5.31,1.5-8.29,1.38-1.42-.06-2.07-.14-3.54-.59-.12-.04-.95-.34-.74-.25s-.55-.28-.65-.33c-.24-.13-.46-.28-.69-.43-.28-.2-.29-.21-.02-.01-.13-.11-.26-.23-.38-.35l-4.24,4.24c6.15,5.44,15.1,6.8,23,5.66,2.97-.43,2.75-5.17,0-5.79-11.74-2.61-23.25-6.38-34.07-11.67l-1.51,5.59c3.83.26,7.65.53,11.48.79,1.62.11,3-1.46,3-3,0-1.72-1.38-2.89-3-3h0l-.03.03Z" fill="#ff0007" stroke-width="0"/><path d="m918.47,6.13c14.15-.03,28.29-.06,42.44-.1,3.5,0,6.99-.02,10.49-.02,1.64,0,3.29-.05,4.93.02,1.06.04,2.64.2,3.29.69.04.03.37.43.16.12.04.06.37.87.21.38.06.19.1.39.15.58-.13-.58.02.33.03.39.08,1.6,0,3.23-.01,4.84-.03,3.46-.05,6.92-.08,10.38-.05,6.92-.1,13.83-.15,20.75-.02,3.15.31,6.33,2.7,8.65,2.07,2,4.98,2.91,7.76,3.35,6.51,1.01,13.31.85,19.88.65,7.04-.22,14.06-.86,21.03-1.85,5.65-.8,11.28-1.71,16.98-2.06,5.4-.33,10.79-.26,15.88,1.57,2.01.73,3.97,1.82,5.42,3.4.13.15.26.29.39.45-.36-.44.2.29.21.32.25.39.47.79.68,1.2.26.52.05.14.01.03.09.25.18.5.25.76.06.21.1.43.15.64.18.74.04-.2.06.38.01.44.04.88.02,1.32,0-.01-.08.85-.02.4s-.08.42-.08.4c-.09.45-.21.9-.35,1.33-.09.27-.18.53-.29.79.2-.48-.12.24-.17.33-1.02,2.03-2.04,3.21-3.81,4.74-3.7,3.18-9.27,4.89-14.23,5.89-5.72,1.15-11.6,1.38-17.42,1.22-10.85-.3-21.56-2.48-32.45-2.1-8.86.31-21.48,2.48-22.41,13.46-.27,3.2.36,6.53.68,9.71.34,3.48.68,6.96,1.02,10.44.69,7.04,1.38,14.09,2.07,21.13s1.38,14.09,2.07,21.13c.34,3.48.68,6.96,1.02,10.44.22,2.23.36,4.39.23,6.63-.06.92.13-.56-.04.35-.04.24-.08.47-.13.71-.1.47-.22.93-.38,1.38-.08.23-.15.45-.25.67.24-.56-.17.29-.18.33-.09.17-.19.34-.29.5-.06.1-.69.94-.39.59-1.47,1.76-3.42,2.62-5.83,3.16-3.02.67-6.17.66-9.25.8-3.44.15-6.89.3-10.33.45s-6.89.3-10.33.45c-2.74.12-6.48.77-8.91-.49-.56-.29-.48-.23-.89-.68-.07-.08-.3-.45-.06-.07-.15-.23-.29-.48-.4-.74.2.49.03.03.01-.06-.05-.27-.14-.54-.19-.81.12.57,0-.01-.01-.17-.02-.33-.03-.65-.03-.98.03-2.97.53-5.97.75-8.94,1.05-13.76,1.1-27.59.15-41.36-.97-13.92-2.86-27.87-5.88-41.5-.59-2.68-1.79-5.15-4.2-6.64-2.63-1.63-5.93-1.73-8.91-1.38-3.21.37-6.37,1.09-9.55,1.62s-6.4.98-9.63,1.27c-10.58.95-24.31.85-31.91-7.4-.21-.23-.41-.46-.61-.7.26.32-.05-.06-.08-.11-.31-.43-.6-.88-.85-1.34-.11-.2-.21-.41-.32-.62.28.57-.08-.21-.1-.29-.06-.17-.11-.34-.15-.51-.02-.09-.21-1.01-.15-.62.07.46-.02-.35-.02-.36-.01-.26,0-.51,0-.76,0-.15.1-.55-.02.04.05-.25.1-.51.18-.75.12-.41.67-1.44,1.02-1.83.67-.76,1.38-1.36,1.92-1.73,1.01-.68,2.1-1.28,3.23-1.74,2.01-.83,4.8-1.52,7.19-1.92,12.7-2.13,25.48,1.83,38.22,1.79,6.06-.02,12.65-1.58,14.67-8.05.89-2.84.86-6.09.91-9.03.05-3.25-.11-6.5-.48-9.72-.75-6.53-2.24-12.92-4.5-19.1-.56-1.52-2.04-2.55-3.69-2.1-1.47.4-2.65,2.16-2.1,3.69,2.33,6.38,3.95,13.04,4.52,19.81.27,3.23.33,6.49.18,9.73-.04.77-.08,1.54-.14,2.32-.03.36-.06.73-.1,1.09-.12,1.01.12-.54-.07.46-.22,1.1-.5,1.99-.92,2.54-1.5,1.95-4.44,2.22-6.75,2.32-3.32.15-6.66-.13-9.96-.45-6.87-.66-13.71-1.76-20.62-1.89-5.79-.11-11.87.47-17.34,2.49-4.63,1.71-9.49,4.67-10.96,9.71-1.36,4.66,1.04,9.34,4.33,12.54,4,3.9,9.37,6.35,14.78,7.53,6.64,1.45,13.5,1.56,20.24.99,3.45-.29,6.89-.76,10.31-1.3,3.11-.5,6.21-1.23,9.34-1.63,1.34-.17,2.8-.31,4.13-.09.8.13,1.88.62,2.16.97.62.77.76,1.53,1.02,2.73.39,1.76.74,3.54,1.09,5.31,1.33,6.79,2.42,13.64,3.24,20.51,1.67,14.03,2.31,28.19,1.88,42.32-.21,6.92-.78,13.8-1.38,20.69-.21,2.35.01,4.85,1.22,6.93,1.47,2.54,4.19,3.94,7.02,4.37,3.5.53,7.11.13,10.63-.03s7.05-.31,10.58-.46,7-.29,10.5-.46,6.84-.35,10.02-1.46c5.01-1.76,8.71-5.63,9.59-10.95.37-2.22.41-4.42.21-6.66-.3-3.46-.67-6.91-1.01-10.36-1.41-14.42-2.82-28.84-4.23-43.26-.34-3.48-.68-6.96-1.02-10.44-.18-1.82-.36-3.65-.53-5.47-.16-1.59-.39-3.22-.27-4.82.08-1.15.5-2,1.04-3,.35-.65-.4.38.11-.15.14-.15.26-.3.4-.45s.28-.29.43-.42c.06-.06.74-.63.45-.4-.36.28.31-.21.3-.21.21-.14.43-.28.65-.41.38-.22.76-.43,1.16-.62-.03.01.77-.35.38-.18s.45-.17.41-.16c.54-.2,1.08-.38,1.63-.54,4.48-1.32,8.89-1.45,13.78-1.36,5.3.09,10.59.6,15.86,1.2,12,1.37,24.7,1.85,36.38-1.78,5.16-1.6,10.3-4.05,13.88-8.22,3.19-3.71,5.08-8.41,4.14-13.33s-5.04-8.45-9.44-10.36c-5.31-2.3-11.16-2.83-16.9-2.66-6.11.18-12.18,1.11-18.22,1.98-6.66.97-13.34,1.67-20.07,1.96-3.5.15-7,.2-10.5.15-3.18-.04-6.43-.04-9.58-.45-1.29-.17-2.59-.43-3.81-.88-.88-.32-1.66-.72-2.18-1.59-.31-.52-.07-.04-.25-.61.03.08-.21-1.02-.15-.59-.08-.58-.07-1.18-.07-1.76,0-1.76.02-3.53.04-5.29.05-7.08.1-14.16.15-21.24.02-3.41.22-6.87.05-10.27-.16-3.12-1.53-5.82-4.49-7.12s-6.53-1.07-9.78-1.06l-10.98.02c-7.16.02-14.31.03-21.47.05-6.99.02-13.98.03-20.97.05-3.86,0-3.87,6.01,0,6h-.02Z" fill="#ff0" stroke-width="0"/><path d="m953.68,81.65c6.28,10.11,8.77,22.03,5.9,33.68h2.89c-3.4-13.64-6.8-27.28-10.2-40.92-.25-1.01-1.8-1.56-2.51-.66-7.86,9.95-11.61,22.54-8.33,35.02.43,1.63,2.96,1.3,2.95-.4-.06-7.33-.11-14.67-.17-22-.01-1.93-3-1.93-3,0-.03,14.95-.06,29.9-.1,44.86-.02,7.48-.03,14.95-.05,22.43l-.02,10.96c0,2.77-.12,5.62.62,8.32,2.93,10.77,17.08,10.63,25.47,7.3,4.86-1.93,8.79-5.18,10.8-10.12,2.23-5.47,1.49-11.51,1-17.23-1.43-16.67-2.87-33.34-4.3-50.01-.16-1.9-2.98-1.96-3,0-.14,14.2-.99,28.38-2.53,42.49l2.8-.76c-7.42-12.29-11.73-26.24-11.47-40.66.04-1.93-2.95-1.93-3,0-.3,10.62-.6,21.24-.9,31.87l2.95-.4c-4.09-12.73-6.84-25.85-8.05-39.17l-2.95.4c2.62,17.79,5.24,35.59,7.86,53.38.75,5.11,1.5,10.21,2.26,15.32.28,1.9,3.17,1.09,2.89-.8-1.32-9.07-2.64-18.15-3.96-27.22-.25-1.7-2.95-1.25-2.95.4,0,10.33.01,20.65.02,30.98,0,1.96,2.82,1.89,3,0,1.2-12.37-1.49-24.7-7.07-35.76-.59-1.18-2.42-.84-2.74.36-3.91,14.33-1.16,29.31,6.54,41.89.63,1.03,1.94.9,2.59,0,5.25-7.23,8.23-15.99,7.41-24.97-.18-1.94-2.8-1.92-3,0-.73,7.01,2.29,13.59,6.98,18.67.62.67,1.95.56,2.36-.3,3.62-7.6,4.54-16.03,2.23-24.16l-2.89.8c1.93,5.8,4.21,13.05-.59,18.1-4.02,4.23-10.51,6.14-16.21,5.15-1.89-.33-2.7,2.55-.8,2.89,5.99,1.07,10.98-2.64,13.07-8.13,1.2-3.15,1.47-6.81,1.92-10.12.53-3.9.92-7.82,1.12-11.75.83-15.67-1.06-31.47-5.36-46.55-2.5-8.75-5.81-17.26-9.77-25.44l-2.59,1.51c1.79,2.43-.58,4.75-2.65,6.03-3.44,2.13-7.6,2.56-11.56,2.5-4.45-.07-8.83-.85-13.19-1.65-4.66-.85-9.32-1.7-13.98-2.56s-9.32-1.7-13.98-2.56c-2.29-.42-4.58-.84-6.87-1.26-2.06-.38-4.16-.66-6.17-1.29-1.52-.48-3.09-1.11-4.37-2.07-.29-.22-.99-.69-1.05-1.1-.01-.08.08-.21.34-.41,1.41-1.08,3.86-.84,5.52-.88,2.4-.05,4.81-.1,7.21-.16,10.61-.23,21.21-.46,31.82-.69,1.39-.03,2.16-2.12.76-2.8-12.37-5.9-27.28-6.89-40.51-3.65-1.35.33-1.51,2.68,0,2.89,13.16,1.87,26.33,3.74,39.49,5.62l.4-2.95c-13.8.33-27.59.66-41.39.99-1.66.04-2.08,2.51-.4,2.95,16.25,4.18,32.96,6.55,49.72,7.26,4.89.21,9.78.26,14.67.18v-3c-10.04,1.12-20.08,2.24-30.12,3.36l.4,2.95c9.47-1.52,19.05-3.01,28.67-2.35,4.25.29,8.47,1.08,12.49,2.52,3.28,1.17,6.59,2.84,9.01,5.39,1.3,1.37,2.09,2.93,2.53,4.76.54,2.28.84,4.52,2.12,6.54.52.82,1.64.99,2.36.3,3.33-3.22,2.18-7.79-1.46-10.17-.92-.6-2.33.18-2.26,1.3.16,2.37.32,4.75.49,7.12l2.56-1.06c-3.23-3.3-1.96-7.5.93-10.56,3.9-4.13,9.51-5.99,14.93-7.14,6.31-1.34,12.8-1.63,19.23-1.8,6.88-.18,13.76-.27,20.64-.4s14.01-.27,21.02-.4c3.3-.06,6.62-.02,9.91-.29,2.56-.21,5.25-.58,7.53-1.83,1.97-1.08,3.51-2.99,3.32-5.34s-1.93-4.33-3.83-5.63c-4.92-3.37-11.9-3.25-17.61-3.3-15.89-.15-31.78.3-47.64,1.31v3c18.95-1.35,38.03-.83,56.88,1.61l-.4-2.95c-15.86,2.91-32.03,4.11-48.16,3.69-4.64-.12-9.28-.38-13.91-.77-1.68-.14-2.05,2.6-.4,2.95,16.17,3.44,32.66,5.26,49.18,5.56,1.93.03,1.93-2.94,0-3-21.99-.7-44.03.29-65.86,3.03-6.1.77-12.19,1.67-18.25,2.7l1.85,1.05c-1.99-6.65-3.99-13.3-5.98-19.95-.48-1.59-2.98-1.33-2.95.4.09,4.82.18,9.65.26,14.47l2.8-.76c-2.2-4.49,1.77-8.56,5.53-10.43l-2.05-.54c3.71,5.72,7.43,11.45,11.14,17.17.65,1,2.48.98,2.74-.36.98-5.06,1.96-10.12,2.94-15.18l-2.51.66c3.29,2.81,6.57,5.63,9.86,8.44,1.27,1.09,3.19-.26,2.36-1.82-2.03-3.78-4.05-7.57-6.08-11.35-.5-.92-2.13-1.03-2.59,0-3.1,6.93-4.04,14.43-2.4,21.87l2.74-1.16c-4.54-10.49-9.85-20.62-15.81-30.37-.58-.95-2.01-.99-2.59,0-2.82,4.83-5.63,9.66-8.45,14.49h2.59c-2.58-3.4-4.06-7.47-3.31-11.76.34-1.92-2.18-2.59-2.89-.8-2.47,6.2-4.93,12.4-7.4,18.6l2.2-.9c-2.31-1.27-4.66-3.3-4.82-6.12l-2.8.76c.89,1.86-1.65,3.51-2.99,4.2-2.47,1.26-5.45,1.6-8.11.79l.9,2.2c10.78-14.54,17.81-31.8,18.51-50.01.07-1.93-2.93-1.93-3,0-.68,17.69-7.63,34.37-18.1,48.49-.6.81.06,1.95.9,2.2,3.69,1.11,7.95.48,11.22-1.55,2.74-1.7,4.8-4.64,3.27-7.85-.64-1.34-2.88-.69-2.8.76.23,3.93,3,6.89,6.31,8.71.92.51,1.84,0,2.2-.9,2.47-6.2,4.93-12.4,7.4-18.6l-2.89-.8c-.89,5.07.52,10,3.61,14.07.66.87,1.97,1.06,2.59,0,2.82-4.83,5.63-9.66,8.45-14.49h-2.59c5.96,9.75,11.28,19.88,15.81,30.37.7,1.62,3.09.42,2.74-1.16-1.46-6.59-.66-13.41,2.1-19.56h-2.59c2.03,3.78,4.05,7.57,6.08,11.35l2.36-1.82c-3.29-2.81-6.57-5.63-9.86-8.44-.78-.67-2.28-.53-2.51.66-.98,5.06-1.96,10.12-2.94,15.18l2.74-.36c-3.71-5.72-7.43-11.45-11.14-17.17-.46-.71-1.3-.91-2.05-.54-5.4,2.68-9.55,8.53-6.61,14.53.67,1.36,2.82.68,2.8-.76-.09-4.82-.18-9.65-.26-14.47l-2.95.4c1.99,6.65,3.99,13.3,5.98,19.95.25.83,1.03,1.19,1.85,1.05,21.39-3.65,43.06-5.57,64.76-5.82,6.19-.07,12.37,0,18.56.19v-3c-16.26-.29-32.47-2.07-48.38-5.45l-.4,2.95c16.35,1.37,32.83,1.08,49.12-.93,4.6-.57,9.18-1.27,13.74-2.1,1.82-.33,1.12-2.75-.4-2.95-18.85-2.44-37.92-2.96-56.88-1.61-1.91.14-1.93,3.12,0,3,14.04-.9,28.1-1.34,42.17-1.33,6.17,0,12.88-.47,18.81,1.56,1.96.67,4.69,2.1,5.09,4.39.38,2.16-2.42,3.15-4.04,3.58-2.69.7-5.51.73-8.27.78-3.46.07-6.92.13-10.39.2-7.01.13-14.01.27-21.02.4s-13.51.16-20.25.47c-6.17.28-12.41.83-18.39,2.45-5.66,1.54-11.27,4.16-14.82,9.01-3.01,4.12-3.1,9.28.56,13.01.87.88,2.65.26,2.56-1.06-.16-2.37-.32-4.75-.49-7.12l-2.26,1.3c2.07,1.35,2.74,3.63.85,5.46l2.36.3c-1.2-1.9-1.36-4.09-1.91-6.22-.46-1.76-1.26-3.33-2.39-4.75-2.29-2.88-5.61-4.82-8.95-6.24-8.74-3.71-18.46-4.09-27.81-3.32-5.75.47-11.46,1.38-17.15,2.29-1.65.26-1.28,3.13.4,2.95,10.04-1.12,20.08-2.24,30.12-3.36,1.87-.21,1.98-3.03,0-3-16.74.27-33.52-1.1-49.96-4.27-4.57-.88-9.12-1.91-13.63-3.07l-.4,2.95c13.8-.33,27.59-.66,41.39-.99,1.61-.04,2.14-2.7.4-2.95-13.16-1.87-26.33-3.74-39.49-5.62v2.89c12.41-3.04,26.59-2.19,38.2,3.35l.76-2.8c-10.77.23-21.54.47-32.31.7-2.62.06-5.25.09-7.88.17-2.03.06-4.32.16-6.04,1.38-1.23.87-1.99,2.24-1.52,3.76s1.81,2.48,3.05,3.24c3.86,2.36,8.45,2.84,12.81,3.64,5.23.96,10.47,1.91,15.7,2.87,5.31.97,10.63,1.94,15.94,2.92,4.94.9,9.93,1.86,14.97,1.94s10.09-.62,14.08-3.6c2.95-2.2,5.24-6.03,2.72-9.45-1.14-1.54-3.44-.25-2.59,1.51,12.96,26.79,18.03,57.1,12.92,86.53-.5,2.89-.97,5.66-2.87,8.01s-4.64,3.58-7.64,3.04l-.8,2.89c6.74,1.17,14.34-.87,19.13-5.92,5.64-5.95,3.69-14.06,1.37-21.02-.61-1.82-3.43-1.08-2.89.8,2.08,7.33,1.34,14.98-1.93,21.85l2.36-.3c-4.19-4.54-6.75-10.3-6.1-16.54h-3c.78,8.52-2.02,16.61-7,23.46h2.59c-7.29-11.92-9.95-26-6.24-39.58l-2.74.36c5.35,10.61,7.81,22.39,6.66,34.24h3c0-10.33-.01-20.65-.02-30.98l-2.95.4c1.32,9.07,2.64,18.15,3.96,27.22l2.89-.8c-2.62-17.79-5.24-35.59-7.86-53.38-.75-5.11-1.5-10.21-2.26-15.32-.24-1.66-3.1-1.28-2.95.4,1.23,13.58,3.98,26.98,8.15,39.97.52,1.6,2.9,1.32,2.95-.4.3-10.62.6-21.24.9-31.87h-3c-.27,14.92,4.2,29.45,11.88,42.17.82,1.36,2.64.66,2.8-.76,1.54-14.11,2.39-28.3,2.53-42.49h-3c1.21,14.03,2.41,28.06,3.62,42.08.31,3.59.62,7.18.93,10.77.22,2.6.4,5.22.2,7.83-.38,5-2.66,9.64-7.03,12.28-3.96,2.4-8.8,3.52-13.41,3.41s-9.39-1.65-11.08-6.15c-.87-2.3-.82-4.81-.82-7.23l.02-10.72c.02-6.98.03-13.96.05-20.93.03-15.95.07-31.9.1-47.85h-3c.06,7.33.11,14.67.17,22l2.95-.4c-2.99-11.37.38-23.01,7.56-32.1l-2.51-.66c3.4,13.64,6.8,27.28,10.2,40.92.36,1.43,2.54,1.43,2.89,0,3.07-12.41.5-25.21-6.2-35.99-1.02-1.64-3.61-.13-2.59,1.51h0l-.03.07Z" fill="#ff0" stroke-width="0"/><path d="m934.13,8.67c2.45,15.27,8.33,29.8,16.52,42.89.83,1.33,2.66.69,2.8-.76,1.03-11.09-1.71-22.08-7.1-31.76-.76-1.36-2.71-.66-2.8.76-.83,13.99,6.55,26.76,16.71,35.86.68.61,1.89.6,2.36-.3,3.36-6.5,4.52-13.74,2.96-20.92-.36-1.67-2.96-1.28-2.95.4.08,7.62.16,15.23.24,22.85h3c-1.2-10.9-.91-21.95.99-32.75.46-2.61,1.2-5.19,1.55-7.81.28-2.09-.15-4.09-1.62-5.66-2.31-2.47-6.08-3.09-9.28-3.3-4.46-.29-9,.31-13.37,1.22-1.9.39-1.09,3.25.8,2.89,3.91-.74,7.86-1.29,11.85-1.41,3.59-.11,7.4.03,10.77,1.39,1.3.52,2.55,1.28,3.47,2.35,1.44,1.69,1.61,4,1.87,6.11.65,5.36,1.31,10.73,1.96,16.09.73,6.02,1.47,12.05,2.2,18.07.23,1.89,2.85,1.96,3,0,.98-12.82-5.63-24.63-14.88-33.06-.87-.79-2.13-.42-2.51.66-2.67,7.68-3.93,15.79-3.58,23.92l2.56-1.06c-5.96-6.47-9.81-14.73-9.22-23.65h-3c-.14,12.78-.28,25.57-.41,38.35l2.26-1.3c-5.73-4.06-10.65-9.64-12.46-16.55-.43-1.66-2.91-1.28-2.95.4-.15,6.28-.29,12.56-.44,18.85l2.26-1.3c-1.51-1-3.03-1.99-4.54-2.99l-1.16,2.74c12.23,2.15,24.68,2.84,37.08,2.06l-.4-2.95c-12.55,4.01-25.8,5.56-38.94,4.96-1.95-.09-1.89,2.82,0,3,21.23,1.97,42.59,2.57,63.9,1.8,6.06-.22,12.12-.55,18.17-.99,1.91-.14,1.95-2.96,0-3-12.88-.27-25.77-.54-38.65-.81-1.93-.04-1.93,2.93,0,3,21.72.8,43.49.14,65.12-2.01,6.1-.61,12.19-1.34,18.27-2.18l-1.69-2.2c-2.89,5.86-9.58,8.87-15.48,10.76-7.89,2.52-16.24,3.48-24.5,3.62-10.14.16-20.27-.59-30.41-.5-4.97.05-9.93.32-14.85.99-4.17.57-9.44,1.14-12.53,4.36s-2.52,8.7-2.57,12.96c-.06,5.92-.13,11.85-.19,17.77l2.8-.76c-3.77-6.53-7.54-13.05-11.31-19.58-.91-1.58-2.98-.43-2.74,1.16,2.25,14.94,4.5,29.88,6.75,44.83l1.85-1.85c-2.8-.74-6.66-2.69-6.53-6.1.07-1.93-2.93-1.93-3,0-.19,4.82,4.61,7.9,8.73,8.99,1.2.32,2.01-.75,1.85-1.85-2.25-14.94-4.5-29.88-6.75-44.83l-2.74,1.16c3.77,6.53,7.54,13.05,11.31,19.58.75,1.3,2.78.72,2.8-.76.06-5.18.11-10.37.17-15.55.03-2.5.04-4.99.08-7.49.03-1.68.13-3.45,1.08-4.89,1.13-1.71,3.21-2.49,5.1-3.01,2.34-.65,4.78-1.02,7.19-1.33,4.88-.61,9.8-.81,14.72-.83,18.02-.06,36.44,2.37,53.98-3.06,6.78-2.1,14.49-5.58,17.8-12.3.62-1.26-.4-2.38-1.69-2.2-21.34,2.95-42.89,4.39-64.43,4.41-6.05,0-12.11-.11-18.16-.33v3c12.88.27,25.77.54,38.65.81v-3c-21.28,1.54-42.66,1.73-63.96.54-6.05-.34-12.08-.79-18.11-1.35v3c13.39.61,26.96-.98,39.74-5.07,1.54-.49,1.36-3.06-.4-2.95-12.12.76-24.32.16-36.28-1.95-1.65-.29-2.63,1.77-1.16,2.74l4.54,2.99c.98.65,2.23-.21,2.26-1.3.15-6.28.29-12.56.44-18.85l-2.95.4c2.02,7.69,7.48,13.83,13.84,18.34.96.68,2.25-.24,2.26-1.3.14-12.78.28-25.57.41-38.35.02-1.95-2.88-1.91-3,0-.63,9.7,3.64,18.75,10.1,25.77.87.94,2.62.22,2.56-1.06-.34-7.89.88-15.67,3.47-23.12l-2.51.66c8.72,7.95,14.92,18.85,14,30.94h3c-1.41-11.55-2.81-23.11-4.22-34.66-.29-2.35-.56-4.76-1.93-6.76-.97-1.42-2.34-2.55-3.86-3.35-3.42-1.79-7.43-2.22-11.24-2.26-4.92-.05-9.84.63-14.66,1.54l.8,2.89c3.57-.74,7.22-1.21,10.87-1.18,2.77.03,6.34.21,8.53,2.15,1.5,1.33,1.23,3.17.83,4.95-.54,2.44-1.04,4.9-1.44,7.37-.81,4.98-1.33,10-1.5,15.04-.2,5.7.03,11.4.65,17.07.21,1.87,3.02,1.98,3,0-.08-7.62-.16-15.23-.24-22.85l-2.95.4c1.38,6.36.32,12.85-2.65,18.61l2.36-.3c-9.61-8.61-16.61-20.49-15.83-33.74l-2.8.76c5.15,9.25,7.68,19.66,6.69,30.25l2.8-.76c-8.06-12.89-13.8-27.13-16.21-42.17-.3-1.9-3.2-1.09-2.89.8h0l-.06.04Z" fill="#ff0" stroke-width="0"/><path d="m952.02,16.2c-2.99,4.39-3.98,9.77-2.25,14.85.2.59.77,1.15,1.45,1.1,2.77-.18,4.93-1.52,6.59-3.71,1.35-1.79,2.16-3.97,3.61-5.67,1.36-1.6,3.97-1.83,5.17.34,1,1.81,1.34,4.16,1.91,6.14.71,2.46,1.43,4.92,2.14,7.38,1.64,5.63,3.27,11.26,4.91,16.89l2.2-1.69c-3.66-2.12-7.39-5.92-6.72-10.53l-2.95-.4v125.57c0,1.93,3,1.93,3,0V40.9c0-1.63-2.7-2.12-2.95-.4-.88,6.06,3.09,11.02,8.1,13.92,1.12.65,2.57-.43,2.2-1.69-1.52-5.23-3.04-10.47-4.56-15.7-.78-2.7-1.57-5.39-2.35-8.09-.64-2.21-1.12-4.56-2.04-6.67-1.28-2.95-4.85-4.59-7.89-3.32-2.25.94-3.46,3.21-4.62,5.22-1.33,2.31-2.82,4.8-5.76,5l1.45,1.1c-1.49-4.39-.63-8.75,1.95-12.54,1.09-1.6-1.51-3.1-2.59-1.51h0v-.02Z" fill="#ff0" stroke-width="0"/><path d="m1736.74,756.33c3.01,13.57,6.01,27.14,9.02,40.7.42,1.88,3.31,1.09,2.89-.8-3.01-13.57-6.01-27.14-9.02-40.7-.42-1.88-3.31-1.09-2.89.8h0Z" fill="#00d90d" stroke-width="0"/><path d="m1811.04,719.01c3.69,21.97,7.38,43.95,11.08,65.92,1.05,6.23,2.09,12.46,3.14,18.69.32,1.9,3.21,1.09,2.89-.8-3.69-21.97-7.38-43.95-11.08-65.92-1.05-6.23-2.09-12.46-3.14-18.69-.32-1.9-3.21-1.09-2.89.8h0Z" fill="#00d90d" stroke-width="0"/><path d="m1852.71,776.52c.2-.02.4-.04.6-.04.1,0,.2,0,.3.01.12,0,.45.08-.02-.01.37.07.72.15,1.07.28.39.14-.2-.1.04.01.08.04.16.07.23.11.18.09.35.2.52.31.07.05.14.1.21.15.22.15-.28-.23.04.03.14.12.28.25.42.38s.26.27.38.42c.04.04.07.09.11.13-.14-.18-.17-.22-.1-.13.06.08.12.16.17.25.11.17.21.34.31.52.04.08.08.15.11.23.13.26-.13-.34,0,0,.14.37.2.74.29,1.11-.11-.43-.03-.19-.02-.06,0,.11.01.23.01.34,0,.2-.01.4-.04.6-.04.36.2.82.44,1.06.26.26.69.46,1.06.44s.79-.14,1.06-.44c.29-.31.39-.64.44-1.06.49-4.09-3.57-8.14-7.65-7.65-.41.05-.76.13-1.06.44-.26.26-.46.69-.44,1.06.03.73.67,1.6,1.5,1.5h.02Z" fill="#00d90d" stroke-width="0"/><path d="m1885.69,724.94c-1.5,18.93-.51,37.99,2.87,56.67.34,1.9,3.24,1.09,2.89-.8-3.34-18.41-4.25-37.22-2.77-55.88.15-1.92-2.85-1.91-3,0h.01Z" fill="#00d90d" stroke-width="0"/><path d="m1926.68,781.8c2.06,4.18,4.11,8.36,6.17,12.54.36.73,1.39.93,2.05.54.74-.43.9-1.32.54-2.05-2.06-4.18-4.11-8.36-6.17-12.54-.36-.73-1.39-.93-2.05-.54-.74.43-.9,1.32-.54,2.05h0Z" fill="#00d90d" stroke-width="0"/><path d="m1952.02,709.02c-3.68,23.88-2.99,48.33,2.08,71.96,1.43,6.67,3.22,13.25,5.34,19.74.6,1.83,3.49,1.05,2.89-.8-7.38-22.58-10.58-46.43-9.43-70.16.32-6.68.99-13.33,2.01-19.94.29-1.89-2.6-2.7-2.89-.8h0Z" fill="#00d90d" stroke-width="0"/><path d="m1980.37,764.05c4.55,1.59,8.06,6.12,8.47,10.87.07.81.64,1.5,1.5,1.5.76,0,1.57-.69,1.5-1.5-.54-6.23-4.77-11.7-10.67-13.76-.76-.27-1.64.3-1.85,1.05-.23.83.28,1.58,1.05,1.85h0Z" fill="#00d90d" stroke-width="0"/><path d="m2008.62,766.74c.54.14,1.07.31,1.58.52-.28-.11.09.04.15.07.13.06.25.12.37.18.25.13.49.26.73.4s.47.29.7.45c.11.08.23.16.34.24.28.2-.11-.1.13.11.44.38.87.76,1.27,1.18.19.2.37.41.55.63.04.05.09.11.13.16-.08-.1-.09-.11-.02-.03.08.11.16.22.24.34.32.45.61.93.86,1.42.13.25.25.5.36.75.04.1.04.08-.02-.04.03.06.05.13.08.19.05.13.1.26.14.39.19.55.33,1.11.44,1.67.14.77,1.12,1.28,1.85,1.05.83-.27,1.2-1.02,1.05-1.85-.95-5.12-5.09-9.45-10.12-10.73-.76-.19-1.66.25-1.85,1.05s.23,1.64,1.05,1.85h-.01Z" fill="#00d90d" stroke-width="0"/></g></svg>