<?xml version="1.0" encoding="UTF-8"?><svg id="Layer_2" xmlns="http://www.w3.org/2000/svg" viewBox="0 0 249.71 151.51"><g id="Layer_1-2"><path d="m23.22,102.08c-.03.06-.52.85-.12.34l-.17.19c-.25.23-.24.23.05,0l-.2.12c.36-.13.39-.14.07-.03-.52,0-.04.05.09.03-.25.03-.5.01-.75.01-.74,0,.47.2-.26-.05-.27-.09-.55-.15-.82-.24-.85-.29.44.24-.39-.17-2.01-.99-3.84-2.64-4.92-4.26-3.6-5.4-7.1-11.19-8.85-17.49-.78-2.81-1.18-5.69-.94-8.6.16-2,.91-4.81,1.83-6.69,2.08-4.26,5.51-7.59,10.14-8.08,5.85-.61,11.8,1.62,17.58-.11,3.08-.92,5.54-2.89,7.29-5.57,1.56-2.39,2.45-5.38,3.5-7.88,4.26-10.12,13.33-18.09,23.97-20.58,11.39-2.67,24.66,1.88,31.46,11.72,1.17,1.7,4.13,2.19,5.18,0,5.16-10.69,12.94-20.59,23.81-25.78,9.42-4.5,20.28-3.93,29,1.75,4.51,2.94,7.94,7.31,9.26,12.61.51,2.03,2.71,2.57,4.41,1.79,15.05-6.87,31.99-14.39,48.54-9.71,6.44,1.82,12.65,5.48,16.35,11.02,3.32,4.98,4.07,10.79,2.56,16.42-.21.78-.45,1.54-.74,2.29-.07.19-.14.37-.22.56.16-.38-.05.1-.11.24-.19.4-.38.8-.59,1.2-.37.69-.77,1.37-1.22,2.01-.11.16-.22.32-.34.48-.3.42.04-.03-.15.2-.24.3-.49.59-.75.88-.55.6-1.14,1.16-1.76,1.69-.44.38-.17.15-.06.07-.19.15-.38.28-.58.42-.31.22-.64.42-.96.62-.37.22-.75.43-1.14.62-.13.06-.26.12-.39.18-.29.13.28-.09-.22.09-.84.31-1.69.55-2.56.73-1.28.26-2.2,1.64-2.2,2.89,0,1.38.95,2.45,2.2,2.89,3.69,1.31,7.37,4.23,9.65,7.45.65.92,1.24,1.89,1.78,2.88s.98,1.97,1.25,2.67c.41,1.07.76,2.16,1.05,3.27.14.56.27,1.12.39,1.68.05.26.1.51.15.77.02.11.19,1.24.13.75.61,4.73.21,8.69-1.47,13.06-1.55,4.03-4.82,8.14-8.64,11.08-7.56,5.83-18.33,8.21-27.64,6.42-6.1-1.17-12.4-4.25-18.68-2.34s-8.73,7.69-11.58,12.95c-4.31,7.97-10.95,13.7-19.3,17.53-1.07.49-1.46.65-2.73,1.13-1.17.44-2.36.84-3.56,1.19-2.22.66-4.49,1.19-6.77,1.58-4.15.72-9.25.97-13.94.7-2.53-.15-4.34-.36-6.61-.75s-4.66-.94-6.94-1.59c-4.81-1.39-8.69-3.04-13.03-5.55-5.68-3.28-11.51-7-18.34-6.6s-13.24,3.85-19.6,6.17c-6.68,2.44-13.47,4.58-20.35,6.4-3.36.89-6.74,1.71-10.14,2.45-3.04.67-6.15,1.45-9.29,1.26-2.37-.14-4.4-1.29-5.56-3.02-1.39-2.08-2-4.5-2.4-7.06-.94-6.02-.61-13.06.69-19.28.68-3.27,1.64-6.47,2.83-9.58.58-1.51-.64-3.29-2.1-3.69-1.69-.46-3.11.58-3.69,2.1-2.59,6.76-4,13.97-4.2,21.2-.17,6.15.12,13.3,3.32,18.75,1.67,2.84,4.23,4.98,7.39,5.97s6.87.64,10.22.04c7.05-1.27,14.05-3.12,20.92-5.15s14.13-4.56,21.02-7.32c3.19-1.28,6.51-2.73,9.95-3.17,2.94-.37,5.81.22,8.5,1.4,2.97,1.31,5.71,3.12,8.53,4.71,2.32,1.31,4.73,2.44,7.19,3.45,4.64,1.91,9.49,3.25,14.45,4.04,19.58,3.09,41.99-1.89,54.67-18.17,1.59-2.04,3.02-4.17,4.23-6.45s2.42-5.09,4-7.06c1.68-2.11,3.82-3.19,6.6-3.17,3.28.01,6.49,1.15,9.63,1.99,10.81,2.88,22.64,1.49,32.3-4.26s15.89-15.23,16.34-26.35c.41-10.22-4.03-20.69-12.32-26.82-2.03-1.5-4.29-2.62-6.67-3.46v5.79c14.74-3.01,20.34-21.63,14.68-34.19-3.34-7.41-10.2-12.62-17.55-15.64-8-3.29-16.75-3.73-25.22-2.44-11.31,1.73-21.86,6.58-32.19,11.29l4.41,1.79c-2.89-11.61-13.84-19.44-25.27-21.26-6.16-.98-12.34-.45-18.19,1.77-6.32,2.4-11.94,6.25-16.71,11.02-5.32,5.32-9.6,11.69-12.86,18.46h5.18c-7.28-10.53-20.34-16.5-33.09-15.3s-24.29,9.15-30.71,20.19c-1.64,2.83-2.71,5.87-3.97,8.88-.99,2.37-2.43,4.75-4.73,5.61-2.67.99-5.77.61-8.75.34-3.36-.31-6.69-.6-10.03.04-5.78,1.12-10.5,5.56-13.03,10.73-2.94,6.02-3.32,12.62-1.71,19.08,1,4.02,2.72,7.88,4.69,11.52,1.86,3.45,3.87,7.07,6.37,10.1,3.63,4.39,12.79,9.41,16.4,2.19.72-1.45.39-3.25-1.08-4.1-1.33-.78-3.38-.38-4.1,1.08h0Z" fill="#00aad0" stroke-width="0"/></g></svg>