<?xml version="1.0" encoding="UTF-8"?><svg id="Layer_2" xmlns="http://www.w3.org/2000/svg" viewBox="0 0 382.94 316.05"><g id="Layer_1-2"><path d="m360.45,19.54c-10.17,27.72-20.45,55.55-34.58,81.54-6.92,12.74-14.76,25.04-23.9,36.32s-20.46,22.29-32.2,31.82-24.63,18.27-37.62,26.36-26.3,15.55-39.94,22.41c-27.15,13.66-55.53,24.83-84.69,33.41-29.14,8.58-59.05,14.59-89.26,17.78-3.75.39-7.49.75-11.25,1.06s-3.85,6.32,0,6c30.92-2.57,61.59-7.94,91.53-16.06,29.73-8.06,58.73-18.82,86.55-32.04,27.95-13.29,55.09-28.98,79.85-47.6,12.4-9.32,24.18-19.52,34.58-31.05s18.6-23.18,26.18-35.93c15.36-25.86,26.36-54.03,36.77-82.16,1.27-3.42,2.52-6.84,3.78-10.26,1.33-3.63-4.46-5.2-5.79-1.6h0Z" fill="#ffff2e" stroke-width="0"/><path d="m40.9,274.7c10.68,6.53,19.13,16.8,23.48,28.52,1.28,3.45,2.22,7.01,2.84,10.64.27,1.6,2.24,2.49,3.69,2.1,1.69-.47,2.37-2.09,2.1-3.69-2.29-13.55-9.37-26.29-19.51-35.55-2.95-2.69-6.16-5.11-9.56-7.19s-6.32,3.17-3.03,5.18h0Z" fill="#ffff2e" stroke-width="0"/><path d="m83.45,269.99c4.11,5.71,8.22,11.43,12.33,17.14.91,1.27,2.65,2.01,4.1,1.08,1.26-.81,2.06-2.74,1.08-4.1-4.11-5.71-8.22-11.43-12.33-17.14-.91-1.27-2.65-2.01-4.1-1.08-1.26.81-2.06,2.74-1.08,4.1h0Z" fill="#ffff2e" stroke-width="0"/><path d="m117.04,258.17c5.81,12.23,11.62,24.47,17.42,36.7.69,1.46,2.79,1.84,4.1,1.08,1.5-.88,1.77-2.64,1.08-4.1l-17.42-36.7c-.69-1.46-2.79-1.84-4.1-1.08-1.5.88-1.77,2.64-1.08,4.1h0Z" fill="#ffff2e" stroke-width="0"/><path d="m153.69,246.71l9.8,2.52c1.52.39,3.33-.5,3.69-2.1s-.47-3.27-2.1-3.69l-9.8-2.52c-1.52-.39-3.33.5-3.69,2.1s.47,3.27,2.1,3.69h0Z" fill="#ffff2e" stroke-width="0"/><path d="m195.95,235.69c16.33,6.51,31.02,17.01,42.65,30.16,3.27,3.7,6.28,7.6,9.02,11.71.9,1.35,2.65,1.93,4.1,1.08,1.34-.78,1.98-2.75,1.08-4.1-10.43-15.58-24.5-28.65-40.87-37.81-4.64-2.6-9.46-4.85-14.39-6.81-1.51-.6-3.29.66-3.69,2.1-.47,1.71.58,3.09,2.1,3.69h0Z" fill="#ffff2e" stroke-width="0"/><path d="m155.62,246.37c.39.26.77.53,1.15.81.05.04.64.48.37.27-.25-.19.38.3.36.29.73.59,1.44,1.2,2.12,1.84,1.34,1.24,2.59,2.58,3.74,4,.15.18.29.36.44.55-.19-.25-.08-.1.04.06.28.38.55.75.82,1.14.53.77,1.04,1.56,1.52,2.36s.93,1.63,1.34,2.47c.19.38.37.76.55,1.14.1.21.19.43.29.64.26.59-.13-.33.13.32.59,1.45,2.02,2.63,3.69,2.1,1.4-.45,2.73-2.13,2.1-3.69-3.21-7.92-8.56-14.64-15.62-19.47-1.3-.89-3.38-.29-4.1,1.08-.8,1.52-.31,3.16,1.08,4.1h0Z" fill="#ffff2e" stroke-width="0"/><path d="m239.6,202.41c15.3,3.02,29.38,10.68,40.18,21.93,2.68,2.79,6.92-1.45,4.24-4.24-11.45-11.94-26.59-20.27-42.83-23.48-1.59-.31-3.24.45-3.69,2.1-.41,1.47.5,3.37,2.1,3.69h0Z" fill="#ffff2e" stroke-width="0"/><path d="m276.43,172.93c4.09.82,8.18,1.63,12.27,2.45,1.53.31,3.31-.44,3.69-2.1.34-1.49-.45-3.36-2.1-3.69l-12.27-2.45c-1.53-.31-3.31.44-3.69,2.1-.34,1.49.45,3.36,2.1,3.69h0Z" fill="#ffff2e" stroke-width="0"/><path d="m314.27,160.41c8.18,8.18,16.36,16.36,24.55,24.55,2.73,2.73,6.98-1.51,4.24-4.24-8.18-8.18-16.36-16.36-24.55-24.55-2.73-2.73-6.98,1.51-4.24,4.24h0Z" fill="#ffff2e" stroke-width="0"/><path d="m324.95,123.55c3.26,1.66,6.52,3.33,9.78,4.99,1.4.71,3.32.41,4.1-1.08.72-1.37.42-3.34-1.08-4.1-3.26-1.66-6.52-3.33-9.78-4.99-1.4-.71-3.32-.41-4.1,1.08-.72,1.37-.42,3.34,1.08,4.1h0Z" fill="#ffff2e" stroke-width="0"/><path d="m337.54,97.88c13.14,13.35,24.27,28.58,33.02,45.15,2.48,4.7,4.76,9.51,6.85,14.4.64,1.49,2.83,1.82,4.1,1.08,1.54-.9,1.72-2.61,1.08-4.1-7.53-17.63-17.68-34.07-29.95-48.8-3.45-4.14-7.08-8.13-10.86-11.97-2.71-2.76-6.96,1.49-4.24,4.24h0Z" fill="#ffff2e" stroke-width="0"/><path d="m349.99,70.18c1.15.23,2.28.56,3.38.98.18.07.62.29-.1-.05.11.05.23.1.35.15.26.12.52.24.77.37.54.27,1.07.56,1.58.88s.95.63,1.42.96c.32.23-.04-.02-.15-.12.12.11.25.2.37.3.22.18.44.37.65.56.45.4.88.83,1.29,1.27.19.21.38.42.57.64.15.18.78.98.25.28.5.65.97,1.15,1.79,1.38.72.2,1.67.11,2.31-.3,1.23-.79,2.09-2.77,1.08-4.1-3.46-4.53-8.32-7.85-13.96-8.98-1.53-.31-3.31.44-3.69,2.1-.34,1.49.45,3.36,2.1,3.69h0Z" fill="#ffff2e" stroke-width="0"/><path d="m364.83,45.26l9.82,2.43c1.52.38,3.32-.49,3.69-2.1s-.47-3.29-2.1-3.69l-9.82-2.43c-1.52-.38-3.32.49-3.69,2.1s.47,3.29,2.1,3.69h0Z" fill="#ffff2e" stroke-width="0"/><path d="m43.95,249.48c2.2-27.62-.42-55.31-3.86-82.72-3.44-27.47-7.74-54.9-8.88-82.6-.63-15.4-.25-30.85,1.8-46.14l-.54,3.99c.23-1.69.48-3.38.75-5.06.63-1.99.71-3.99.27-5.98-.09-2-.68-3.86-1.78-5.58-1.82-3.11-5.39-6.08-8.96-6.89-3.84-.87-8.15-.69-11.56,1.51-3.07,1.98-6.29,5.19-6.89,8.96C1.88,44.19.76,59.51.96,74.91c.19,14.09,1.33,28.15,2.86,42.14,3.09,28.21,7.8,56.25,9.9,84.57,1.18,15.92,1.5,31.92.23,47.85-.29,3.65,1.88,8.09,4.39,10.61s6.87,4.56,10.61,4.39,7.9-1.45,10.61-4.39l2.35-3.04c1.36-2.34,2.04-4.86,2.05-7.57h0Z" fill="#ffff2e" stroke-width="0"/><path d="m15.01,30.05c42.7,5.06,85.41,10.09,128.28,13.43s85.2,4.97,127.81,3.23c25.09-1.02,50.07-3.34,74.93-6.86-6.15-6.15-12.3-12.3-18.45-18.45-2.83,17.36-7.5,34.42-14.34,50.64l1.51-3.58c-5.8,13.64-13.12,26.61-22.18,38.36l2.35-3.04c-7.91,10.18-17.08,19.17-27.28,27.05l3.04-2.35c-9.59,7.36-19.82,13.82-30.1,20.16s-20.36,12.54-30.59,18.73c-20.47,12.38-41.17,24.41-62.48,35.31-12,6.13-24.19,11.89-36.61,17.14l3.58-1.51c-9.77,4.11-19.67,7.9-29.72,11.27-5.03,1.69-10.09,3.27-15.19,4.73s-9.84,2.99-14.86,3.76l3.99-.54c-1.52.2-3.01.27-4.53.09l3.99.54c-.81-.13-1.57-.33-2.34-.63l3.58,1.51c-.61-.27-1.16-.59-1.7-.97l3.04,2.35c-.62-.49-1.15-1.02-1.64-1.64l2.35,3.04c-.55-.77-.99-1.57-1.38-2.43l1.51,3.58c-1.87-4.59-2.43-9.83-3.37-14.67-1.08-5.56-2.13-11.14-3.13-16.72-2.01-11.16-3.86-22.35-5.55-33.56-.96-6.35-1.86-12.7-2.72-19.06l.54,3.99c-4.2-31.38-7.17-62.92-8.86-94.54-.24-4.49-.46-8.97-.64-13.46-.16-3.8-.5-7.65-.03-11.44l-.54,3.99c.18-1.26.46-2.46.91-3.65l-1.51,3.58c.36-.86.8-1.64,1.35-2.39l-2.35,3.04c.5-.62,1.04-1.15,1.67-1.65l-3.04,2.35c.64-.45,1.29-.82,2-1.14l-3.58,1.51c1.03-.41,2.06-.66,3.15-.82l-3.99.54c2.29-.27,4.56-.11,6.84.18l-3.99-.54c10.54,1.45,21.03,3.34,31.53,5.03s21.45,3.44,32.18,5.15c20.66,3.31,41.3,6.7,61.98,9.91,36.18,5.61,73.13,9.95,109.45,2.96,19.17-3.69,38.09-11.26,53.66-23.18l-20.52-20.52c-15.05,23.5-30.11,47-45.16,70.5-4.28,6.68-8.55,13.35-12.83,20.03h25.9c-1.34-2.64-2.58-5.32-3.75-8.05l1.51,3.58c-4.45-10.56-7.5-21.65-9.06-33.01l.54,3.99c-.21-1.56-.39-3.13-.55-4.7l-29.46,3.99c.39,1.87.71,3.76.96,5.66l-.54-3.99c.88,6.91.85,13.89-.05,20.8l.54-3.99c-.99,7.25-2.92,14.33-5.75,21.08l1.51-3.58c-2.67,6.25-6.08,12.13-10.23,17.51l2.35-3.04c-.54.69-1.08,1.36-1.64,2.03l25.07,6.62c-2.41-16.7-4.82-33.4-7.23-50.1-1.25-8.63-1.81-17.42-5.84-25.31-2.5-4.9-6.86-8.85-11.48-11.71-3.21-1.99-6.8-3.38-10.24-4.92-14.94-6.66-29.8-13.53-44.85-19.95-8.12-3.46-16.3-6.88-24.94-8.81s-17.02-2.69-25.56-1.58c-9.09,1.18-17.69,3.46-26.41,6.21-7.68,2.42-15.39,4.88-23.39,6l3.99-.54c-3.14.41-6.3.63-9.46.52s-6.49-.68-9.75-.71c-5.24-.06-10.81,1.08-15.33,3.82-4.07,2.46-7.75,6.2-9.91,10.46-3.65,7.2-4.48,14.83-5.03,22.79-.5,7.24-.82,14.49-.98,21.74-.65,30.37,1.81,60.74,6.85,90.69,1.22,7.26,2.61,14.49,4.18,21.68,1.33,6.11,2.56,12.33,4.64,18.23,2.5,7.08,5.68,13.41,10.64,19.08,5.49,6.28,13.37,9.79,21.63,10.23,5.49.29,10.53-1.47,15.45-3.64,3.17-1.4,6.06-3.28,8.98-5.13,6.28-3.98,12.55-7.96,18.82-11.96,12.63-8.05,25.23-16.12,37.81-24.24,25.17-16.22,50.25-32.58,75.24-49.07,3.06-2.02,6.11-4.03,9.17-6.05s6.03-5.19,6.89-8.96c.76-3.35.59-6.58-.76-9.77-1.22-2.88-3.29-5.67-6.14-7.17l-3.58-1.51c-2.66-.71-5.32-.71-7.98,0-23.74,3.7-47.25,8.85-70.36,15.43-24.19,6.89-47.81,15.44-70.97,25.24-12.54,5.3-24.9,11.04-37.04,17.2l22.57,12.95c-2.27-33.46-1.92-67.08,1.07-100.48.84-9.36,1.89-18.7,3.13-28.01l-.54,3.99c.68-5.08,1.43-10.15,2.23-15.21h-28.93c3.51,25.13,7.03,50.25,10.54,75.38.99,7.04,1.99,14.08,2.94,21.13l-.54-3.99c2.66,19.83,4.72,39.96,2.04,59.91l.54-3.99c-.15,1.06-.3,2.11-.47,3.16,9.82,1.33,19.64,2.66,29.46,3.99,3.56-40.67,7.11-81.35,10.67-122.02,1-11.47,2.01-22.93,3.01-34.4l-22.57,12.95c28.72,13.68,59.05,23.87,90.36,29.6,9.6,1.76,19.29,3.12,28.99,4.18v-30c-25.65-.48-51.29-.96-76.94-1.44-6.3-.12-12.61-.25-18.91-.35-8.47-.15-17.34,1.45-23.42,7.91-5.47,5.81-7.65,13.33-7.88,21.17-.15,5.33.83,10.7,1.46,15.97,1.71,14.33,3.43,28.66,5.14,42.99-.08,2.07.35,3.99,1.29,5.78.6,1.86,1.64,3.47,3.1,4.83,2.48,2.27,5.26,3.68,8.61,4.13,7.52,1.01,14.15-3.56,16.46-10.74,6.76-21,13.52-41.99,20.27-62.99l-29.46-3.99c.98,19.14,1.96,38.29,2.94,57.43.31,6.07,3.52,11.3,9.22,13.71,2.55,1.08,5.03,1.39,7.77,1.02,3-.4,6.62-1.68,8.61-4.13,10.97-13.48,21.95-26.95,32.92-40.43l-25.61-10.61c.77,14.99,5.29,29.9,13.87,42.31,2.75,3.98,6.1,6.51,10.96,7.16s9.01-.84,12.6-4.13c10.96-10.02,18.86-22.59,24.16-36.38-9.14,1.19-18.28,2.39-27.42,3.58,3.35,4.54,6.86,8.9,11.03,12.72s8.66,7.23,13.44,10.15c6.96,4.25,16.43,1.48,20.52-5.38,4.45-7.46,6.66-15.6,7.44-24.19.27-3.02.18-6.05-.21-9.06-.57-4.4-1.22-8.6-2.83-12.75-.94-2.42-1.99-4.75-3.86-6.62-2.35-2.35-5.36-3.69-8.61-4.13-2.74-.37-5.22-.05-7.77,1.02-2.74,1.16-5.91,3.32-7.17,6.14-4.62,10.28-10.46,19.95-17.31,28.88l2.35-3.04c-7.98,10.32-17.25,19.57-27.55,27.57l3.04-2.35c-10.58,8.17-22.16,14.97-34.47,20.2l3.58-1.51c-11.86,4.99-24.32,8.47-37.07,10.21l3.99-.54c-1.44.19-2.87.36-4.32.51-4.09.43-7.6,1.39-10.61,4.39-2.6,2.6-4.56,6.87-4.39,10.61s1.45,7.9,4.39,10.61c2.75,2.53,6.72,4.8,10.61,4.39,11.43-1.2,22.7-3.3,33.64-6.87s21.26-8.11,31.11-13.67c18.74-10.6,35.74-24.95,48.97-41.96,7.84-10.07,14.71-20.64,19.95-32.3l-27.42-3.58c1.1,2.83,1.86,5.75,2.29,8.76l-.54-3.99c.47,3.55.47,7.1.03,10.65l.54-3.99c-.49,3.54-1.41,6.97-2.78,10.28l1.51-3.58c-.71,1.64-1.51,3.22-2.43,4.75l20.52-5.38c-2.05-1.25-4.03-2.61-5.95-4.06l3.04,2.35c-4.55-3.51-8.61-7.56-12.14-12.09l2.35,3.04c-.34-.44-.67-.88-1-1.33-1.53-2.07-3.11-4.05-5.38-5.38-2.92-1.71-6.26-2.22-9.56-1.78-2.7.36-4.94,1.29-7.09,2.95-2.75,2.12-4.12,4.53-5.38,7.79-.32.84-.66,1.68-1.01,2.52l1.51-3.58c-2.63,6.17-6.02,11.96-10.1,17.29l2.35-3.04c-2.78,3.57-5.85,6.9-9.19,9.96l23.56,3.04c-2.68-3.87-4.93-7.99-6.76-12.32l1.51,3.58c-2.23-5.4-3.75-11.02-4.55-16.81l.54,3.99c-.24-1.86-.41-3.73-.51-5.61-.31-6.07-3.52-11.3-9.22-13.71-2.55-1.08-5.03-1.39-7.77-1.02-3,.4-6.62,1.68-8.61,4.13-10.97,13.48-21.95,26.95-32.92,40.43l25.61,10.61c-.98-19.14-1.96-38.29-2.94-57.43-.38-7.5-5.42-13.71-13.01-14.73s-14.15,3.56-16.46,10.74c-6.76,21-13.52,41.99-20.27,62.99,9.82,1.33,19.64,2.66,29.46,3.99-1.31-10.99-2.63-21.98-3.94-32.97-.64-5.39-1.29-10.77-1.93-16.16-.5-4.17-1.01-8.33-.52-12.53l-.54,3.99c.22-1.58.57-3.1,1.18-4.58l-1.51,3.58c.4-.89.86-1.71,1.44-2.5l-2.35,3.04c.53-.66,1.1-1.24,1.75-1.78l-3.04,2.35c.67-.5,1.36-.92,2.11-1.28l-3.58,1.51c1.17-.49,2.35-.8,3.6-1.01l-3.99.54c2.97-.4,5.97-.24,8.95-.18,3.37.06,6.74.13,10.11.19,6.63.12,13.26.25,19.89.37,13.37.25,26.73.5,40.1.75,7.61.14,15.21.29,22.82.43,3.8.07,7.94-1.72,10.61-4.39s4.56-6.87,4.39-10.61-1.45-7.9-4.39-10.61l-3.04-2.35c-2.34-1.36-4.86-2.04-7.57-2.05-2.99-.33-5.98-.69-8.96-1.09l3.99.54c-23.66-3.21-46.97-8.84-69.48-16.82-6.43-2.28-12.79-4.75-19.07-7.4l3.58,1.51c-4.8-2.03-9.56-4.17-14.27-6.42-2.34-1.36-4.86-2.04-7.57-2.05-2.71,0-5.23.69-7.57,2.05-4.87,2.85-6.96,7.55-7.43,12.95-3.56,40.67-7.11,81.35-10.67,122.02-1,11.47-2.01,22.93-3.01,34.4-.3,3.48,1.86,8.28,4.39,10.61s5.26,3.68,8.61,4.13,6.77.02,9.56-1.78c3.08-1.98,6.29-5.19,6.89-8.96,1.84-11.45,2.58-22.92,2.13-34.51-.41-10.47-1.61-20.9-2.99-31.28-2.95-22.13-6.14-44.23-9.23-66.34-1.65-11.81-3.3-23.62-4.96-35.44l-1.51-3.58c-.94-1.75-2.23-3.15-3.86-4.21-2.53-1.95-5.8-3.37-9.09-3.22-2.66.12-5.21.8-7.57,2.05-2.9,1.53-6.37,5.63-6.89,8.96-6.06,38.26-9.04,76.95-8.35,115.7.19,10.68.66,21.35,1.38,32,.36,5.38,2.63,10.14,7.43,12.95s10.28,2.47,15.14,0c12.15-6.16,24.5-11.89,37.04-17.2l-3.58,1.51c34.32-14.47,70-25.69,106.44-33.41,10.38-2.2,20.82-4.11,31.31-5.74-3.85-9.14-7.71-18.28-11.56-27.42-19.49,12.89-39.04,25.71-58.64,38.44-19.6,12.73-39.25,25.39-58.95,37.96-5.45,3.48-10.9,6.95-16.35,10.41s-10.39,7.13-16.07,9.63l3.58-1.51c-1.7.71-3.43,1.24-5.26,1.5l3.99-.54c-1.3.14-2.57.14-3.86-.03l3.99.54c-1.19-.19-2.33-.5-3.45-.96l3.58,1.51c-1.21-.53-2.33-1.19-3.39-1.98l3.04,2.35c-1.51-1.18-2.82-2.56-3.99-4.07l2.35,3.04c-1.85-2.47-3.29-5.18-4.51-8.01l1.51,3.58c-3.53-8.44-5.14-17.72-6.97-26.63-2.14-10.4-3.91-20.88-5.34-31.4l.54,3.99c-3.51-26.16-4.81-52.61-3.83-78.99.26-6.97.46-14.04,1.33-20.96l-.54,3.99c.35-2.58.89-5.12,1.86-7.54l-1.51,3.58c.52-1.21,1.14-2.34,1.91-3.4l-2.35,3.04c.62-.8,1.3-1.5,2.09-2.14l-3.04,2.35c.77-.58,1.57-1.05,2.45-1.45l-3.58,1.51c1.19-.48,2.38-.76,3.65-.93l-3.99.54c2.98-.31,5.95.05,8.92.34s5.82.35,8.73.16c6.86-.44,13.67-1.72,20.29-3.53,11.26-3.09,22.19-7.5,33.81-9.12l-3.99.54c5.14-.68,10.27-.7,15.42-.05l-3.99-.54c9.17,1.24,17.9,4.36,26.4,7.93l-3.58-1.51c10,4.22,19.86,8.78,29.77,13.2,5.01,2.23,10.01,4.47,15.02,6.7,4.44,1.98,9.2,3.71,13.14,6.62l-3.04-2.35c1.1.86,2.08,1.8,2.96,2.89l-2.35-3.04c.75,1.02,1.35,2.07,1.87,3.22l-1.51-3.58c2.07,4.98,2.41,10.63,3.17,15.92.89,6.14,1.77,12.28,2.66,18.42,1.76,12.17,3.52,24.35,5.27,36.52.71,2.54,2,4.75,3.86,6.62,1.87,1.86,4.08,3.14,6.62,3.86,4.78,1.32,11.28.15,14.59-3.86,3.75-4.53,7.28-9.27,10.18-14.39s5.27-10.6,7.25-16.14c3.58-10.03,5.33-20.98,5.29-31.61-.02-6.54-.84-13.13-2.16-19.52-.7-3.4-3.85-7.36-6.89-8.96s-6.15-2.24-9.56-1.78c-3.15.42-6.4,1.72-8.61,4.13-2.54,2.76-4.78,6.71-4.39,10.61.93,9.29,2.46,18.52,5.08,27.49,2.6,8.9,6.14,17.58,10.32,25.84,2.34,4.63,7.92,7.43,12.95,7.43,5.46,0,10.07-2.92,12.95-7.43,15.05-23.5,30.11-47,45.16-70.5,4.28-6.68,8.55-13.35,12.83-20.03l1.51-3.58c.63-1.99.71-3.99.27-5.98-.42-3.15-1.72-6.4-4.13-8.61-1.92-1.76-4.14-3.06-6.62-3.86-3.18-1.03-8.8-.6-11.56,1.51-7.33,5.61-15.35,10.22-23.85,13.83l3.58-1.51c-11.25,4.72-23.13,7.65-35.2,9.29l3.99-.54c-19.71,2.62-39.71,1.93-59.45-.07-5.68-.57-11.36-1.26-17.02-2.02l3.99.54c-25.86-3.49-51.6-8.02-77.37-12.14-13.84-2.22-27.67-4.43-41.51-6.65-6.87-1.1-13.73-2.2-20.6-3.3-8.54-1.36-17.73-2.31-25.42,2.69-5.12,3.33-8.47,7.98-10.45,13.71-1.21,3.49-1.51,7.42-1.51,11.1,0,6.57.49,13.17.83,19.73.72,13.78,1.69,27.55,2.89,41.29,2.5,28.61,6.04,57.14,10.52,85.51,2.15,13.63,4.53,27.22,7.16,40.77,1.36,7.01,2.28,14.26,5.59,20.69,2.79,5.41,7.72,8.98,13.28,11.08,2.3.86,4.89,1.11,7.31,1.26,2.55.16,5.36-.37,7.79-.76,5.98-.96,11.92-2.91,17.72-4.63,6.12-1.82,12.18-3.8,18.2-5.93,12.88-4.56,25.53-9.77,37.98-15.38,23.22-10.45,45.63-22.61,67.61-35.44,11.02-6.43,21.95-13.04,32.83-19.7s21.83-13.23,32.51-20.21c11.36-7.43,22.48-15.51,32.26-24.95,9-8.68,16.91-18.61,23.75-29.07,13.01-19.92,22-42.72,27.45-65.83,1.28-5.44,2.36-10.93,3.26-16.44.71-2.66.71-5.32,0-7.98-.71-2.54-2-4.75-3.86-6.62-1.87-1.86-4.08-3.14-6.62-3.86-2.66-.71-5.32-.71-7.98,0-1.49.21-2.97.42-4.46.62l3.99-.54c-41.79,5.61-84.03,7.13-126.16,6.09-42.1-1.04-84.09-4.58-125.95-9.01C61.96,5.6,38.49,2.83,15.01.05c-3.55-.42-8.19,1.98-10.61,4.39C1.8,7.04-.16,11.31,0,15.05s1.45,7.9,4.39,10.61l3.04,2.35c2.34,1.36,4.86,2.04,7.57,2.05h0Z" fill="#ffff2e" stroke-width="0"/></g></svg>